{"glyphs":{"0":{"ha":556,"x_min":0,"x_max":0,"o":"m 403 451 b 394 647 403 529 400 594 b 370 774 389 700 381 742 b 331 841 359 805 346 828 b 278 861 315 854 297 861 b 225 841 258 861 241 854 b 185 774 209 828 196 805 b 161 647 175 742 167 700 b 153 451 156 594 153 529 b 161 256 153 374 156 308 b 185 129 167 203 175 161 b 225 62 196 98 209 75 b 278 42 241 48 258 42 b 331 62 297 42 315 48 b 370 129 346 75 359 98 b 394 256 381 161 389 203 b 403 451 400 308 403 374 m 500 451 b 482 254 500 378 494 313 b 434 106 470 196 454 146 b 364 12 414 65 391 34 b 278 -21 337 -10 308 -21 b 192 12 247 -21 219 -10 b 122 106 165 34 141 65 b 74 254 102 146 86 196 b 56 451 62 313 56 378 b 74 649 56 525 62 590 b 122 797 86 707 102 756 b 192 891 141 838 165 869 b 278 924 219 913 247 924 b 364 891 308 924 337 913 b 434 797 391 869 414 838 b 482 649 454 756 470 707 b 500 451 494 590 500 525 "},"1":{"ha":556,"x_min":0,"x_max":0,"o":"m 101 736 l 101 792 l 115 792 b 227 824 164 792 202 802 b 282 924 253 845 271 878 l 319 924 l 319 181 b 322 115 319 153 320 131 b 335 80 324 100 328 88 b 365 65 342 72 352 67 b 417 63 377 63 394 63 l 463 63 l 463 0 l 93 0 l 93 63 l 139 63 b 191 65 161 63 178 63 b 220 80 203 67 213 72 b 233 115 227 88 231 100 b 236 181 235 131 236 153 l 236 736 "},"2":{"ha":556,"x_min":0,"x_max":0,"o":"m 42 0 l 42 42 b 188 242 98 119 147 186 b 291 396 229 298 264 350 b 351 528 318 442 338 486 b 371 667 364 571 371 617 b 338 808 371 726 360 773 b 250 861 316 844 287 861 b 199 849 231 861 213 857 b 163 821 184 841 172 832 b 142 785 153 810 146 798 b 135 750 137 772 135 760 b 151 706 135 736 140 721 b 167 646 161 690 167 670 b 154 592 167 625 163 606 b 118 569 146 577 134 569 b 74 596 100 569 86 578 b 56 681 62 613 56 642 b 72 774 56 714 61 745 b 115 851 82 803 97 829 b 179 904 134 874 155 891 b 254 924 203 917 228 924 b 408 856 317 924 369 901 b 468 667 448 810 468 747 b 453 559 468 627 463 591 b 403 454 444 527 427 492 b 306 322 379 416 346 372 b 153 132 265 272 214 209 l 153 118 l 347 118 b 395 124 367 118 383 120 b 424 147 408 127 417 135 b 437 197 430 158 434 175 b 440 285 439 219 440 249 l 440 299 l 476 299 l 476 0 "},"3":{"ha":556,"x_min":0,"x_max":0,"o":"m 260 514 b 317 528 283 514 302 519 b 352 567 331 538 343 551 b 370 622 361 582 367 601 b 375 688 373 644 375 665 b 369 753 375 710 373 731 b 350 808 366 774 359 793 b 313 847 341 824 328 837 b 254 861 297 856 277 861 b 185 835 229 861 206 853 b 153 778 163 818 153 799 b 167 740 153 764 157 751 b 181 688 176 729 181 712 b 168 637 181 666 176 649 b 135 618 160 624 149 618 b 93 647 116 618 102 628 b 79 722 84 666 79 691 b 92 794 79 746 84 770 b 129 859 101 819 113 840 b 186 906 145 878 164 894 b 260 924 208 918 233 924 b 409 864 320 924 370 904 b 468 694 448 824 468 768 b 449 593 468 653 462 619 b 408 532 437 567 423 547 b 347 493 390 514 369 501 l 347 486 b 424 446 376 479 401 465 b 476 372 443 428 461 404 b 500 243 492 341 500 298 b 482 138 500 205 494 170 b 432 53 470 105 453 77 b 356 -1 411 30 385 12 b 260 -21 327 -14 295 -21 b 179 -1 231 -21 204 -14 b 114 49 154 12 132 28 b 71 120 95 70 81 94 b 56 201 61 147 56 174 b 74 290 56 240 62 270 b 121 319 87 309 102 319 b 153 301 134 319 145 313 b 167 250 162 288 167 271 b 162 209 167 234 165 221 b 151 178 159 197 155 187 b 140 153 147 169 143 160 b 135 132 136 147 135 139 b 167 71 135 111 146 90 b 260 42 189 51 220 42 b 326 58 287 42 309 47 b 369 103 344 69 358 84 b 392 168 379 122 387 144 b 399 243 396 192 399 217 b 392 318 399 269 396 294 b 369 383 387 342 379 364 b 326 428 358 402 344 417 b 260 444 309 439 287 444 l 218 444 l 218 514 l 260 514 "},"4":{"ha":556,"x_min":0,"x_max":0,"o":"m 208 63 b 259 67 230 63 247 64 b 288 85 272 71 281 77 b 302 122 295 94 300 106 b 306 181 304 137 306 156 l 306 257 l 38 257 l 38 313 l 329 924 l 389 924 l 389 333 l 514 333 l 514 257 l 389 257 l 389 181 b 393 122 389 156 390 137 b 408 85 396 106 401 94 b 438 67 415 77 425 71 b 486 63 450 64 467 63 l 496 63 l 496 0 l 185 0 l 185 63 m 306 756 l 104 333 l 306 333 "},"5":{"ha":556,"x_min":0,"x_max":0,"o":"m 458 903 l 458 785 l 138 785 l 129 549 l 139 549 b 175 588 149 563 161 575 b 217 613 187 597 201 605 b 274 625 234 621 252 625 b 358 606 303 625 331 619 b 429 547 385 593 409 573 b 478 449 450 521 466 489 b 496 313 490 410 496 364 b 476 164 496 255 489 206 b 423 60 462 122 445 88 b 349 -1 401 33 376 13 b 264 -21 321 -14 293 -21 b 176 -1 231 -21 201 -14 b 112 49 150 12 129 28 b 73 120 95 70 82 94 b 60 201 64 147 60 174 b 79 290 60 240 66 270 b 125 319 92 309 107 319 b 158 301 138 319 149 313 b 171 250 166 288 171 271 b 166 209 171 234 169 221 b 155 178 163 197 159 187 b 144 153 151 169 147 160 b 139 132 141 147 139 139 b 166 71 139 111 148 90 b 250 42 184 51 212 42 b 356 105 292 42 327 63 b 399 299 384 147 399 212 b 356 484 399 379 384 441 b 240 549 328 527 289 549 b 181 529 217 549 197 542 b 139 486 164 516 150 502 b 107 424 126 468 115 447 l 79 424 l 97 903 "},"6":{"ha":556,"x_min":0,"x_max":0,"o":"m 301 861 b 181 760 246 861 206 828 b 143 493 156 693 143 604 l 153 493 b 189 549 162 513 174 532 b 235 587 201 563 216 575 b 301 604 253 598 275 604 b 447 526 360 604 408 578 b 504 306 485 473 504 400 b 486 167 504 254 498 207 b 438 64 474 126 458 92 b 368 1 418 36 395 15 b 282 -21 341 -14 313 -21 b 196 1 252 -21 224 -14 b 122 72 168 15 144 39 b 71 205 101 106 84 150 b 51 410 58 260 51 328 b 71 645 51 501 58 580 b 124 805 84 710 102 764 b 204 895 147 846 174 876 b 301 924 235 914 267 924 b 373 909 328 924 352 919 b 426 871 394 899 412 887 b 460 815 441 855 453 837 b 472 750 468 794 472 772 b 458 674 472 719 468 693 b 413 646 449 655 434 646 b 376 665 399 646 387 652 b 361 715 366 677 361 694 b 366 752 361 731 363 743 b 377 774 369 761 373 768 b 388 789 381 779 385 784 b 393 806 391 794 393 799 b 369 844 393 819 385 832 b 301 861 354 855 331 861 m 407 292 b 374 477 407 372 396 434 b 282 542 353 520 322 542 b 190 477 243 542 213 520 b 157 292 168 434 157 372 b 190 106 157 211 168 149 b 282 42 213 63 243 42 b 374 106 322 42 353 63 b 407 292 396 149 407 211 "},"7":{"ha":556,"x_min":0,"x_max":0,"o":"m 518 861 b 437 706 489 811 462 759 b 371 542 411 653 389 598 b 326 370 352 486 338 429 b 310 188 315 311 310 250 b 310 147 310 172 310 158 b 313 117 311 136 312 126 b 315 91 313 109 314 100 b 315 63 315 82 315 73 b 305 3 315 38 312 19 b 274 -21 298 -13 288 -21 b 227 12 255 -21 240 -10 b 208 118 215 34 208 69 b 228 285 208 172 215 227 b 279 455 241 342 258 399 b 351 619 300 511 324 566 b 431 771 377 673 404 724 l 431 785 l 204 785 b 156 779 185 785 169 783 b 128 756 144 775 134 768 b 115 706 121 745 117 728 b 111 618 112 683 111 654 l 111 604 l 74 604 l 74 903 l 518 903 l 518 861 "},"8":{"ha":556,"x_min":0,"x_max":0,"o":"m 278 924 b 415 860 333 924 379 903 b 468 688 450 818 468 761 b 451 592 468 649 463 617 b 415 533 440 568 428 548 b 361 493 400 516 381 502 l 361 486 b 431 439 387 476 410 460 b 478 363 448 420 464 395 b 500 236 493 331 500 289 b 440 50 500 159 480 97 b 278 -21 399 3 345 -21 b 116 50 210 -21 156 3 b 56 236 76 97 56 159 b 77 363 56 289 63 331 b 125 439 91 395 107 420 b 194 486 145 460 169 476 l 194 493 b 142 533 174 502 156 516 b 104 592 128 548 115 568 b 88 688 93 617 88 649 b 141 860 88 761 105 818 b 278 924 177 903 222 924 m 403 243 b 372 385 403 299 392 346 b 278 444 351 425 319 444 b 184 385 236 444 205 425 b 153 243 163 346 153 299 b 160 168 153 217 155 192 b 182 103 164 144 172 122 b 221 58 192 84 205 69 b 278 42 237 47 256 42 b 335 58 300 42 319 47 b 374 103 350 69 363 84 b 396 168 384 122 391 144 b 403 243 400 192 403 217 m 278 861 b 198 811 243 861 216 844 b 171 688 180 778 171 737 b 198 564 171 638 180 597 b 278 514 216 531 243 514 b 358 564 313 514 340 531 b 385 688 376 597 385 638 b 358 811 385 737 376 778 b 278 861 340 844 313 861 "},"9":{"ha":556,"x_min":0,"x_max":0,"o":"m 254 42 b 375 142 310 42 350 75 b 413 410 400 209 413 299 l 403 410 b 367 354 394 389 381 371 b 321 316 355 340 339 328 b 254 299 302 304 280 299 b 109 377 196 299 147 325 b 51 597 71 429 51 503 b 69 736 51 649 57 695 b 117 839 81 777 97 811 b 188 902 137 867 161 888 b 274 924 214 916 243 924 b 360 902 303 924 332 916 b 433 831 388 888 412 864 b 485 698 455 797 472 753 b 504 493 498 643 504 575 b 485 258 504 401 498 323 b 431 98 472 192 454 139 b 352 8 409 57 382 27 b 254 -21 322 -11 289 -21 b 183 -6 228 -21 205 -16 b 129 32 162 3 144 16 b 95 88 114 48 103 66 b 83 153 87 109 83 131 b 97 228 83 184 88 209 b 143 257 106 247 122 257 b 179 238 157 257 169 251 b 194 188 189 226 194 209 b 190 151 194 172 193 159 b 178 129 186 142 183 135 b 167 115 174 124 171 119 b 163 97 164 110 163 105 b 186 59 163 83 170 71 b 254 42 202 47 225 42 m 149 611 b 181 426 149 531 159 469 b 274 361 203 383 234 361 b 365 426 313 361 343 383 b 399 611 388 469 399 531 b 365 797 399 692 388 753 b 274 861 343 840 313 861 b 181 797 234 861 203 840 b 149 611 159 753 149 692 "},"¢":{"ha":556,"x_min":0,"x_max":0,"o":"m 97 903 l 458 903 l 458 0 l 97 0 m 431 69 l 431 833 l 125 833 l 125 69 m 258 451 l 181 644 l 200 694 l 278 500 l 356 694 l 375 644 l 297 451 l 375 258 l 356 208 l 278 403 l 200 208 l 181 258 "},"£":{"ha":556,"x_min":0,"x_max":0,"o":"m 97 0 l 458 0 l 458 903 l 97 903 m 125 69 l 125 833 l 431 833 l 431 69 m 181 258 l 200 208 l 278 403 l 356 208 l 375 258 l 297 451 l 375 644 l 356 694 l 278 500 l 200 694 l 181 644 l 258 451 "},"¨":{"ha":556,"x_min":0,"x_max":0,"o":"m 97 903 l 458 903 l 458 0 l 97 0 m 431 69 l 431 833 l 125 833 l 125 69 m 258 451 l 181 644 l 200 694 l 278 500 l 356 694 l 375 644 l 297 451 l 375 258 l 356 208 l 278 403 l 200 208 l 181 258 "},"©":{"ha":556,"x_min":0,"x_max":0,"o":"m 97 0 l 458 0 l 458 903 l 97 903 m 125 69 l 125 833 l 431 833 l 431 69 m 181 258 l 200 208 l 278 403 l 356 208 l 375 258 l 297 451 l 375 644 l 356 694 l 278 500 l 200 694 l 181 644 l 258 451 "},"ª":{"ha":556,"x_min":0,"x_max":0,"o":"m 97 903 l 458 903 l 458 0 l 97 0 m 431 69 l 431 833 l 125 833 l 125 69 m 258 451 l 181 644 l 200 694 l 278 500 l 356 694 l 375 644 l 297 451 l 375 258 l 356 208 l 278 403 l 200 208 l 181 258 "},"­":{"ha":556,"x_min":0,"x_max":0,"o":"m 97 0 l 458 0 l 458 903 l 97 903 m 125 69 l 125 833 l 431 833 l 431 69 m 181 258 l 200 208 l 278 403 l 356 208 l 375 258 l 297 451 l 375 644 l 356 694 l 278 500 l 200 694 l 181 644 l 258 451 "},"®":{"ha":556,"x_min":0,"x_max":0,"o":"m 97 903 l 458 903 l 458 0 l 97 0 m 431 69 l 431 833 l 125 833 l 125 69 m 258 451 l 181 644 l 200 694 l 278 500 l 356 694 l 375 644 l 297 451 l 375 258 l 356 208 l 278 403 l 200 208 l 181 258 "},"²":{"ha":556,"x_min":0,"x_max":0,"o":"m 97 0 l 458 0 l 458 903 l 97 903 m 125 69 l 125 833 l 431 833 l 431 69 m 181 258 l 200 208 l 278 403 l 356 208 l 375 258 l 297 451 l 375 644 l 356 694 l 278 500 l 200 694 l 181 644 l 258 451 "},"³":{"ha":556,"x_min":0,"x_max":0,"o":"m 97 903 l 458 903 l 458 0 l 97 0 m 431 69 l 431 833 l 125 833 l 125 69 m 258 451 l 181 644 l 200 694 l 278 500 l 356 694 l 375 644 l 297 451 l 375 258 l 356 208 l 278 403 l 200 208 l 181 258 "},"´":{"ha":556,"x_min":0,"x_max":0,"o":"m 97 0 l 458 0 l 458 903 l 97 903 m 125 69 l 125 833 l 431 833 l 431 69 m 181 258 l 200 208 l 278 403 l 356 208 l 375 258 l 297 451 l 375 644 l 356 694 l 278 500 l 200 694 l 181 644 l 258 451 "},"¸":{"ha":556,"x_min":0,"x_max":0,"o":"m 97 903 l 458 903 l 458 0 l 97 0 m 431 69 l 431 833 l 125 833 l 125 69 m 258 451 l 181 644 l 200 694 l 278 500 l 356 694 l 375 644 l 297 451 l 375 258 l 356 208 l 278 403 l 200 208 l 181 258 "},"¹":{"ha":556,"x_min":0,"x_max":0,"o":"m 97 0 l 458 0 l 458 903 l 97 903 m 125 69 l 125 833 l 431 833 l 431 69 m 181 258 l 200 208 l 278 403 l 356 208 l 375 258 l 297 451 l 375 644 l 356 694 l 278 500 l 200 694 l 181 644 l 258 451 "},"º":{"ha":556,"x_min":0,"x_max":0,"o":"m 97 903 l 458 903 l 458 0 l 97 0 m 431 69 l 431 833 l 125 833 l 125 69 m 258 451 l 181 644 l 200 694 l 278 500 l 356 694 l 375 644 l 297 451 l 375 258 l 356 208 l 278 403 l 200 208 l 181 258 "},"Ġ":{"ha":556,"x_min":0,"x_max":0,"o":"m 97 0 l 458 0 l 458 903 l 97 903 m 125 69 l 125 833 l 431 833 l 431 69 m 181 258 l 200 208 l 278 403 l 356 208 l 375 258 l 297 451 l 375 644 l 356 694 l 278 500 l 200 694 l 181 644 l 258 451 "},"ġ":{"ha":556,"x_min":0,"x_max":0,"o":"m 97 903 l 458 903 l 458 0 l 97 0 m 431 69 l 431 833 l 125 833 l 125 69 m 258 451 l 181 644 l 200 694 l 278 500 l 356 694 l 375 644 l 297 451 l 375 258 l 356 208 l 278 403 l 200 208 l 181 258 "},"Ĭ":{"ha":556,"x_min":0,"x_max":0,"o":"m 97 0 l 458 0 l 458 903 l 97 903 m 125 69 l 125 833 l 431 833 l 431 69 m 181 258 l 200 208 l 278 403 l 356 208 l 375 258 l 297 451 l 375 644 l 356 694 l 278 500 l 200 694 l 181 644 l 258 451 "},"ĭ":{"ha":556,"x_min":0,"x_max":0,"o":"m 97 903 l 458 903 l 458 0 l 97 0 m 431 69 l 431 833 l 125 833 l 125 69 m 258 451 l 181 644 l 200 694 l 278 500 l 356 694 l 375 644 l 297 451 l 375 258 l 356 208 l 278 403 l 200 208 l 181 258 "},"Ŝ":{"ha":556,"x_min":0,"x_max":0,"o":"m 97 0 l 458 0 l 458 903 l 97 903 m 125 69 l 125 833 l 431 833 l 431 69 m 181 258 l 200 208 l 278 403 l 356 208 l 375 258 l 297 451 l 375 644 l 356 694 l 278 500 l 200 694 l 181 644 l 258 451 "},"ŝ":{"ha":556,"x_min":0,"x_max":0,"o":"m 97 903 l 458 903 l 458 0 l 97 0 m 431 69 l 431 833 l 125 833 l 125 69 m 258 451 l 181 644 l 200 694 l 278 500 l 356 694 l 375 644 l 297 451 l 375 258 l 356 208 l 278 403 l 200 208 l 181 258 "},"Ţ":{"ha":556,"x_min":0,"x_max":0,"o":"m 97 0 l 458 0 l 458 903 l 97 903 m 125 69 l 125 833 l 431 833 l 431 69 m 181 258 l 200 208 l 278 403 l 356 208 l 375 258 l 297 451 l 375 644 l 356 694 l 278 500 l 200 694 l 181 644 l 258 451 "},"ţ":{"ha":556,"x_min":0,"x_max":0,"o":"m 97 903 l 458 903 l 458 0 l 97 0 m 431 69 l 431 833 l 125 833 l 125 69 m 258 451 l 181 644 l 200 694 l 278 500 l 356 694 l 375 644 l 297 451 l 375 258 l 356 208 l 278 403 l 200 208 l 181 258 "},"ν":{"ha":556,"x_min":0,"x_max":0,"o":"m 97 0 l 458 0 l 458 903 l 97 903 m 125 69 l 125 833 l 431 833 l 431 69 m 181 258 l 200 208 l 278 403 l 356 208 l 375 258 l 297 451 l 375 644 l 356 694 l 278 500 l 200 694 l 181 644 l 258 451 "},"ξ":{"ha":556,"x_min":0,"x_max":0,"o":"m 97 903 l 458 903 l 458 0 l 97 0 m 431 69 l 431 833 l 125 833 l 125 69 m 258 451 l 181 644 l 200 694 l 278 500 l 356 694 l 375 644 l 297 451 l 375 258 l 356 208 l 278 403 l 200 208 l 181 258 "},"ο":{"ha":556,"x_min":0,"x_max":0,"o":"m 97 0 l 458 0 l 458 903 l 97 903 m 125 69 l 125 833 l 431 833 l 431 69 m 181 258 l 200 208 l 278 403 l 356 208 l 375 258 l 297 451 l 375 644 l 356 694 l 278 500 l 200 694 l 181 644 l 258 451 "},"ρ":{"ha":556,"x_min":0,"x_max":0,"o":"m 97 903 l 458 903 l 458 0 l 97 0 m 431 69 l 431 833 l 125 833 l 125 69 m 258 451 l 181 644 l 200 694 l 278 500 l 356 694 l 375 644 l 297 451 l 375 258 l 356 208 l 278 403 l 200 208 l 181 258 "},"ς":{"ha":556,"x_min":0,"x_max":0,"o":"m 97 0 l 458 0 l 458 903 l 97 903 m 125 69 l 125 833 l 431 833 l 431 69 m 181 258 l 200 208 l 278 403 l 356 208 l 375 258 l 297 451 l 375 644 l 356 694 l 278 500 l 200 694 l 181 644 l 258 451 "},"Ӕ":{"ha":556,"x_min":0,"x_max":0,"o":"m 97 903 l 458 903 l 458 0 l 97 0 m 431 69 l 431 833 l 125 833 l 125 69 m 258 451 l 181 644 l 200 694 l 278 500 l 356 694 l 375 644 l 297 451 l 375 258 l 356 208 l 278 403 l 200 208 l 181 258 "},"ӕ":{"ha":556,"x_min":0,"x_max":0,"o":"m 97 0 l 458 0 l 458 903 l 97 903 m 125 69 l 125 833 l 431 833 l 431 69 m 181 258 l 200 208 l 278 403 l 356 208 l 375 258 l 297 451 l 375 644 l 356 694 l 278 500 l 200 694 l 181 644 l 258 451 "},"―":{"ha":556,"x_min":0,"x_max":0,"o":"m 97 903 l 458 903 l 458 0 l 97 0 m 431 69 l 431 833 l 125 833 l 125 69 m 258 451 l 181 644 l 200 694 l 278 500 l 356 694 l 375 644 l 297 451 l 375 258 l 356 208 l 278 403 l 200 208 l 181 258 "},"‖":{"ha":556,"x_min":0,"x_max":0,"o":"m 97 0 l 458 0 l 458 903 l 97 903 m 125 69 l 125 833 l 431 833 l 431 69 m 181 258 l 200 208 l 278 403 l 356 208 l 375 258 l 297 451 l 375 644 l 356 694 l 278 500 l 200 694 l 181 644 l 258 451 "},"‗":{"ha":556,"x_min":0,"x_max":0,"o":"m 97 903 l 458 903 l 458 0 l 97 0 m 431 69 l 431 833 l 125 833 l 125 69 m 258 451 l 181 644 l 200 694 l 278 500 l 356 694 l 375 644 l 297 451 l 375 258 l 356 208 l 278 403 l 200 208 l 181 258 "},"‛":{"ha":556,"x_min":0,"x_max":0,"o":"m 97 0 l 458 0 l 458 903 l 97 903 m 125 69 l 125 833 l 431 833 l 431 69 m 181 258 l 200 208 l 278 403 l 356 208 l 375 258 l 297 451 l 375 644 l 356 694 l 278 500 l 200 694 l 181 644 l 258 451 "},"‟":{"ha":556,"x_min":0,"x_max":0,"o":"m 97 903 l 458 903 l 458 0 l 97 0 m 431 69 l 431 833 l 125 833 l 125 69 m 258 451 l 181 644 l 200 694 l 278 500 l 356 694 l 375 644 l 297 451 l 375 258 l 356 208 l 278 403 l 200 208 l 181 258 "},"‣":{"ha":556,"x_min":0,"x_max":0,"o":"m 97 0 l 458 0 l 458 903 l 97 903 m 125 69 l 125 833 l 431 833 l 431 69 m 181 258 l 200 208 l 278 403 l 356 208 l 375 258 l 297 451 l 375 644 l 356 694 l 278 500 l 200 694 l 181 644 l 258 451 "},"․":{"ha":556,"x_min":0,"x_max":0,"o":"m 97 903 l 458 903 l 458 0 l 97 0 m 431 69 l 431 833 l 125 833 l 125 69 m 258 451 l 181 644 l 200 694 l 278 500 l 356 694 l 375 644 l 297 451 l 375 258 l 356 208 l 278 403 l 200 208 l 181 258 "},"‥":{"ha":556,"x_min":0,"x_max":0,"o":"m 97 0 l 458 0 l 458 903 l 97 903 m 125 69 l 125 833 l 431 833 l 431 69 m 181 258 l 200 208 l 278 403 l 356 208 l 375 258 l 297 451 l 375 644 l 356 694 l 278 500 l 200 694 l 181 644 l 258 451 "},"‼":{"ha":556,"x_min":0,"x_max":0,"o":"m 97 903 l 458 903 l 458 0 l 97 0 m 431 69 l 431 833 l 125 833 l 125 69 m 258 451 l 181 644 l 200 694 l 278 500 l 356 694 l 375 644 l 297 451 l 375 258 l 356 208 l 278 403 l 200 208 l 181 258 "},"‽":{"ha":556,"x_min":0,"x_max":0,"o":"m 97 0 l 458 0 l 458 903 l 97 903 m 125 69 l 125 833 l 431 833 l 431 69 m 181 258 l 200 208 l 278 403 l 356 208 l 375 258 l 297 451 l 375 644 l 356 694 l 278 500 l 200 694 l 181 644 l 258 451 "},"‾":{"ha":556,"x_min":0,"x_max":0,"o":"m 97 903 l 458 903 l 458 0 l 97 0 m 431 69 l 431 833 l 125 833 l 125 69 m 258 451 l 181 644 l 200 694 l 278 500 l 356 694 l 375 644 l 297 451 l 375 258 l 356 208 l 278 403 l 200 208 l 181 258 "},"⁁":{"ha":556,"x_min":0,"x_max":0,"o":"m 97 0 l 458 0 l 458 903 l 97 903 m 125 69 l 125 833 l 431 833 l 431 69 m 181 258 l 200 208 l 278 403 l 356 208 l 375 258 l 297 451 l 375 644 l 356 694 l 278 500 l 200 694 l 181 644 l 258 451 "},"↸":{"ha":556,"x_min":0,"x_max":0,"o":"m 97 903 l 458 903 l 458 0 l 97 0 m 431 69 l 431 833 l 125 833 l 125 69 m 258 451 l 181 644 l 200 694 l 278 500 l 356 694 l 375 644 l 297 451 l 375 258 l 356 208 l 278 403 l 200 208 l 181 258 "},"↹":{"ha":556,"x_min":0,"x_max":0,"o":"m 97 0 l 458 0 l 458 903 l 97 903 m 125 69 l 125 833 l 431 833 l 431 69 m 181 258 l 200 208 l 278 403 l 356 208 l 375 258 l 297 451 l 375 644 l 356 694 l 278 500 l 200 694 l 181 644 l 258 451 "},"∁":{"ha":556,"x_min":0,"x_max":0,"o":"m 97 903 l 458 903 l 458 0 l 97 0 m 431 69 l 431 833 l 125 833 l 125 69 m 258 451 l 181 644 l 200 694 l 278 500 l 356 694 l 375 644 l 297 451 l 375 258 l 356 208 l 278 403 l 200 208 l 181 258 "},"∄":{"ha":556,"x_min":0,"x_max":0,"o":"m 97 0 l 458 0 l 458 903 l 97 903 m 125 69 l 125 833 l 431 833 l 431 69 m 181 258 l 200 208 l 278 403 l 356 208 l 375 258 l 297 451 l 375 644 l 356 694 l 278 500 l 200 694 l 181 644 l 258 451 "},"∅":{"ha":556,"x_min":0,"x_max":0,"o":"m 97 903 l 458 903 l 458 0 l 97 0 m 431 69 l 431 833 l 125 833 l 125 69 m 258 451 l 181 644 l 200 694 l 278 500 l 356 694 l 375 644 l 297 451 l 375 258 l 356 208 l 278 403 l 200 208 l 181 258 "},"∛":{"ha":556,"x_min":0,"x_max":0,"o":"m 97 0 l 458 0 l 458 903 l 97 903 m 125 69 l 125 833 l 431 833 l 431 69 m 181 258 l 200 208 l 278 403 l 356 208 l 375 258 l 297 451 l 375 644 l 356 694 l 278 500 l 200 694 l 181 644 l 258 451 "},"∜":{"ha":556,"x_min":0,"x_max":0,"o":"m 97 903 l 458 903 l 458 0 l 97 0 m 431 69 l 431 833 l 125 833 l 125 69 m 258 451 l 181 644 l 200 694 l 278 500 l 356 694 l 375 644 l 297 451 l 375 258 l 356 208 l 278 403 l 200 208 l 181 258 "},"∝":{"ha":556,"x_min":0,"x_max":0,"o":"m 97 0 l 458 0 l 458 903 l 97 903 m 125 69 l 125 833 l 431 833 l 431 69 m 181 258 l 200 208 l 278 403 l 356 208 l 375 258 l 297 451 l 375 644 l 356 694 l 278 500 l 200 694 l 181 644 l 258 451 "},"∟":{"ha":556,"x_min":0,"x_max":0,"o":"m 97 903 l 458 903 l 458 0 l 97 0 m 431 69 l 431 833 l 125 833 l 125 69 m 258 451 l 181 644 l 200 694 l 278 500 l 356 694 l 375 644 l 297 451 l 375 258 l 356 208 l 278 403 l 200 208 l 181 258 "},"≢":{"ha":556,"x_min":0,"x_max":0,"o":"m 97 0 l 458 0 l 458 903 l 97 903 m 125 69 l 125 833 l 431 833 l 431 69 m 181 258 l 200 208 l 278 403 l 356 208 l 375 258 l 297 451 l 375 644 l 356 694 l 278 500 l 200 694 l 181 644 l 258 451 "},"≣":{"ha":556,"x_min":0,"x_max":0,"o":"m 97 903 l 458 903 l 458 0 l 97 0 m 431 69 l 431 833 l 125 833 l 125 69 m 258 451 l 181 644 l 200 694 l 278 500 l 356 694 l 375 644 l 297 451 l 375 258 l 356 208 l 278 403 l 200 208 l 181 258 "},"━":{"ha":556,"x_min":0,"x_max":0,"o":"m 97 0 l 458 0 l 458 903 l 97 903 m 125 69 l 125 833 l 431 833 l 431 69 m 181 258 l 200 208 l 278 403 l 356 208 l 375 258 l 297 451 l 375 644 l 356 694 l 278 500 l 200 694 l 181 644 l 258 451 "},"┍":{"ha":556,"x_min":0,"x_max":0,"o":"m 97 903 l 458 903 l 458 0 l 97 0 m 431 69 l 431 833 l 125 833 l 125 69 m 258 451 l 181 644 l 200 694 l 278 500 l 356 694 l 375 644 l 297 451 l 375 258 l 356 208 l 278 403 l 200 208 l 181 258 "},"┎":{"ha":556,"x_min":0,"x_max":0,"o":"m 97 0 l 458 0 l 458 903 l 97 903 m 125 69 l 125 833 l 431 833 l 431 69 m 181 258 l 200 208 l 278 403 l 356 208 l 375 258 l 297 451 l 375 644 l 356 694 l 278 500 l 200 694 l 181 644 l 258 451 "},"┏":{"ha":556,"x_min":0,"x_max":0,"o":"m 97 903 l 458 903 l 458 0 l 97 0 m 431 69 l 431 833 l 125 833 l 125 69 m 258 451 l 181 644 l 200 694 l 278 500 l 356 694 l 375 644 l 297 451 l 375 258 l 356 208 l 278 403 l 200 208 l 181 258 "},"┑":{"ha":556,"x_min":0,"x_max":0,"o":"m 97 0 l 458 0 l 458 903 l 97 903 m 125 69 l 125 833 l 431 833 l 431 69 m 181 258 l 200 208 l 278 403 l 356 208 l 375 258 l 297 451 l 375 644 l 356 694 l 278 500 l 200 694 l 181 644 l 258 451 "},"┒":{"ha":556,"x_min":0,"x_max":0,"o":"m 97 903 l 458 903 l 458 0 l 97 0 m 431 69 l 431 833 l 125 833 l 125 69 m 258 451 l 181 644 l 200 694 l 278 500 l 356 694 l 375 644 l 297 451 l 375 258 l 356 208 l 278 403 l 200 208 l 181 258 "},"┓":{"ha":556,"x_min":0,"x_max":0,"o":"m 97 0 l 458 0 l 458 903 l 97 903 m 125 69 l 125 833 l 431 833 l 431 69 m 181 258 l 200 208 l 278 403 l 356 208 l 375 258 l 297 451 l 375 644 l 356 694 l 278 500 l 200 694 l 181 644 l 258 451 "},"┕":{"ha":556,"x_min":0,"x_max":0,"o":"m 97 903 l 458 903 l 458 0 l 97 0 m 431 69 l 431 833 l 125 833 l 125 69 m 258 451 l 181 644 l 200 694 l 278 500 l 356 694 l 375 644 l 297 451 l 375 258 l 356 208 l 278 403 l 200 208 l 181 258 "},"┖":{"ha":556,"x_min":0,"x_max":0,"o":"m 97 0 l 458 0 l 458 903 l 97 903 m 125 69 l 125 833 l 431 833 l 431 69 m 181 258 l 200 208 l 278 403 l 356 208 l 375 258 l 297 451 l 375 644 l 356 694 l 278 500 l 200 694 l 181 644 l 258 451 "},"┗":{"ha":556,"x_min":0,"x_max":0,"o":"m 97 903 l 458 903 l 458 0 l 97 0 m 431 69 l 431 833 l 125 833 l 125 69 m 258 451 l 181 644 l 200 694 l 278 500 l 356 694 l 375 644 l 297 451 l 375 258 l 356 208 l 278 403 l 200 208 l 181 258 "},"┙":{"ha":556,"x_min":0,"x_max":0,"o":"m 97 0 l 458 0 l 458 903 l 97 903 m 125 69 l 125 833 l 431 833 l 431 69 m 181 258 l 200 208 l 278 403 l 356 208 l 375 258 l 297 451 l 375 644 l 356 694 l 278 500 l 200 694 l 181 644 l 258 451 "},"┚":{"ha":556,"x_min":0,"x_max":0,"o":"m 97 903 l 458 903 l 458 0 l 97 0 m 431 69 l 431 833 l 125 833 l 125 69 m 258 451 l 181 644 l 200 694 l 278 500 l 356 694 l 375 644 l 297 451 l 375 258 l 356 208 l 278 403 l 200 208 l 181 258 "},"┛":{"ha":556,"x_min":0,"x_max":0,"o":"m 97 0 l 458 0 l 458 903 l 97 903 m 125 69 l 125 833 l 431 833 l 431 69 m 181 258 l 200 208 l 278 403 l 356 208 l 375 258 l 297 451 l 375 644 l 356 694 l 278 500 l 200 694 l 181 644 l 258 451 "},"▁":{"ha":556,"x_min":0,"x_max":0,"o":"m 97 903 l 458 903 l 458 0 l 97 0 m 431 69 l 431 833 l 125 833 l 125 69 m 258 451 l 181 644 l 200 694 l 278 500 l 356 694 l 375 644 l 297 451 l 375 258 l 356 208 l 278 403 l 200 208 l 181 258 "},"▂":{"ha":556,"x_min":0,"x_max":0,"o":"m 97 0 l 458 0 l 458 903 l 97 903 m 125 69 l 125 833 l 431 833 l 431 69 m 181 258 l 200 208 l 278 403 l 356 208 l 375 258 l 297 451 l 375 644 l 356 694 l 278 500 l 200 694 l 181 644 l 258 451 "},"▃":{"ha":556,"x_min":0,"x_max":0,"o":"m 97 903 l 458 903 l 458 0 l 97 0 m 431 69 l 431 833 l 125 833 l 125 69 m 258 451 l 181 644 l 200 694 l 278 500 l 356 694 l 375 644 l 297 451 l 375 258 l 356 208 l 278 403 l 200 208 l 181 258 "},"▅":{"ha":556,"x_min":0,"x_max":0,"o":"m 97 0 l 458 0 l 458 903 l 97 903 m 125 69 l 125 833 l 431 833 l 431 69 m 181 258 l 200 208 l 278 403 l 356 208 l 375 258 l 297 451 l 375 644 l 356 694 l 278 500 l 200 694 l 181 644 l 258 451 "},"▆":{"ha":556,"x_min":0,"x_max":0,"o":"m 97 903 l 458 903 l 458 0 l 97 0 m 431 69 l 431 833 l 125 833 l 125 69 m 258 451 l 181 644 l 200 694 l 278 500 l 356 694 l 375 644 l 297 451 l 375 258 l 356 208 l 278 403 l 200 208 l 181 258 "},"▇":{"ha":556,"x_min":0,"x_max":0,"o":"m 97 0 l 458 0 l 458 903 l 97 903 m 125 69 l 125 833 l 431 833 l 431 69 m 181 258 l 200 208 l 278 403 l 356 208 l 375 258 l 297 451 l 375 644 l 356 694 l 278 500 l 200 694 l 181 644 l 258 451 "},"▉":{"ha":556,"x_min":0,"x_max":0,"o":"m 97 903 l 458 903 l 458 0 l 97 0 m 431 69 l 431 833 l 125 833 l 125 69 m 258 451 l 181 644 l 200 694 l 278 500 l 356 694 l 375 644 l 297 451 l 375 258 l 356 208 l 278 403 l 200 208 l 181 258 "},"▊":{"ha":556,"x_min":0,"x_max":0,"o":"m 97 0 l 458 0 l 458 903 l 97 903 m 125 69 l 125 833 l 431 833 l 431 69 m 181 258 l 200 208 l 278 403 l 356 208 l 375 258 l 297 451 l 375 644 l 356 694 l 278 500 l 200 694 l 181 644 l 258 451 "},"▋":{"ha":556,"x_min":0,"x_max":0,"o":"m 97 903 l 458 903 l 458 0 l 97 0 m 431 69 l 431 833 l 125 833 l 125 69 m 258 451 l 181 644 l 200 694 l 278 500 l 356 694 l 375 644 l 297 451 l 375 258 l 356 208 l 278 403 l 200 208 l 181 258 "},"▍":{"ha":556,"x_min":0,"x_max":0,"o":"m 97 0 l 458 0 l 458 903 l 97 903 m 125 69 l 125 833 l 431 833 l 431 69 m 181 258 l 200 208 l 278 403 l 356 208 l 375 258 l 297 451 l 375 644 l 356 694 l 278 500 l 200 694 l 181 644 l 258 451 "},"▎":{"ha":556,"x_min":0,"x_max":0,"o":"m 97 903 l 458 903 l 458 0 l 97 0 m 431 69 l 431 833 l 125 833 l 125 69 m 258 451 l 181 644 l 200 694 l 278 500 l 356 694 l 375 644 l 297 451 l 375 258 l 356 208 l 278 403 l 200 208 l 181 258 "},"▏":{"ha":556,"x_min":0,"x_max":0,"o":"m 97 0 l 458 0 l 458 903 l 97 903 m 125 69 l 125 833 l 431 833 l 431 69 m 181 258 l 200 208 l 278 403 l 356 208 l 375 258 l 297 451 l 375 644 l 356 694 l 278 500 l 200 694 l 181 644 l 258 451 "},"▵":{"ha":556,"x_min":0,"x_max":0,"o":"m 97 903 l 458 903 l 458 0 l 97 0 m 431 69 l 431 833 l 125 833 l 125 69 m 258 451 l 181 644 l 200 694 l 278 500 l 356 694 l 375 644 l 297 451 l 375 258 l 356 208 l 278 403 l 200 208 l 181 258 "},"▶":{"ha":556,"x_min":0,"x_max":0,"o":"m 97 0 l 458 0 l 458 903 l 97 903 m 125 69 l 125 833 l 431 833 l 431 69 m 181 258 l 200 208 l 278 403 l 356 208 l 375 258 l 297 451 l 375 644 l 356 694 l 278 500 l 200 694 l 181 644 l 258 451 "},"▹":{"ha":556,"x_min":0,"x_max":0,"o":"m 97 903 l 458 903 l 458 0 l 97 0 m 431 69 l 431 833 l 125 833 l 125 69 m 258 451 l 181 644 l 200 694 l 278 500 l 356 694 l 375 644 l 297 451 l 375 258 l 356 208 l 278 403 l 200 208 l 181 258 "},"▻":{"ha":556,"x_min":0,"x_max":0,"o":"m 97 0 l 458 0 l 458 903 l 97 903 m 125 69 l 125 833 l 431 833 l 431 69 m 181 258 l 200 208 l 278 403 l 356 208 l 375 258 l 297 451 l 375 644 l 356 694 l 278 500 l 200 694 l 181 644 l 258 451 "},"▿":{"ha":556,"x_min":0,"x_max":0,"o":"m 97 903 l 458 903 l 458 0 l 97 0 m 431 69 l 431 833 l 125 833 l 125 69 m 258 451 l 181 644 l 200 694 l 278 500 l 356 694 l 375 644 l 297 451 l 375 258 l 356 208 l 278 403 l 200 208 l 181 258 "},"◃":{"ha":556,"x_min":0,"x_max":0,"o":"m 97 0 l 458 0 l 458 903 l 97 903 m 125 69 l 125 833 l 431 833 l 431 69 m 181 258 l 200 208 l 278 403 l 356 208 l 375 258 l 297 451 l 375 644 l 356 694 l 278 500 l 200 694 l 181 644 l 258 451 "},"◄":{"ha":556,"x_min":0,"x_max":0,"o":"m 97 903 l 458 903 l 458 0 l 97 0 m 431 69 l 431 833 l 125 833 l 125 69 m 258 451 l 181 644 l 200 694 l 278 500 l 356 694 l 375 644 l 297 451 l 375 258 l 356 208 l 278 403 l 200 208 l 181 258 "},"◅":{"ha":556,"x_min":0,"x_max":0,"o":"m 97 0 l 458 0 l 458 903 l 97 903 m 125 69 l 125 833 l 431 833 l 431 69 m 181 258 l 200 208 l 278 403 l 356 208 l 375 258 l 297 451 l 375 644 l 356 694 l 278 500 l 200 694 l 181 644 l 258 451 "},"◈":{"ha":556,"x_min":0,"x_max":0,"o":"m 97 903 l 458 903 l 458 0 l 97 0 m 431 69 l 431 833 l 125 833 l 125 69 m 258 451 l 181 644 l 200 694 l 278 500 l 356 694 l 375 644 l 297 451 l 375 258 l 356 208 l 278 403 l 200 208 l 181 258 "},"◉":{"ha":556,"x_min":0,"x_max":0,"o":"m 97 0 l 458 0 l 458 903 l 97 903 m 125 69 l 125 833 l 431 833 l 431 69 m 181 258 l 200 208 l 278 403 l 356 208 l 375 258 l 297 451 l 375 644 l 356 694 l 278 500 l 200 694 l 181 644 l 258 451 "},"◊":{"ha":556,"x_min":0,"x_max":0,"o":"m 97 903 l 458 903 l 458 0 l 97 0 m 431 69 l 431 833 l 125 833 l 125 69 m 258 451 l 181 644 l 200 694 l 278 500 l 356 694 l 375 644 l 297 451 l 375 258 l 356 208 l 278 403 l 200 208 l 181 258 "},"☑":{"ha":556,"x_min":0,"x_max":0,"o":"m 97 0 l 458 0 l 458 903 l 97 903 m 125 69 l 125 833 l 431 833 l 431 69 m 181 258 l 200 208 l 278 403 l 356 208 l 375 258 l 297 451 l 375 644 l 356 694 l 278 500 l 200 694 l 181 644 l 258 451 "},"☒":{"ha":556,"x_min":0,"x_max":0,"o":"m 97 903 l 458 903 l 458 0 l 97 0 m 431 69 l 431 833 l 125 833 l 125 69 m 258 451 l 181 644 l 200 694 l 278 500 l 356 694 l 375 644 l 297 451 l 375 258 l 356 208 l 278 403 l 200 208 l 181 258 "},"♢":{"ha":556,"x_min":0,"x_max":0,"o":"m 97 0 l 458 0 l 458 903 l 97 903 m 125 69 l 125 833 l 431 833 l 431 69 m 181 258 l 200 208 l 278 403 l 356 208 l 375 258 l 297 451 l 375 644 l 356 694 l 278 500 l 200 694 l 181 644 l 258 451 "},"♣":{"ha":556,"x_min":0,"x_max":0,"o":"m 97 903 l 458 903 l 458 0 l 97 0 m 431 69 l 431 833 l 125 833 l 125 69 m 258 451 l 181 644 l 200 694 l 278 500 l 356 694 l 375 644 l 297 451 l 375 258 l 356 208 l 278 403 l 200 208 l 181 258 "},"♤":{"ha":556,"x_min":0,"x_max":0,"o":"m 97 0 l 458 0 l 458 903 l 97 903 m 125 69 l 125 833 l 431 833 l 431 69 m 181 258 l 200 208 l 278 403 l 356 208 l 375 258 l 297 451 l 375 644 l 356 694 l 278 500 l 200 694 l 181 644 l 258 451 "},"✴":{"ha":556,"x_min":0,"x_max":0,"o":"m 97 903 l 458 903 l 458 0 l 97 0 m 431 69 l 431 833 l 125 833 l 125 69 m 258 451 l 181 644 l 200 694 l 278 500 l 356 694 l 375 644 l 297 451 l 375 258 l 356 208 l 278 403 l 200 208 l 181 258 "},"✵":{"ha":556,"x_min":0,"x_max":0,"o":"m 97 0 l 458 0 l 458 903 l 97 903 m 125 69 l 125 833 l 431 833 l 431 69 m 181 258 l 200 208 l 278 403 l 356 208 l 375 258 l 297 451 l 375 644 l 356 694 l 278 500 l 200 694 l 181 644 l 258 451 "},"\u0000":{"ha":0,"x_min":0,"x_max":0,"o":""},"\r":{"ha":0,"x_min":0,"x_max":0,"o":""}," ":{"ha":556,"x_min":0,"x_max":0,"o":""}," ":{"ha":556,"x_min":0,"x_max":0,"o":""}," ":{"ha":556,"x_min":0,"x_max":0,"o":""},"!":{"ha":556,"x_min":0,"x_max":0,"o":"m 208 90 b 229 164 208 119 215 144 b 278 194 243 184 259 194 b 326 164 296 194 313 184 b 347 90 340 144 347 119 b 326 17 347 62 340 37 b 278 -14 313 -4 296 -14 b 229 17 259 -14 243 -4 b 208 90 215 37 208 62 m 218 854 b 234 967 218 903 223 941 b 278 1007 245 994 259 1007 b 322 967 296 1007 311 994 b 338 854 332 941 338 903 b 333 756 338 821 336 788 b 321 645 329 724 325 687 b 306 496 316 603 311 553 b 292 285 301 438 296 368 l 264 285 b 249 496 259 368 254 438 b 235 645 244 553 239 603 b 223 756 230 687 226 724 b 218 854 220 788 218 821 "},"\"":{"ha":556,"x_min":0,"x_max":0,"o":"m 304 972 l 413 972 l 369 583 l 347 583 m 143 972 l 251 972 l 208 583 l 186 583 "},"#":{"ha":556,"x_min":0,"x_max":0,"o":"m 228 639 l 285 903 l 322 903 l 267 639 l 367 639 l 424 903 l 461 903 l 406 639 l 514 639 l 514 569 l 390 569 l 340 333 l 451 333 l 451 264 l 326 264 l 271 0 l 233 0 l 289 264 l 188 264 l 132 0 l 94 0 l 150 264 l 42 264 l 42 333 l 164 333 l 214 569 l 104 569 l 104 639 m 303 333 l 353 569 l 251 569 l 201 333 "},"$":{"ha":556,"x_min":0,"x_max":0,"o":"m 292 1076 l 292 921 b 343 906 311 918 328 913 b 381 883 358 898 371 891 b 408 863 392 875 401 868 b 426 854 415 857 421 854 b 444 910 438 854 444 873 l 444 917 l 486 917 l 486 590 l 449 590 b 428 714 447 636 440 677 b 381 806 418 746 402 777 b 292 858 360 834 331 852 l 292 544 b 372 502 319 531 345 517 b 445 447 399 487 423 468 b 498 368 467 425 484 399 b 518 257 511 338 518 300 b 505 155 518 222 514 188 b 464 67 496 122 482 93 b 393 6 445 42 422 21 b 292 -21 364 -10 331 -19 l 292 -174 l 246 -174 l 246 -18 b 188 -3 224 -15 204 -10 b 146 19 172 5 158 12 b 117 40 134 27 124 34 b 97 49 109 46 103 49 b 83 37 90 49 85 45 b 79 -7 80 29 79 14 l 79 -14 l 38 -14 l 38 354 l 74 354 l 74 347 b 81 243 74 312 76 277 b 108 150 86 209 95 178 b 161 81 121 122 139 99 b 246 44 183 62 212 50 l 246 422 b 172 463 221 435 196 449 b 106 513 147 476 125 493 b 59 583 86 533 71 556 b 42 681 47 610 42 643 b 55 763 42 707 46 735 b 94 839 64 790 77 816 b 158 897 111 862 132 881 b 246 924 183 913 213 922 l 246 1076 m 440 215 b 428 279 440 239 436 261 b 396 328 421 298 410 314 b 348 367 382 343 366 356 b 292 399 330 378 311 388 l 292 42 b 365 60 321 43 346 49 b 410 101 384 71 399 85 b 433 157 421 118 429 137 b 440 215 438 177 440 197 m 121 715 b 157 626 121 677 133 647 b 246 567 181 604 211 584 l 246 860 b 151 810 202 855 171 839 b 121 715 131 782 121 750 "},"%":{"ha":556,"x_min":0,"x_max":0,"o":"m 29 694 b 37 783 29 726 32 756 b 59 856 42 811 49 835 b 94 906 69 877 80 894 b 139 924 107 918 122 924 b 184 906 156 924 171 918 b 219 856 197 894 209 877 b 241 783 228 835 236 811 b 249 694 246 756 249 726 b 241 606 249 663 246 633 b 219 533 236 578 228 553 b 184 483 209 512 197 495 b 139 465 171 471 156 465 b 94 483 122 465 107 471 b 59 533 80 495 69 512 b 37 606 49 553 42 578 b 29 694 32 633 29 663 m 83 694 b 95 576 83 648 87 609 b 139 528 103 544 118 528 b 183 576 160 528 175 544 b 194 694 191 609 194 648 b 183 813 194 741 191 780 b 139 861 175 845 160 861 b 95 813 118 861 103 845 b 83 694 87 780 83 741 m 307 208 b 315 297 307 240 309 269 b 337 370 320 325 327 349 b 372 419 347 391 358 407 b 417 438 385 431 400 438 b 462 419 433 438 448 431 b 497 370 475 407 487 391 b 519 297 506 349 514 325 b 526 208 524 269 526 240 b 519 119 526 177 524 147 b 497 47 514 92 506 67 b 462 -3 487 26 475 9 b 417 -21 448 -15 433 -21 b 372 -3 400 -21 385 -15 b 337 47 358 9 347 26 b 315 119 327 67 320 92 b 307 208 309 147 307 177 m 361 208 b 373 90 361 162 365 123 b 417 42 381 58 395 42 b 460 90 438 42 453 58 b 472 208 468 123 472 162 b 460 326 472 255 468 294 b 417 375 453 359 438 375 b 373 326 395 375 381 359 b 361 208 365 294 361 255 m 118 -21 l 463 879 l 438 924 l 93 22 "},"&":{"ha":556,"x_min":0,"x_max":0,"o":"m 529 236 l 529 222 b 527 138 529 194 528 166 b 516 59 526 109 522 83 b 489 1 510 35 501 16 b 440 -21 477 -13 461 -21 b 394 6 425 -21 410 -12 b 347 76 379 23 363 47 b 291 5 331 46 312 22 b 219 -21 270 -12 246 -21 b 137 2 187 -21 159 -13 b 82 61 114 17 96 37 b 51 143 68 85 58 113 b 42 236 45 174 42 205 b 52 333 42 273 45 305 b 79 406 59 360 68 384 b 117 462 90 427 103 446 b 161 508 132 478 146 494 b 128 615 148 546 137 582 b 115 708 120 649 115 680 b 156 874 115 785 129 840 b 250 924 184 907 215 924 b 329 874 283 924 310 907 b 358 750 349 840 358 799 b 348 678 358 723 355 699 b 320 621 341 658 332 638 b 281 572 309 603 296 587 b 236 525 267 556 252 541 l 288 399 b 326 303 300 366 313 334 b 364 217 338 272 351 244 b 384 299 373 246 380 274 b 392 347 388 324 391 340 b 388 408 395 377 394 397 b 350 424 382 418 369 424 l 336 424 l 336 486 l 503 486 l 503 424 l 485 424 b 452 408 474 424 463 419 b 426 340 441 398 433 375 b 386 171 415 280 402 224 b 425 107 399 144 412 123 b 463 83 438 91 450 83 b 488 100 474 83 482 89 b 501 140 494 111 499 124 b 506 186 504 155 506 170 b 507 222 507 202 507 214 l 507 236 m 235 56 b 285 74 253 56 270 62 b 324 119 300 86 313 101 b 280 217 309 149 294 181 b 236 324 266 252 251 288 b 207 394 226 348 216 371 b 179 461 198 416 188 439 b 133 372 161 435 145 406 b 115 250 121 339 115 298 b 121 187 115 231 117 209 b 140 124 125 164 131 143 b 177 75 150 104 162 88 b 235 56 192 62 212 56 m 179 736 b 190 657 179 712 183 686 b 219 565 198 628 207 598 b 276 646 242 589 260 616 b 299 764 291 675 299 715 b 296 797 299 774 298 785 b 286 828 294 808 291 819 b 268 852 281 838 275 846 b 242 861 261 858 252 861 b 195 828 221 861 206 850 b 179 736 184 806 179 775 "},"'":{"ha":556,"x_min":0,"x_max":0,"o":"m 224 972 l 332 972 l 289 583 l 267 583 "},"(":{"ha":556,"x_min":0,"x_max":0,"o":"m 407 -174 b 288 -18 363 -131 323 -79 b 204 178 257 35 229 100 b 167 451 179 256 167 347 b 204 725 167 556 179 647 b 288 921 229 803 257 868 b 407 1076 323 982 363 1034 l 426 1049 b 346 907 396 1011 369 963 b 289 721 325 858 306 796 b 264 451 272 646 264 556 b 289 183 264 347 272 257 b 346 -4 306 108 325 46 b 426 -146 369 -61 396 -108 l 407 -174 "},")":{"ha":556,"x_min":0,"x_max":0,"o":"m 149 1076 b 269 921 193 1034 233 982 b 351 725 299 868 326 803 b 389 451 376 647 389 556 b 351 178 389 347 376 256 b 269 -18 326 100 299 35 b 149 -174 233 -79 193 -131 l 129 -146 b 211 -4 160 -108 187 -61 b 267 183 231 46 250 108 b 292 451 283 257 292 347 b 267 721 292 556 283 646 b 211 907 250 796 231 858 b 129 1049 187 963 160 1011 l 149 1076 "},"*":{"ha":556,"x_min":0,"x_max":0,"o":"m 240 706 b 175 731 216 719 194 728 b 121 758 156 734 138 744 b 92 821 101 775 92 796 b 101 859 92 832 95 845 b 132 881 108 873 118 881 b 163 867 140 881 150 876 b 205 808 179 852 193 832 b 253 736 216 784 232 760 l 265 747 b 248 846 262 786 256 819 b 236 931 240 873 236 901 b 247 985 236 952 240 970 b 278 1007 253 1000 264 1007 b 309 985 292 1007 302 1000 b 319 931 316 970 319 952 b 308 846 319 901 316 873 b 289 747 300 819 294 786 l 301 736 b 351 808 323 760 339 784 b 393 867 362 832 376 852 b 424 881 405 876 415 881 b 454 859 438 881 448 873 b 464 821 461 845 464 832 b 435 758 464 796 454 775 b 380 731 418 744 400 734 b 314 706 360 728 338 719 l 314 683 b 380 656 338 669 360 659 b 435 631 400 653 418 644 b 464 568 454 614 464 593 b 455 529 464 556 461 543 b 425 508 449 515 439 508 b 393 522 416 508 405 513 b 351 580 376 536 362 555 b 301 653 339 604 323 629 l 289 642 b 308 542 294 603 300 570 b 319 458 316 515 319 487 b 309 404 319 437 316 419 b 278 382 302 389 292 382 b 247 404 264 382 253 389 b 236 458 240 419 236 437 b 248 542 236 487 240 515 b 265 642 256 570 262 603 l 253 653 b 205 580 232 629 216 604 b 163 522 193 555 179 536 b 132 508 150 513 140 508 b 101 530 118 508 108 516 b 92 568 95 544 92 557 b 121 631 92 593 101 614 b 175 656 138 644 156 653 b 240 683 194 659 216 669 l 240 706 "},"+":{"ha":556,"x_min":0,"x_max":0,"o":"m 254 486 l 254 757 l 301 757 l 301 486 l 482 486 l 482 417 l 301 417 l 301 146 l 254 146 l 254 417 l 74 417 l 74 486 "},",":{"ha":556,"x_min":0,"x_max":0,"o":"m 208 90 b 229 164 208 119 215 144 b 282 194 243 184 261 194 b 310 188 291 194 301 192 b 338 163 320 183 329 175 b 358 115 346 150 353 135 b 365 42 363 96 365 71 b 353 -60 365 6 361 -28 b 322 -145 344 -91 334 -120 b 283 -213 310 -171 297 -193 b 246 -264 269 -233 257 -250 l 222 -222 b 251 -183 231 -212 240 -199 b 281 -132 261 -168 272 -150 b 306 -76 291 -113 299 -95 b 315 -21 312 -57 315 -38 b 312 -8 315 -13 314 -9 b 306 -7 309 -7 307 -7 b 296 -10 304 -7 300 -8 b 278 -14 291 -13 285 -14 b 227 17 256 -14 240 -4 b 208 90 215 37 208 62 "},"-":{"ha":556,"x_min":0,"x_max":0,"o":"m 482 486 l 482 417 l 74 417 l 74 486 "},".":{"ha":556,"x_min":0,"x_max":0,"o":"m 208 90 b 229 164 208 119 215 144 b 278 194 243 184 259 194 b 326 164 296 194 313 184 b 347 90 340 144 347 119 b 326 17 347 62 340 37 b 278 -14 313 -4 296 -14 b 229 17 259 -14 243 -4 b 208 90 215 37 208 62 "},"/":{"ha":556,"x_min":0,"x_max":0,"o":"m 492 1090 l 532 1054 l 64 -187 l 24 -151 "},":":{"ha":556,"x_min":0,"x_max":0,"o":"m 208 90 b 229 164 208 119 215 144 b 278 194 243 184 259 194 b 326 164 296 194 313 184 b 347 90 340 144 347 119 b 326 17 347 62 340 37 b 278 -14 313 -4 296 -14 b 229 17 259 -14 243 -4 b 208 90 215 37 208 62 m 208 604 b 229 678 208 633 215 657 b 278 708 243 698 259 708 b 326 678 296 708 313 698 b 347 604 340 657 347 633 b 326 531 347 575 340 551 b 278 500 313 510 296 500 b 229 531 259 500 243 510 b 208 604 215 551 208 575 "},";":{"ha":556,"x_min":0,"x_max":0,"o":"m 208 604 b 229 678 208 633 215 657 b 278 708 243 698 259 708 b 326 678 296 708 313 698 b 347 604 340 657 347 633 b 326 531 347 575 340 551 b 278 500 313 510 296 500 b 229 531 259 500 243 510 b 208 604 215 551 208 575 m 208 90 b 229 164 208 119 215 144 b 282 194 243 184 261 194 b 310 188 291 194 301 192 b 338 163 320 183 329 175 b 358 115 346 150 353 135 b 365 42 363 96 365 71 b 353 -60 365 6 361 -28 b 322 -145 344 -91 334 -120 b 283 -213 310 -171 297 -193 b 246 -264 269 -233 257 -250 l 222 -222 b 251 -183 231 -212 240 -199 b 281 -132 261 -168 272 -150 b 306 -76 291 -113 299 -95 b 315 -21 312 -57 315 -38 b 312 -8 315 -13 314 -9 b 306 -7 309 -7 307 -7 b 296 -10 304 -7 300 -8 b 278 -14 291 -13 285 -14 b 227 17 256 -14 240 -4 b 208 90 215 37 208 62 "},"<":{"ha":556,"x_min":0,"x_max":0,"o":"m 444 715 l 176 451 l 444 188 l 418 129 l 93 451 l 418 774 "},"=":{"ha":556,"x_min":0,"x_max":0,"o":"m 482 382 l 482 313 l 74 313 l 74 382 m 482 590 l 482 521 l 74 521 l 74 590 "},">":{"ha":556,"x_min":0,"x_max":0,"o":"m 138 129 l 111 188 l 379 451 l 111 715 l 138 774 l 463 451 "},"?":{"ha":556,"x_min":0,"x_max":0,"o":"m 254 299 b 264 422 254 348 257 389 b 288 508 270 456 278 484 b 319 572 298 532 308 554 b 351 628 331 591 341 609 b 375 689 360 646 369 667 b 385 771 381 711 385 738 b 358 899 385 826 376 869 b 278 944 340 929 313 944 b 192 912 241 944 212 934 b 163 847 172 890 163 869 b 169 828 163 841 165 834 b 183 808 173 822 178 816 b 198 782 189 801 194 792 b 204 743 202 772 204 759 b 191 689 204 722 200 704 b 156 667 182 674 170 667 b 111 697 138 667 123 677 b 93 785 99 716 93 746 b 107 869 93 814 98 843 b 145 940 116 896 129 920 b 203 989 161 961 181 977 b 278 1007 226 1001 251 1007 b 426 944 339 1007 388 986 b 482 771 463 902 482 844 b 467 680 482 735 477 704 b 431 613 458 655 446 633 b 385 553 417 592 401 572 b 339 489 368 534 353 513 b 304 404 325 465 313 437 b 292 285 295 372 291 332 l 254 285 m 208 90 b 229 164 208 119 215 144 b 278 194 243 184 259 194 b 326 164 296 194 313 184 b 347 90 340 144 347 119 b 326 17 347 62 340 37 b 278 -14 313 -4 296 -14 b 229 17 259 -14 243 -4 b 208 90 215 37 208 62 "},"@":{"ha":556,"x_min":0,"x_max":0,"o":"m 68 424 b 129 83 68 271 88 157 b 278 -28 170 9 219 -28 b 364 10 307 -28 336 -15 b 433 113 392 35 415 69 l 454 68 b 375 -48 433 19 406 -20 b 278 -90 344 -76 311 -90 b 184 -58 244 -90 213 -79 b 108 40 155 -36 129 -3 b 56 200 86 83 69 136 b 38 424 44 264 38 338 b 58 656 38 509 44 586 b 111 836 71 726 89 786 b 190 952 133 886 159 925 b 285 993 220 979 251 993 b 376 958 318 993 349 981 b 448 862 404 935 428 903 b 495 715 468 821 484 772 b 513 528 507 658 513 595 b 501 385 513 480 509 432 b 469 260 493 339 482 297 b 423 172 456 224 441 194 b 364 139 405 150 385 139 b 335 153 352 139 342 144 b 319 186 328 162 323 173 b 312 227 316 199 313 213 b 310 264 310 241 310 254 l 306 264 b 295 233 304 257 300 247 b 276 192 290 219 284 206 b 248 155 268 178 259 166 b 213 139 237 144 225 139 b 158 190 191 139 173 156 b 136 338 144 223 136 273 b 150 510 136 400 141 458 b 186 645 159 563 171 608 b 236 733 201 683 218 712 b 293 764 255 753 274 764 b 326 744 307 764 318 757 b 344 701 334 731 340 717 b 353 658 348 686 351 671 b 360 639 355 645 357 639 b 365 646 362 639 363 641 b 374 681 367 650 370 662 l 389 757 l 407 757 l 367 389 b 360 328 365 369 363 349 b 357 271 358 308 357 288 b 361 226 357 252 358 237 b 376 208 364 214 369 208 b 415 234 389 208 402 217 b 449 303 427 251 438 274 b 473 405 459 333 467 366 b 482 528 479 443 482 484 b 467 694 482 589 477 644 b 427 821 458 743 444 786 b 365 902 410 856 389 883 b 285 931 341 921 314 931 b 201 894 255 931 227 919 b 132 792 174 870 151 836 b 85 632 113 747 97 694 b 68 424 74 570 68 500 m 190 336 b 199 246 190 301 193 271 b 229 208 204 221 214 208 b 272 249 245 208 259 222 b 306 347 285 275 296 308 b 327 468 315 385 322 425 b 335 581 332 511 335 548 b 325 673 335 619 331 649 b 294 708 319 697 308 708 b 258 678 282 708 270 698 b 224 598 245 659 234 632 b 199 480 213 564 205 525 b 190 336 193 435 190 387 "},"A":{"ha":556,"x_min":0,"x_max":0,"o":"m 14 63 b 64 88 37 63 54 71 b 94 181 74 105 84 136 l 260 917 l 296 917 l 461 181 b 490 88 471 136 481 105 b 544 63 498 71 517 63 l 549 63 l 549 0 l 342 0 l 342 63 l 349 63 b 406 113 387 63 406 79 b 394 181 406 126 402 149 l 372 278 l 156 278 l 133 181 b 124 111 127 154 124 131 b 136 74 124 94 128 81 b 179 63 144 66 159 63 l 186 63 l 186 0 l 7 0 l 7 63 m 358 340 l 264 760 l 169 340 "},"B":{"ha":556,"x_min":0,"x_max":0,"o":"m 379 472 b 451 435 406 465 430 452 b 500 367 469 419 485 397 b 522 250 515 338 522 299 b 471 68 522 174 505 113 b 296 0 437 23 378 0 l 31 0 l 31 63 l 38 63 b 76 67 53 63 66 64 b 101 85 87 71 95 77 b 113 122 107 94 111 106 b 117 181 116 137 117 156 l 117 722 b 113 781 117 746 116 766 b 101 817 111 797 107 809 b 76 835 95 826 87 832 b 38 840 66 839 53 840 l 31 840 l 31 903 l 296 903 b 453 847 368 903 421 884 b 503 681 486 809 503 754 b 484 576 503 637 497 602 b 442 515 472 549 457 529 b 379 479 423 498 402 486 l 379 472 m 263 833 b 224 830 247 833 234 832 b 199 815 213 828 205 822 b 187 781 193 807 189 795 b 183 722 184 766 183 746 l 183 500 l 296 500 b 392 539 336 500 368 513 b 428 667 416 565 428 607 b 392 794 428 726 416 769 b 296 833 368 820 336 833 l 263 833 m 296 69 b 403 113 343 69 379 84 b 439 250 427 141 439 187 b 401 390 439 317 426 363 b 296 431 375 417 340 431 l 183 431 l 183 181 b 199 89 183 132 189 102 b 263 69 210 76 231 69 l 296 69 "},"C":{"ha":556,"x_min":0,"x_max":0,"o":"m 35 451 b 55 649 35 525 41 590 b 110 797 68 707 87 756 b 192 891 133 838 160 869 b 293 924 223 913 257 924 b 351 913 315 924 335 920 b 395 889 368 905 383 897 b 426 865 408 881 418 873 b 446 854 435 858 441 854 b 457 866 451 854 455 858 b 460 910 459 874 460 888 l 460 917 l 494 917 l 494 549 l 464 549 b 453 656 462 584 459 620 b 427 757 448 693 440 726 b 376 832 415 788 398 813 b 293 861 355 851 327 861 b 222 838 267 861 244 853 b 167 766 201 823 183 799 b 131 639 152 733 140 691 b 118 451 122 587 118 525 b 169 151 118 315 135 215 b 308 56 203 88 249 56 b 389 85 340 56 367 65 b 443 150 411 104 429 126 b 483 243 460 177 473 208 l 510 215 b 460 97 497 171 480 131 b 395 16 443 68 422 41 b 297 -21 369 -9 336 -21 b 192 12 259 -21 224 -10 b 108 106 159 34 131 65 b 54 254 85 146 67 196 b 35 451 41 313 35 378 "},"D":{"ha":556,"x_min":0,"x_max":0,"o":"m 524 451 b 502 243 524 370 516 300 b 444 103 488 186 468 139 b 360 24 419 67 391 41 b 261 0 328 8 295 0 l 29 0 l 29 63 l 36 63 b 97 85 67 63 87 70 b 111 181 106 101 111 132 l 111 722 b 108 781 111 746 110 766 b 97 817 106 797 103 809 b 74 835 92 826 84 832 b 36 840 65 839 52 840 l 29 840 l 29 903 l 261 903 b 360 878 295 903 328 895 b 444 800 391 862 419 836 b 502 660 468 764 488 717 b 524 451 516 602 524 533 m 175 181 b 178 122 175 156 176 137 b 190 88 181 107 185 96 b 214 73 196 80 204 75 b 251 69 224 71 237 69 l 258 69 b 328 85 282 69 306 75 b 388 144 350 96 370 116 b 429 260 405 172 419 211 b 444 451 439 310 444 374 b 429 642 444 529 439 593 b 388 759 419 692 405 731 b 328 817 370 787 350 807 b 258 833 306 828 282 833 l 251 833 b 214 830 237 833 224 832 b 190 815 204 828 196 822 b 178 781 185 807 181 795 b 175 722 176 766 175 746 l 175 181 "},"E":{"ha":556,"x_min":0,"x_max":0,"o":"m 203 438 b 192 417 195 438 192 431 l 192 181 b 195 122 192 156 193 137 b 208 88 197 107 202 96 b 233 73 214 80 222 75 b 274 69 243 71 257 69 l 336 69 b 440 126 386 69 421 88 b 469 299 460 164 469 222 l 469 313 l 508 313 l 508 0 l 32 0 l 32 63 l 39 63 b 105 85 72 63 94 70 b 121 181 116 101 121 132 l 121 722 b 117 781 121 746 120 766 b 105 817 115 797 111 809 b 80 835 99 826 91 832 b 39 840 69 839 56 840 l 32 840 l 32 903 l 497 903 l 497 597 l 458 597 l 458 611 b 433 783 458 692 450 749 b 332 833 416 816 382 833 l 274 833 b 233 830 257 833 243 832 b 208 815 222 828 214 822 b 195 781 202 807 197 795 b 192 722 193 766 192 746 l 192 514 b 203 493 192 500 195 493 l 224 493 b 271 499 243 493 259 495 b 301 522 283 502 293 510 b 319 572 309 533 315 550 b 329 660 323 594 326 624 l 356 660 l 356 271 l 329 271 b 319 358 326 307 323 336 b 301 409 315 381 309 397 b 271 432 293 421 283 428 b 224 438 259 436 243 438 l 203 438 "},"F":{"ha":556,"x_min":0,"x_max":0,"o":"m 40 63 b 108 85 75 63 97 70 b 125 181 119 101 125 132 l 125 722 b 122 781 125 746 124 766 b 108 817 119 797 115 809 b 82 835 102 826 93 832 b 40 840 71 839 57 840 l 32 840 l 32 903 l 515 903 l 515 597 l 475 597 l 475 611 b 449 783 475 692 466 749 b 346 833 431 816 397 833 l 282 833 b 240 830 265 833 251 832 b 214 815 229 828 220 822 b 201 781 207 807 203 795 b 197 722 198 766 197 746 l 197 500 b 210 479 197 486 201 479 l 225 479 b 274 485 245 479 262 481 b 305 508 287 488 297 496 b 324 558 313 519 319 536 b 335 646 328 581 332 610 l 363 646 l 363 257 l 335 257 b 324 344 332 293 328 322 b 305 395 319 367 313 384 b 274 418 297 407 287 414 b 225 424 262 422 245 424 l 210 424 b 197 403 201 424 197 417 l 197 181 b 200 122 197 156 198 137 b 213 85 202 106 206 94 b 239 67 219 77 228 71 b 282 63 250 64 264 63 l 301 63 l 301 0 l 32 0 l 32 63 "},"G":{"ha":556,"x_min":0,"x_max":0,"o":"m 425 139 l 418 139 b 386 60 411 109 400 83 b 342 4 375 39 360 21 b 272 -21 323 -12 300 -21 b 177 12 238 -21 206 -10 b 101 106 148 34 123 65 b 51 254 80 146 63 196 b 33 451 39 313 33 378 b 52 649 33 525 40 590 b 104 797 65 707 82 756 b 183 891 126 838 153 869 b 279 924 213 913 245 924 b 335 913 300 924 319 920 b 376 889 350 905 364 897 b 406 865 388 881 398 873 b 425 854 414 858 420 854 b 436 866 431 854 434 858 b 439 910 438 874 439 888 l 439 917 l 472 917 l 472 590 l 443 590 b 418 726 439 641 431 687 b 369 819 407 760 391 791 b 279 861 347 847 317 861 b 159 761 230 861 190 828 b 113 451 128 694 113 591 b 160 151 113 315 128 215 b 288 56 192 88 235 56 b 340 75 307 56 324 62 b 377 127 355 88 367 105 b 399 202 387 149 394 174 b 407 292 404 230 407 260 l 407 306 b 405 365 407 330 406 349 b 396 401 403 380 400 392 b 375 419 391 409 384 416 b 338 424 366 422 353 424 l 326 424 l 326 486 l 542 486 l 542 424 l 533 424 b 485 401 509 424 493 416 b 472 306 476 387 472 355 l 472 -14 l 450 -14 "},"H":{"ha":556,"x_min":0,"x_max":0,"o":"m 33 63 b 88 85 61 63 79 70 b 101 181 97 101 101 132 l 101 722 b 99 781 101 746 100 766 b 88 817 97 797 93 809 b 67 835 83 826 76 832 b 33 840 59 839 47 840 l 26 840 l 26 903 l 235 903 l 235 840 l 229 840 b 195 835 215 840 204 839 b 174 817 186 832 179 826 b 163 781 168 809 164 797 b 160 722 161 766 160 746 l 160 507 b 169 486 160 493 163 486 l 386 486 b 396 507 393 486 396 493 l 396 722 b 393 781 396 746 395 766 b 382 817 391 797 388 809 b 360 835 376 826 369 832 b 326 840 352 839 340 840 l 321 840 l 321 903 l 529 903 l 529 840 l 522 840 b 488 835 508 840 497 839 b 467 817 479 832 472 826 b 457 781 462 809 459 797 b 454 722 455 766 454 746 l 454 181 b 467 85 454 132 459 101 b 522 63 476 70 494 63 l 529 63 l 529 0 l 321 0 l 321 63 l 326 63 b 382 85 354 63 373 70 b 396 181 391 101 396 132 l 396 396 b 386 417 396 410 393 417 l 169 417 b 160 396 163 417 160 410 l 160 181 b 174 85 160 132 164 101 b 229 63 183 70 201 63 l 235 63 l 235 0 l 26 0 l 26 63 "},"I":{"ha":556,"x_min":0,"x_max":0,"o":"m 121 63 b 180 65 146 63 166 63 b 213 80 194 67 205 72 b 228 115 221 88 226 100 b 231 181 230 131 231 153 l 231 722 b 228 788 231 750 230 772 b 213 823 226 803 221 815 b 180 838 205 831 194 836 b 121 840 166 839 146 840 l 100 840 l 100 903 l 454 903 l 454 840 l 433 840 b 374 838 408 840 389 839 b 342 823 360 836 349 831 b 328 788 334 815 330 803 b 325 722 326 772 325 750 l 325 181 b 328 115 325 153 326 131 b 342 80 330 100 334 88 b 374 65 349 72 360 67 b 433 63 389 63 408 63 l 454 63 l 454 0 l 100 0 l 100 63 "},"J":{"ha":556,"x_min":0,"x_max":0,"o":"m 325 722 b 322 781 325 746 324 766 b 307 817 319 797 314 809 b 273 835 300 826 288 832 b 210 840 258 839 237 840 l 200 840 l 200 903 l 531 903 l 531 840 l 521 840 b 469 835 500 840 482 839 b 437 817 455 832 445 826 b 420 781 429 809 423 797 b 415 722 417 766 415 746 l 415 278 b 398 142 415 225 409 180 b 353 50 386 105 371 74 b 289 -3 334 26 313 8 b 215 -21 265 -15 240 -21 b 132 -1 183 -21 155 -14 b 76 49 109 12 90 28 b 44 115 61 69 51 91 b 35 181 38 138 35 160 b 62 295 35 236 44 274 b 117 326 80 316 98 326 b 165 301 138 326 154 318 b 181 243 175 284 181 264 b 169 195 181 223 177 207 b 145 167 162 184 154 174 b 121 150 136 160 128 155 b 110 132 113 145 110 139 b 133 69 110 108 118 87 b 210 42 149 51 175 42 b 297 94 249 42 278 59 b 325 243 316 128 325 178 l 325 722 "},"K":{"ha":556,"x_min":0,"x_max":0,"o":"m 35 63 b 94 85 64 63 84 70 b 108 181 103 101 108 132 l 108 722 b 106 781 108 746 107 766 b 94 817 104 797 100 809 b 72 835 89 826 81 832 b 35 840 62 839 50 840 l 28 840 l 28 903 l 251 903 l 251 840 l 244 840 b 208 835 230 840 217 839 b 185 817 198 832 190 826 b 174 781 179 809 175 797 b 171 722 172 766 171 746 l 171 438 l 360 750 b 381 808 374 774 381 794 b 350 840 381 830 370 840 l 332 840 l 332 903 l 521 903 l 521 840 l 510 840 b 463 818 492 840 476 833 b 422 764 449 803 435 785 l 281 529 l 454 139 b 491 81 466 112 478 93 b 538 63 503 69 519 63 l 542 63 l 542 0 l 346 0 l 346 63 l 360 63 b 386 86 377 63 386 70 b 383 108 386 93 385 100 b 374 132 380 116 377 124 l 233 449 l 171 347 l 171 181 b 185 85 171 132 176 101 b 244 63 195 70 215 63 l 251 63 l 251 0 l 28 0 l 28 63 "},"L":{"ha":556,"x_min":0,"x_max":0,"o":"m 121 722 b 117 781 121 746 120 766 b 105 817 115 797 111 809 b 80 835 99 826 91 832 b 39 840 69 839 56 840 l 32 840 l 32 903 l 282 903 l 282 840 l 274 840 b 233 835 257 840 243 839 b 208 817 222 832 214 826 b 195 781 202 809 197 797 b 192 722 193 766 192 746 l 192 181 b 195 122 192 156 193 137 b 208 88 197 107 202 96 b 233 73 214 80 222 75 b 274 69 243 71 257 69 l 321 69 b 389 81 348 69 370 73 b 435 122 407 89 423 103 b 461 201 447 142 456 168 b 469 326 467 235 469 276 l 469 368 l 508 368 l 508 0 l 32 0 l 32 63 l 39 63 b 105 85 72 63 94 70 b 121 181 116 101 121 132 l 121 722 "},"M":{"ha":556,"x_min":0,"x_max":0,"o":"m 28 63 b 76 85 52 63 68 70 b 88 181 84 101 88 132 l 88 722 b 85 781 88 746 87 766 b 76 817 83 797 80 809 b 58 835 72 826 66 832 b 28 840 50 839 40 840 l 22 840 l 22 903 l 168 903 l 281 183 l 393 903 l 533 903 l 533 840 l 528 840 b 498 835 516 840 506 839 b 480 817 490 832 484 826 b 471 781 476 809 473 797 b 468 722 469 766 468 746 l 468 181 b 480 85 468 132 472 101 b 528 63 488 70 504 63 l 533 63 l 533 0 l 354 0 l 354 63 l 360 63 b 407 85 384 63 400 70 b 418 181 414 100 418 131 l 418 826 l 413 826 l 283 0 l 256 0 l 126 826 l 121 826 l 121 181 b 132 85 121 131 125 100 b 179 63 139 70 155 63 l 185 63 l 185 0 l 22 0 l 22 63 "},"N":{"ha":556,"x_min":0,"x_max":0,"o":"m 146 799 l 140 799 l 140 181 b 153 85 140 132 145 101 b 208 63 162 70 181 63 l 214 63 l 214 0 l 26 0 l 26 63 l 32 63 b 88 85 60 63 78 70 b 101 181 97 101 101 132 l 101 722 b 99 781 101 746 100 766 b 88 817 97 797 93 809 b 66 835 82 826 75 832 b 32 840 57 839 46 840 l 26 840 l 26 903 l 182 903 l 425 242 l 425 722 b 422 781 425 746 424 766 b 412 817 420 797 417 809 b 391 835 407 826 400 832 b 357 840 382 839 371 840 l 351 840 l 351 903 l 539 903 l 539 840 l 533 840 b 499 835 519 840 508 839 b 478 817 491 832 483 826 b 467 781 472 809 469 797 b 464 722 465 766 464 746 l 464 -14 l 444 -14 "},"O":{"ha":556,"x_min":0,"x_max":0,"o":"m 443 451 b 397 763 443 594 428 698 b 278 861 367 828 327 861 b 159 763 230 861 190 828 b 113 451 128 698 113 594 b 159 140 113 309 128 205 b 278 42 190 74 230 42 b 397 140 327 42 367 74 b 443 451 428 205 443 309 m 524 451 b 505 254 524 378 517 313 b 453 106 492 196 475 146 b 374 12 431 65 404 34 b 278 -21 344 -10 312 -21 b 181 12 244 -21 211 -10 b 103 106 151 34 125 65 b 51 254 81 146 63 196 b 32 451 38 313 32 378 b 51 649 32 525 38 590 b 103 797 63 707 81 756 b 181 891 125 838 151 869 b 278 924 211 913 244 924 b 374 891 312 924 344 913 b 453 797 404 869 431 838 b 505 649 475 756 492 707 b 524 451 517 590 524 525 "},"P":{"ha":556,"x_min":0,"x_max":0,"o":"m 200 181 b 203 122 200 156 201 137 b 215 85 205 106 209 94 b 242 67 222 77 231 71 b 286 63 253 64 268 63 l 307 63 l 307 0 l 33 0 l 33 63 l 40 63 b 83 67 58 63 72 64 b 110 85 94 71 103 77 b 123 122 116 94 121 106 b 126 181 125 137 126 156 l 126 722 b 123 781 126 746 125 766 b 110 817 121 797 116 809 b 83 835 103 826 94 832 b 40 840 72 839 58 840 l 33 840 l 33 903 l 303 903 b 470 832 380 903 435 879 b 522 646 505 785 522 723 b 470 460 522 570 505 508 b 303 389 435 413 380 389 l 200 389 m 286 833 b 243 830 269 833 254 832 b 217 815 232 828 223 822 b 203 781 210 807 206 795 b 200 722 201 766 200 746 l 200 458 l 303 458 b 406 508 354 458 388 475 b 433 646 424 541 433 587 b 406 784 433 705 424 751 b 303 833 388 817 354 833 l 286 833 "},"Q":{"ha":556,"x_min":0,"x_max":0,"o":"m 524 451 b 488 190 524 350 512 263 b 393 28 463 118 432 64 b 422 -75 401 -12 411 -46 b 469 -118 433 -104 449 -118 b 504 -86 485 -118 497 -107 b 515 -7 512 -65 515 -38 l 515 0 l 542 0 l 542 -21 b 522 -176 542 -84 535 -135 b 454 -236 509 -216 487 -236 b 411 -217 438 -236 423 -230 b 380 -165 399 -204 389 -186 b 358 -91 371 -143 364 -118 b 342 -7 352 -64 346 -36 b 278 -21 319 -16 297 -21 b 181 12 244 -21 211 -10 b 103 106 151 34 125 65 b 51 254 81 146 63 196 b 32 451 38 313 32 378 b 51 649 32 525 38 590 b 103 797 63 707 81 756 b 181 891 125 838 151 869 b 278 924 211 913 244 924 b 374 891 312 924 344 913 b 453 797 404 869 431 838 b 505 649 475 756 492 707 b 524 451 517 590 524 525 m 443 451 b 397 763 443 594 428 698 b 278 861 367 828 327 861 b 159 763 230 861 190 828 b 113 451 128 698 113 594 b 135 213 113 353 120 274 b 196 79 150 153 170 108 b 187 114 192 89 189 101 b 183 160 184 127 183 142 b 206 267 183 201 191 237 b 267 313 222 297 242 313 b 309 295 283 313 297 307 b 340 249 321 284 331 268 b 362 182 348 229 356 207 b 379 104 368 157 374 131 b 426 238 400 137 415 181 b 443 451 438 294 443 365 m 217 146 b 231 76 217 122 222 98 b 278 42 241 53 256 42 b 331 56 298 42 316 46 b 319 124 327 80 323 103 b 305 182 315 146 310 165 b 288 222 300 199 294 212 b 264 236 281 231 273 236 b 228 209 247 236 235 227 b 217 146 220 191 217 170 "},"R":{"ha":556,"x_min":0,"x_max":0,"o":"m 544 153 b 527 29 544 104 539 63 b 469 -21 516 -4 496 -21 b 407 35 443 -21 422 -2 b 374 194 392 72 381 125 b 360 297 370 236 365 270 b 340 361 354 324 347 345 b 311 394 332 377 322 388 b 271 403 300 400 287 403 l 175 403 l 175 181 b 190 85 175 132 180 101 b 249 63 199 70 219 63 l 257 63 l 257 0 l 29 0 l 29 63 l 36 63 b 95 85 66 63 85 70 b 110 181 105 101 110 132 l 110 722 b 107 781 110 746 109 766 b 96 817 105 797 101 809 b 73 835 90 826 83 832 b 36 840 63 839 51 840 l 29 840 l 29 903 l 271 903 b 426 839 340 903 392 881 b 478 660 461 796 478 737 b 457 550 478 614 471 578 b 413 485 443 522 428 500 b 346 444 393 466 371 453 l 346 438 b 381 417 359 432 370 425 b 408 381 391 408 400 396 b 430 320 417 365 424 345 b 444 229 436 296 441 265 b 460 110 449 182 454 142 b 485 63 465 78 474 63 b 506 85 494 63 501 70 b 513 160 510 100 513 125 l 513 181 l 544 181 m 271 472 b 368 522 315 472 348 489 b 399 660 388 554 399 600 b 271 833 399 775 356 833 l 249 833 b 212 830 234 833 222 832 b 189 815 202 828 194 822 b 178 781 183 807 180 795 b 175 722 176 766 175 746 l 175 472 l 271 472 "},"S":{"ha":556,"x_min":0,"x_max":0,"o":"m 483 590 l 446 590 b 422 726 443 641 435 687 b 367 819 410 760 392 791 b 264 861 343 847 308 861 b 158 817 216 861 180 847 b 124 715 135 788 124 754 b 153 634 124 682 133 655 b 225 578 172 613 196 595 b 319 531 254 562 285 546 b 413 473 353 515 384 496 b 485 388 441 450 465 422 b 514 257 504 353 514 310 b 500 152 514 221 509 186 b 457 63 491 118 476 89 b 383 2 438 38 413 17 b 278 -21 354 -13 319 -21 b 207 -10 250 -21 226 -17 b 157 14 188 -2 171 6 b 122 38 143 22 131 30 b 100 49 113 45 106 49 b 85 37 93 49 88 45 b 82 -7 83 29 82 14 l 82 -14 l 42 -14 l 42 354 l 78 354 l 78 347 b 87 235 78 309 81 272 b 119 138 93 199 103 166 b 181 68 134 109 155 86 b 282 42 208 50 241 42 b 358 58 313 42 338 47 b 406 100 379 69 395 83 b 431 156 418 117 426 135 b 438 215 435 176 438 196 b 408 311 438 255 428 287 b 336 374 389 335 365 356 b 242 424 307 392 276 409 b 147 479 207 440 176 458 b 75 558 119 500 94 527 b 46 681 56 590 46 631 b 59 765 46 708 50 737 b 99 844 68 794 81 820 b 167 901 117 867 140 887 b 260 924 194 916 225 924 b 324 913 285 924 306 920 b 371 889 342 905 358 897 b 403 865 384 881 394 873 b 424 854 411 858 418 854 b 442 910 436 854 442 873 l 442 917 l 483 917 "},"T":{"ha":556,"x_min":0,"x_max":0,"o":"m 518 903 l 518 535 l 479 535 l 479 576 b 453 779 479 671 471 738 b 365 840 436 820 407 840 b 325 822 347 840 333 834 b 313 750 317 809 313 785 l 313 181 b 328 85 313 132 318 101 b 392 63 339 70 360 63 l 407 63 l 407 0 l 149 0 l 149 63 l 164 63 b 203 67 180 63 193 64 b 227 85 213 71 221 77 b 240 122 233 94 237 106 b 243 181 242 137 243 156 l 243 750 b 231 822 243 785 239 809 b 190 840 222 834 209 840 b 102 779 149 840 119 820 b 76 576 85 738 76 671 l 76 535 l 38 535 l 38 903 "},"U":{"ha":556,"x_min":0,"x_max":0,"o":"m 539 840 l 532 840 b 497 835 518 840 506 839 b 476 817 488 832 481 826 b 465 781 471 809 467 797 b 463 722 463 766 463 746 l 463 333 b 415 60 463 205 447 113 b 278 -21 384 6 338 -21 b 142 60 219 -21 174 6 b 93 333 109 113 93 205 l 93 722 b 90 781 93 746 92 766 b 80 817 88 797 85 809 b 58 835 75 826 68 832 b 24 840 49 839 38 840 l 17 840 l 17 903 l 231 903 l 231 840 l 224 840 b 189 835 210 840 198 839 b 167 817 180 832 172 826 b 157 781 162 809 159 797 b 154 722 155 766 154 746 l 154 333 b 163 203 154 281 157 238 b 188 120 168 169 176 141 b 229 76 199 99 213 84 b 288 63 246 67 265 63 b 344 76 309 63 328 67 b 386 120 360 84 374 99 b 413 203 398 141 407 169 b 422 333 419 238 422 281 l 422 722 b 408 818 422 771 418 803 b 351 840 399 833 380 840 l 344 840 l 344 903 l 539 903 "},"V":{"ha":556,"x_min":0,"x_max":0,"o":"m 542 840 b 492 815 519 840 502 832 b 461 722 481 797 471 767 l 296 -14 l 260 -14 l 94 722 b 66 815 84 767 75 797 b 11 840 57 832 39 840 l 7 840 l 7 903 l 214 903 l 214 840 l 207 840 b 150 790 169 840 150 824 b 161 722 150 776 154 754 l 292 143 l 422 722 b 432 792 429 749 432 772 b 419 829 432 809 428 822 b 376 840 411 837 397 840 l 369 840 l 369 903 l 549 903 l 549 840 "},"W":{"ha":556,"x_min":0,"x_max":0,"o":"m 544 840 b 506 816 528 840 515 832 b 485 722 497 800 490 769 l 392 -14 l 365 -14 l 276 621 l 189 -14 l 164 -14 l 71 722 b 51 816 65 769 59 800 b 8 840 44 832 30 840 l 6 840 l 6 903 l 161 903 l 161 840 l 156 840 b 124 830 141 840 130 837 b 115 793 118 823 115 811 b 117 762 115 784 116 773 b 122 721 119 750 120 737 l 189 182 l 264 722 b 255 780 260 745 257 765 b 245 816 253 795 249 807 b 230 835 241 825 236 831 b 206 840 224 838 216 840 l 203 840 l 203 903 l 358 903 l 358 840 l 353 840 b 319 828 337 840 326 836 b 308 785 312 821 308 806 b 314 722 308 765 310 744 l 389 183 l 457 721 b 461 779 460 745 461 764 b 451 827 461 802 458 818 b 421 840 445 836 435 840 l 415 840 l 415 903 l 550 903 l 550 840 "},"X":{"ha":556,"x_min":0,"x_max":0,"o":"m 111 764 b 75 822 100 791 88 810 b 31 840 62 834 47 840 l 21 840 l 21 903 l 221 903 l 221 840 l 207 840 b 176 811 187 840 176 831 b 188 771 176 799 180 786 l 285 536 l 376 750 b 392 807 387 773 392 792 b 383 833 392 820 389 829 b 360 840 377 838 369 840 l 342 840 l 342 903 l 525 903 l 525 840 l 515 840 b 431 764 479 840 451 815 l 308 479 l 450 139 b 487 81 461 112 473 93 b 532 63 500 69 515 63 l 542 63 l 542 0 l 342 0 l 342 63 l 356 63 b 385 92 375 63 385 72 b 375 132 385 103 381 116 l 269 386 l 169 153 b 154 94 159 130 154 110 b 186 63 154 73 165 63 l 203 63 l 203 0 l 21 0 l 21 63 l 31 63 b 79 83 49 63 65 69 b 115 139 93 96 105 115 l 246 443 "},"Y":{"ha":556,"x_min":0,"x_max":0,"o":"m 168 63 b 233 85 201 63 223 70 b 249 181 244 101 249 132 l 249 361 l 110 722 b 71 810 95 761 82 791 b 11 840 60 830 40 840 l 7 840 l 7 903 l 232 903 l 232 840 l 225 840 b 171 794 189 840 171 825 b 189 722 171 778 177 754 l 296 444 l 403 722 b 422 801 416 756 422 783 b 374 840 422 827 406 840 l 367 840 l 367 903 l 549 903 l 549 840 l 542 840 b 487 810 518 840 499 830 b 444 722 474 791 460 761 l 314 379 l 314 181 b 317 122 314 156 315 137 b 330 85 320 106 324 94 b 355 67 336 77 344 71 b 396 63 366 64 379 63 l 410 63 l 410 0 l 153 0 l 153 63 "},"Z":{"ha":556,"x_min":0,"x_max":0,"o":"m 401 833 l 221 833 b 117 768 172 833 137 812 b 86 604 96 725 86 670 l 86 590 l 47 590 l 47 903 l 504 903 l 504 861 l 142 69 l 331 69 b 435 129 381 69 416 89 b 465 299 455 169 465 225 l 465 340 l 504 340 l 504 0 l 39 0 l 39 42 "},"[":{"ha":556,"x_min":0,"x_max":0,"o":"m 426 1076 l 426 1007 l 236 1007 l 236 -104 l 426 -104 l 426 -174 l 185 -174 l 185 1076 "},"\\":{"ha":556,"x_min":0,"x_max":0,"o":"m 24 1054 l 64 1090 l 532 -151 l 492 -187 "},"]":{"ha":556,"x_min":0,"x_max":0,"o":"m 129 -174 l 129 -104 l 319 -104 l 319 1007 l 129 1007 l 129 1076 l 371 1076 l 371 -174 "},"^":{"ha":556,"x_min":0,"x_max":0,"o":"m 278 993 l 496 667 l 463 618 l 278 896 l 93 618 l 60 667 "},"_":{"ha":556,"x_min":0,"x_max":0,"o":"m 556 69 l 556 0 l 0 0 l 0 69 "},"`":{"ha":556,"x_min":0,"x_max":0,"o":"m 121 972 l 250 972 l 351 694 l 310 694 "},"a":{"ha":556,"x_min":0,"x_max":0,"o":"m 347 153 b 319 88 339 131 330 109 b 285 32 309 66 298 48 b 240 -6 272 16 257 3 b 179 -21 222 -16 202 -21 b 93 19 141 -21 113 -7 b 64 118 74 46 64 79 b 89 224 64 158 72 193 b 154 306 106 255 127 283 b 247 369 181 330 212 351 b 353 417 281 387 317 403 l 353 465 b 321 617 353 538 342 589 b 233 660 300 646 270 660 b 190 649 217 660 202 656 b 157 624 177 642 166 634 b 136 592 148 615 141 604 b 129 563 131 581 129 571 b 133 537 129 552 131 544 l 142 516 b 150 492 144 509 147 501 b 154 458 153 484 154 472 b 139 408 154 437 149 420 b 103 389 129 395 117 389 b 60 414 85 389 71 397 b 44 482 50 431 44 453 b 62 573 44 514 50 545 b 108 647 73 601 89 626 b 175 697 128 669 150 685 b 253 715 200 709 226 715 b 343 694 290 715 320 708 b 398 638 366 681 384 662 b 425 554 411 615 420 587 b 432 451 430 522 432 488 l 432 125 b 436 78 432 104 433 88 b 454 63 439 68 445 63 b 492 174 479 63 492 100 l 492 181 l 526 181 l 526 160 b 517 70 526 124 523 94 b 494 15 511 47 503 28 b 461 -13 484 1 473 -8 b 426 -21 449 -18 438 -21 b 373 6 404 -21 386 -12 b 353 90 359 23 353 51 l 353 153 m 353 368 b 214 283 297 347 251 318 b 158 146 177 247 158 201 b 174 83 158 122 164 101 b 224 56 185 65 201 56 b 267 73 238 56 252 61 b 308 126 281 84 295 102 b 340 217 321 149 332 180 b 353 347 349 254 353 297 l 353 368 "},"b":{"ha":556,"x_min":0,"x_max":0,"o":"m -14 972 b 50 978 12 972 33 974 b 90 990 67 981 80 985 b 115 1001 100 994 109 998 b 131 1007 121 1005 126 1007 b 144 986 140 1007 144 1000 l 144 632 b 148 604 144 618 146 609 b 154 597 150 600 152 597 b 169 616 158 597 163 603 b 197 656 176 628 185 642 b 241 697 208 671 223 684 b 308 715 259 709 281 715 b 459 618 369 715 420 683 b 518 347 498 553 518 463 b 502 202 518 295 513 247 b 458 85 491 157 477 118 b 390 8 439 53 416 27 b 303 -21 363 -11 334 -21 b 225 3 271 -21 245 -13 b 174 56 205 19 188 36 b 144 108 161 75 151 93 b 126 132 137 124 131 132 b 107 69 119 132 113 111 l 99 -14 l 65 -14 l 69 222 l 69 833 b 60 892 69 861 66 881 b 10 910 54 904 38 910 l -18 910 l -18 972 m 429 347 b 394 565 429 438 418 510 b 285 646 371 619 335 646 b 225 624 263 646 243 638 b 180 562 207 609 192 588 b 151 467 167 535 158 504 b 140 347 144 431 140 391 b 151 227 140 304 144 264 b 180 133 158 191 167 159 b 225 71 192 106 207 86 b 285 49 243 56 263 49 b 394 130 335 49 371 76 b 429 347 418 184 429 256 "},"c":{"ha":556,"x_min":0,"x_max":0,"o":"m 500 118 b 451 49 487 92 471 69 b 388 1 435 31 414 15 b 296 -21 363 -14 332 -21 b 198 1 262 -21 229 -13 b 117 69 167 16 140 39 b 61 185 94 100 75 138 b 40 347 47 231 40 285 b 59 490 40 397 47 445 b 112 607 72 534 89 574 b 194 686 134 640 162 667 b 301 715 226 706 262 715 b 435 663 355 715 400 698 b 489 528 471 628 489 583 b 474 458 489 504 484 480 b 424 424 463 435 447 424 b 380 444 406 424 391 430 b 363 500 368 457 363 476 b 375 556 363 524 367 543 b 388 597 383 570 388 583 b 366 642 388 615 380 630 b 306 660 352 654 331 660 b 240 640 282 660 260 653 b 185 583 219 627 200 608 b 147 487 169 557 156 525 b 132 354 137 448 132 404 b 181 124 132 256 148 179 b 326 42 214 69 263 42 b 390 58 350 42 372 47 b 436 94 409 69 424 81 b 474 147 451 110 463 128 l 500 118 "},"d":{"ha":556,"x_min":0,"x_max":0,"o":"m 382 833 b 374 892 382 861 379 881 b 325 910 368 904 352 910 l 282 910 l 282 972 l 294 972 b 358 978 320 972 342 974 b 399 990 375 981 389 985 b 424 1001 410 994 418 998 b 439 1007 430 1005 435 1007 b 451 986 447 1007 451 1000 l 451 139 b 460 80 451 111 454 91 b 499 63 466 68 479 63 l 529 63 l 529 0 b 434 -7 484 0 452 -2 b 394 -14 416 -12 403 -14 b 382 7 386 -14 382 -7 l 382 69 b 379 97 382 83 381 93 b 374 104 377 102 375 104 b 359 85 370 104 365 98 b 334 42 353 72 345 57 b 293 -1 323 26 310 12 b 231 -21 276 -14 256 -21 b 90 74 173 -21 126 11 b 35 347 53 138 35 229 b 49 495 35 401 40 450 b 90 612 59 540 73 579 b 152 688 108 645 128 670 b 231 715 176 706 202 715 b 293 698 256 715 276 709 b 334 660 310 686 323 674 b 359 622 345 646 353 633 b 374 604 365 610 370 604 b 379 611 375 604 377 606 b 382 639 381 616 382 625 l 382 833 m 117 347 b 150 130 117 256 128 184 b 251 49 172 76 206 49 b 308 71 273 49 291 56 b 350 133 324 86 338 106 b 377 227 362 159 371 191 b 386 347 383 264 386 304 b 377 467 386 391 383 431 b 350 562 371 504 362 535 b 308 624 338 588 324 609 b 251 646 291 638 273 646 b 150 565 206 646 172 619 b 117 347 128 510 117 438 "},"e":{"ha":556,"x_min":0,"x_max":0,"o":"m 501 139 b 449 60 487 109 469 83 b 382 4 431 39 409 21 b 288 -21 355 -12 324 -21 b 192 2 254 -21 222 -13 b 114 71 162 17 136 40 b 60 184 92 101 74 139 b 40 340 47 229 40 281 b 60 496 40 398 47 450 b 113 614 73 542 90 581 b 191 689 135 646 161 671 b 288 715 221 706 253 715 b 447 630 355 715 408 687 b 506 382 486 573 506 490 l 506 354 l 129 354 b 176 137 129 263 145 191 b 318 56 208 83 255 56 b 385 73 343 56 365 61 b 435 111 404 84 421 97 b 476 167 450 128 464 146 l 501 139 m 288 660 b 186 601 249 660 215 640 b 132 424 157 561 139 502 l 397 424 b 415 430 407 424 413 426 b 417 451 416 434 417 441 b 409 531 417 479 414 506 b 385 597 404 556 396 578 b 345 643 375 617 361 632 b 288 660 329 654 310 660 "},"f":{"ha":556,"x_min":0,"x_max":0,"o":"m 197 694 l 197 708 b 214 835 197 757 203 800 b 258 924 225 871 240 900 b 319 976 276 947 296 964 b 392 993 343 987 367 993 b 485 960 431 993 462 982 b 519 875 508 939 519 910 b 506 817 519 854 515 834 b 458 792 496 800 481 792 b 418 810 442 792 428 798 b 403 854 408 822 403 837 b 408 891 403 872 405 884 b 414 917 412 898 414 906 b 406 936 414 924 411 931 b 381 944 400 942 392 944 b 310 899 350 944 327 929 b 286 771 294 869 286 826 l 286 694 l 486 694 l 486 625 l 286 625 l 286 139 b 299 80 286 111 291 91 b 375 63 308 68 333 63 l 464 63 l 464 0 l 64 0 l 64 63 l 125 63 b 186 80 158 63 179 68 b 197 139 194 91 197 111 l 197 625 l 64 625 l 64 694 "},"g":{"ha":556,"x_min":0,"x_max":0,"o":"m 426 472 b 377 293 426 395 410 336 b 253 229 344 250 303 229 b 167 256 219 229 191 238 b 154 249 164 255 160 252 b 138 234 149 245 143 240 b 123 212 132 228 127 221 b 117 181 119 203 117 193 b 131 143 117 163 122 150 b 169 132 141 136 154 132 l 353 132 b 454 94 392 132 425 119 b 497 -42 483 69 497 24 b 482 -143 497 -78 492 -112 b 438 -225 472 -175 457 -202 b 366 -279 418 -248 394 -266 b 269 -299 338 -292 306 -299 b 174 -283 234 -299 203 -293 b 103 -240 146 -272 122 -258 b 58 -178 83 -222 68 -201 b 42 -104 47 -155 42 -130 b 65 -18 42 -64 49 -36 b 115 17 80 0 97 11 b 75 60 100 25 86 39 b 58 139 64 80 58 106 b 67 195 58 160 61 179 b 88 238 72 211 79 225 b 113 267 96 250 104 259 b 136 283 122 274 130 280 b 79 472 98 327 79 390 b 128 651 79 549 96 609 b 253 715 161 694 203 715 b 364 667 297 715 334 699 b 406 734 377 692 391 714 b 460 764 420 754 438 764 b 516 733 485 764 503 753 b 535 660 528 712 535 688 b 524 600 535 636 531 616 b 492 576 517 584 506 576 b 460 598 476 576 465 584 b 451 639 454 612 451 626 b 456 668 451 651 453 661 b 460 690 458 675 460 683 b 443 708 460 702 454 708 b 413 686 434 708 424 701 b 386 639 403 671 394 656 b 416 567 399 619 409 594 b 426 472 423 539 426 507 m 192 7 b 170 3 186 7 179 6 b 144 -11 161 1 153 -4 b 122 -42 135 -19 128 -29 b 113 -97 116 -56 113 -74 b 122 -149 113 -115 116 -132 b 149 -196 128 -166 137 -182 b 198 -230 162 -210 178 -221 b 269 -243 218 -239 242 -243 b 346 -228 300 -243 325 -238 b 395 -189 366 -218 383 -205 b 422 -137 408 -173 417 -156 b 431 -83 428 -119 431 -101 b 340 7 431 -23 400 7 l 192 7 m 353 472 b 326 610 353 531 344 578 b 253 660 309 643 284 660 b 179 610 221 660 197 643 b 153 472 162 578 153 531 b 179 334 153 413 162 367 b 253 285 197 301 221 285 b 326 334 284 285 309 301 b 353 472 344 367 353 413 "},"h":{"ha":556,"x_min":0,"x_max":0,"o":"m 106 833 b 97 892 106 861 103 881 b 51 910 92 904 76 910 l 25 910 l 25 972 l 29 972 b 88 978 53 972 73 974 b 124 990 102 981 115 985 b 147 1001 134 994 142 998 b 161 1007 153 1005 157 1007 b 174 986 169 1007 174 1000 l 174 528 l 182 528 b 222 622 193 563 206 594 b 273 686 235 645 252 667 b 347 715 294 706 319 715 b 437 660 390 715 420 697 b 463 500 454 623 463 569 l 463 139 b 472 80 463 111 466 91 b 508 63 478 68 490 63 l 539 63 l 539 0 l 318 0 l 318 63 l 347 63 b 385 80 367 63 379 68 b 394 139 391 91 394 111 l 394 458 b 314 632 394 574 368 632 b 262 609 296 632 279 624 b 217 543 245 594 230 572 b 185 438 204 514 193 479 b 174 299 178 397 174 350 l 174 139 b 183 80 174 111 177 91 b 221 63 189 68 201 63 l 250 63 l 250 0 l 29 0 l 29 63 l 60 63 b 97 80 78 63 91 68 b 106 139 103 91 106 111 l 106 833 "},"i":{"ha":556,"x_min":0,"x_max":0,"o":"m 236 556 b 225 615 236 583 232 603 b 164 632 218 626 197 632 l 114 632 l 114 694 l 125 694 b 207 700 158 694 186 696 b 259 712 228 704 246 708 b 290 724 272 716 283 720 b 308 729 297 727 303 729 b 325 708 319 729 325 722 l 325 139 b 336 80 325 111 329 91 b 397 63 344 68 364 63 l 469 63 l 469 0 l 92 0 l 92 63 l 164 63 b 225 80 197 63 218 68 b 236 139 232 91 236 111 l 236 556 m 192 944 b 213 1008 192 969 199 991 b 264 1035 226 1026 244 1035 b 315 1008 284 1035 301 1026 b 336 944 329 991 336 969 b 315 881 336 919 329 898 b 264 854 301 863 284 854 b 213 881 244 854 226 863 b 192 944 199 898 192 919 "},"j":{"ha":556,"x_min":0,"x_max":0,"o":"m 233 944 b 254 1008 233 969 240 991 b 306 1035 268 1026 285 1035 b 357 1008 326 1035 343 1026 b 378 944 371 991 378 969 b 357 881 378 919 371 898 b 306 854 343 863 326 854 b 254 881 285 854 268 863 b 233 944 240 898 233 919 m 367 14 b 319 -226 367 -97 351 -177 b 200 -299 287 -274 247 -299 b 140 -285 177 -299 157 -294 b 98 -249 122 -275 109 -263 b 74 -199 87 -234 79 -217 b 67 -146 69 -181 67 -163 b 83 -79 67 -122 72 -100 b 133 -49 94 -59 111 -49 b 174 -67 150 -49 163 -55 b 189 -111 184 -79 189 -94 b 172 -167 189 -135 183 -154 b 156 -201 161 -180 156 -191 b 163 -231 156 -209 158 -219 b 200 -250 168 -244 181 -250 b 260 -201 228 -250 248 -234 b 278 -90 272 -169 278 -132 l 278 556 b 267 615 278 583 274 603 b 206 632 259 626 239 632 l 94 632 l 94 694 l 122 694 b 230 700 167 694 203 696 b 295 712 257 704 279 708 b 331 724 311 716 323 720 b 350 729 338 727 344 729 b 367 708 361 729 367 722 l 367 14 "},"k":{"ha":556,"x_min":0,"x_max":0,"o":"m 172 139 b 181 80 172 111 175 91 b 219 63 187 68 200 63 l 249 63 l 249 0 l 29 0 l 29 63 l 58 63 b 97 80 78 63 91 68 b 106 139 103 91 106 111 l 106 833 b 97 892 106 861 103 881 b 50 910 92 904 76 910 l 25 910 l 25 972 l 29 972 b 87 978 52 972 72 974 b 124 990 102 981 114 985 b 146 1001 133 994 140 998 b 160 1007 151 1005 156 1007 b 172 986 168 1007 172 1000 l 172 319 l 332 542 b 357 600 349 564 357 583 b 319 632 357 621 344 632 l 299 632 l 299 694 l 526 694 l 526 632 l 514 632 b 456 610 493 632 473 625 b 408 556 439 595 423 577 l 306 413 l 424 167 b 480 84 443 126 462 98 b 539 63 498 70 518 63 l 543 63 l 543 0 l 315 0 l 315 63 l 336 63 b 367 89 356 63 367 71 b 363 110 367 95 366 102 b 354 132 361 117 358 125 l 253 340 l 172 229 l 172 139 "},"l":{"ha":556,"x_min":0,"x_max":0,"o":"m 236 833 b 225 892 236 861 232 881 b 164 910 218 904 197 910 l 114 910 l 114 972 l 125 972 b 207 978 158 972 186 974 b 259 990 228 981 246 985 b 290 1001 272 994 283 998 b 308 1007 297 1005 303 1007 b 325 986 319 1007 325 1000 l 325 139 b 336 80 325 111 329 91 b 397 63 344 68 364 63 l 469 63 l 469 0 l 92 0 l 92 63 l 164 63 b 225 80 197 63 218 68 b 236 139 232 91 236 111 l 236 833 "},"m":{"ha":556,"x_min":0,"x_max":0,"o":"m 306 139 b 311 80 306 111 307 91 b 336 63 315 68 323 63 l 357 63 l 357 0 l 207 0 l 207 63 l 228 63 b 253 80 241 63 249 68 b 260 139 258 91 260 111 l 260 458 b 207 632 260 574 242 632 b 145 544 184 632 163 603 b 118 299 127 485 118 403 l 118 139 b 124 80 118 111 120 91 b 150 63 128 68 137 63 l 169 63 l 169 0 l 21 0 l 21 63 l 40 63 b 66 80 53 63 62 68 b 72 139 70 91 72 111 l 72 556 b 66 615 72 583 70 603 b 40 632 62 626 53 632 l 21 632 l 21 694 b 85 705 52 694 74 698 b 110 715 96 712 104 715 b 118 694 115 715 118 708 l 118 528 l 124 528 b 149 622 130 563 138 594 b 180 686 157 645 167 667 b 225 715 192 706 207 715 b 306 528 275 715 302 653 l 311 528 b 336 622 318 563 326 594 b 367 686 344 645 355 667 b 411 715 380 706 394 715 b 472 665 438 715 458 699 b 492 500 485 632 492 577 l 492 139 b 498 80 492 111 494 91 b 524 63 502 68 511 63 l 544 63 l 544 0 l 394 0 l 394 63 l 414 63 b 440 80 427 63 435 68 b 446 139 444 91 446 111 l 446 458 b 434 590 446 518 442 561 b 394 632 426 618 413 632 b 333 544 371 632 351 603 b 306 299 315 485 306 403 l 306 139 "},"n":{"ha":556,"x_min":0,"x_max":0,"o":"m 60 63 b 97 80 78 63 91 68 b 106 139 103 91 106 111 l 106 556 b 97 615 106 583 103 603 b 60 632 91 626 78 632 l 29 632 l 29 694 b 88 698 53 694 73 696 b 124 705 102 700 115 703 b 147 712 134 707 142 709 b 161 715 153 714 157 715 b 174 694 169 715 174 708 l 174 528 l 182 528 b 222 622 193 563 206 594 b 273 686 235 645 252 667 b 347 715 294 706 319 715 b 437 660 390 715 420 697 b 463 500 454 623 463 569 l 463 139 b 472 80 463 111 466 91 b 508 63 478 68 490 63 l 539 63 l 539 0 l 318 0 l 318 63 l 347 63 b 385 80 367 63 379 68 b 394 139 391 91 394 111 l 394 458 b 314 632 394 574 368 632 b 262 609 296 632 279 624 b 217 543 245 594 230 572 b 185 438 204 514 193 479 b 174 299 178 397 174 350 l 174 139 b 183 80 174 111 177 91 b 221 63 189 68 201 63 l 250 63 l 250 0 l 29 0 l 29 63 "},"o":{"ha":556,"x_min":0,"x_max":0,"o":"m 428 347 b 416 496 428 406 424 456 b 383 592 408 536 397 568 b 335 644 369 617 353 634 b 278 660 317 655 298 660 b 220 644 257 660 238 655 b 172 592 202 634 186 617 b 140 496 158 568 147 536 b 128 347 132 456 128 406 b 140 199 128 288 132 238 b 172 103 147 159 158 127 b 220 51 186 79 202 61 b 278 35 238 40 257 35 b 335 51 298 35 317 40 b 383 103 353 61 369 79 b 416 199 397 127 408 159 b 428 347 424 238 428 288 m 518 347 b 498 187 518 286 511 233 b 444 72 484 141 466 103 b 367 3 421 42 395 19 b 278 -21 338 -13 308 -21 b 189 3 247 -21 218 -13 b 112 72 160 19 134 42 b 58 187 89 103 71 141 b 38 347 44 233 38 286 b 58 508 38 408 44 462 b 112 622 71 553 89 592 b 189 692 134 653 160 676 b 278 715 218 707 247 715 b 367 692 308 715 338 707 b 444 622 395 676 421 653 b 498 508 466 592 484 553 b 518 347 511 462 518 408 "},"p":{"ha":556,"x_min":0,"x_max":0,"o":"m 519 347 b 505 202 519 295 515 247 b 463 85 495 157 481 118 b 400 8 445 53 424 27 b 319 -21 376 -11 349 -21 b 256 -2 294 -21 273 -15 b 214 38 239 10 225 24 b 188 78 203 53 194 66 b 174 97 181 91 176 97 b 167 90 172 97 170 95 b 164 63 165 86 164 76 l 164 -139 b 173 -198 164 -167 167 -186 b 222 -215 179 -209 195 -215 l 271 -215 l 271 -278 l 14 -278 l 14 -215 l 44 -215 b 84 -198 65 -215 78 -209 b 93 -139 90 -186 93 -167 l 93 556 b 84 615 93 583 90 603 b 44 632 78 626 65 632 l 14 632 l 14 694 b 111 705 60 694 93 698 b 151 715 130 712 143 715 b 164 694 160 715 164 708 l 164 632 b 167 604 164 618 165 609 b 174 597 170 600 172 597 b 188 616 176 597 181 603 b 214 656 194 628 203 642 b 256 697 225 671 239 684 b 319 715 273 709 294 715 b 463 617 378 715 426 683 b 519 347 501 552 519 462 m 436 347 b 402 565 436 438 425 510 b 297 646 379 619 344 646 b 241 624 277 646 258 638 b 197 562 224 609 209 588 b 169 467 185 535 176 504 b 160 347 163 431 160 391 b 169 227 160 304 163 264 b 197 133 176 191 185 159 b 241 71 209 106 224 86 b 297 49 258 56 277 49 b 402 130 344 49 379 76 b 436 347 425 184 436 256 "},"q":{"ha":556,"x_min":0,"x_max":0,"o":"m 397 69 b 394 97 397 83 396 93 b 389 104 393 102 391 104 b 374 85 385 104 380 98 b 348 42 368 72 359 57 b 304 -1 336 26 322 12 b 239 -21 287 -14 265 -21 b 94 77 181 -21 132 12 b 36 347 55 142 36 232 b 51 495 36 401 41 450 b 94 612 62 540 76 579 b 158 688 112 645 133 670 b 239 715 183 706 210 715 b 317 690 270 715 296 707 b 366 635 337 674 353 655 b 394 581 378 616 388 597 b 411 556 401 564 406 556 b 426 576 419 556 423 562 b 433 632 428 589 431 608 l 443 708 l 469 708 l 469 -139 b 479 -198 469 -167 473 -186 b 519 -215 486 -209 499 -215 l 551 -215 l 551 -278 l 299 -278 l 299 -215 l 329 -215 b 388 -198 362 -215 381 -209 b 397 -139 394 -186 397 -167 l 397 69 m 122 347 b 156 130 122 256 134 184 b 263 49 179 76 214 49 b 320 71 284 49 303 56 b 364 133 337 86 352 106 b 392 227 376 159 385 191 b 401 347 398 264 401 304 b 392 467 401 391 398 431 b 364 562 385 504 376 535 b 320 624 352 588 337 609 b 263 646 303 638 284 646 b 156 565 214 646 179 619 b 122 347 134 510 122 438 "},"r":{"ha":556,"x_min":0,"x_max":0,"o":"m 135 556 b 123 615 135 583 131 603 b 75 632 115 626 99 632 l 38 632 l 38 694 b 109 698 67 694 91 696 b 153 705 127 700 142 703 b 178 712 164 707 172 709 b 194 715 183 714 189 715 b 210 694 206 715 212 708 l 189 410 l 200 410 b 250 560 216 471 232 521 b 302 653 268 600 285 631 b 354 701 319 676 337 692 b 404 715 372 711 388 715 b 480 674 437 715 462 701 b 507 569 498 646 507 611 b 488 490 507 538 501 512 b 438 458 476 469 459 458 b 391 481 415 458 400 466 b 378 528 382 497 378 512 b 383 563 378 542 379 553 b 394 587 386 572 390 580 b 405 606 398 594 402 600 b 410 625 408 612 410 619 b 383 653 410 644 401 653 b 350 640 372 653 361 648 b 318 605 339 631 328 619 b 289 556 308 591 298 574 b 264 500 280 538 271 519 b 247 449 257 481 252 465 b 233 399 241 434 237 417 b 224 334 230 380 227 359 b 221 243 222 309 221 279 l 221 139 b 233 80 221 111 225 91 b 297 63 241 68 262 63 l 340 63 l 340 0 l 38 0 l 38 63 l 75 63 b 123 80 99 63 115 68 b 135 139 131 91 135 111 l 135 556 "},"s":{"ha":556,"x_min":0,"x_max":0,"o":"m 92 285 l 92 278 b 102 190 92 248 95 219 b 136 112 109 160 120 134 b 197 56 152 89 172 71 b 286 35 221 42 251 35 b 351 47 312 35 334 39 b 392 78 368 54 382 65 b 415 122 403 91 410 106 b 421 174 419 139 421 156 b 394 243 421 202 412 225 b 327 288 376 261 353 276 b 240 324 301 301 272 313 b 153 365 209 335 180 348 b 87 426 127 381 105 401 b 60 521 69 450 60 482 b 112 660 60 576 77 623 b 254 715 147 697 194 715 b 322 706 281 715 304 712 b 369 684 341 699 356 692 b 399 663 381 676 391 669 b 415 653 406 656 412 653 b 426 660 419 653 423 655 b 432 694 430 666 432 677 l 432 715 l 469 715 l 469 451 l 438 451 b 424 513 435 469 430 490 b 394 581 417 537 407 559 b 344 637 381 603 365 622 b 264 660 323 652 296 660 b 169 628 223 660 191 649 b 135 549 146 606 135 580 b 162 488 135 524 144 503 b 230 449 180 473 203 460 b 318 417 257 439 287 428 b 406 374 350 406 379 391 b 474 308 434 357 456 335 b 501 201 492 281 501 246 b 450 43 501 138 484 86 b 297 -21 416 0 365 -21 b 222 -11 268 -21 243 -18 b 171 10 202 -5 185 3 b 137 32 157 18 146 25 b 114 42 128 38 120 42 b 97 7 103 42 97 30 l 97 0 l 54 0 l 54 285 "},"t":{"ha":556,"x_min":0,"x_max":0,"o":"m 64 694 b 133 713 92 694 115 701 b 175 767 151 726 165 744 b 197 850 185 790 192 818 b 203 958 201 882 203 919 l 203 972 l 247 972 l 247 694 l 453 694 l 453 625 l 247 625 l 247 229 b 270 97 247 163 255 119 b 331 63 285 74 306 63 b 396 105 358 63 380 77 b 419 236 412 133 419 177 l 419 278 l 458 278 l 458 236 b 423 47 458 156 447 93 b 308 -21 399 2 361 -21 b 196 37 258 -21 221 -2 b 158 194 171 75 158 128 l 158 625 l 36 625 l 36 694 "},"u":{"ha":556,"x_min":0,"x_max":0,"o":"m 451 139 b 460 80 451 111 454 91 b 499 63 466 68 479 63 l 529 63 l 529 0 b 470 -2 505 0 485 -1 b 433 -7 455 -3 442 -5 b 410 -12 423 -9 415 -10 b 394 -14 404 -13 399 -14 b 382 7 386 -14 382 -7 l 382 167 l 374 167 b 329 74 362 131 347 100 b 276 8 315 50 298 28 b 204 -21 255 -11 231 -21 b 116 35 165 -21 136 -2 b 86 194 96 72 86 125 l 86 556 b 77 615 86 583 83 603 b 39 632 71 626 58 632 l 8 632 l 8 694 b 67 698 32 694 52 696 b 105 705 83 700 95 703 b 128 712 115 707 122 709 b 143 715 134 714 139 715 b 156 694 151 715 156 708 l 156 236 b 172 105 156 177 161 133 b 231 63 182 77 202 63 b 281 83 246 63 263 69 b 331 142 299 96 316 116 b 367 235 345 168 358 199 b 382 361 377 272 382 314 l 382 556 b 373 615 382 583 379 603 b 335 632 367 626 354 632 l 304 632 l 304 694 b 401 705 351 694 384 698 b 439 715 418 712 431 715 b 451 694 447 715 451 708 l 451 139 "},"v":{"ha":556,"x_min":0,"x_max":0,"o":"m 254 -14 l 89 556 b 60 618 80 588 70 609 b 13 632 50 627 34 632 l 4 632 l 4 694 l 215 694 l 215 632 l 194 632 b 167 626 182 632 173 630 b 158 601 161 622 158 613 b 165 563 158 589 161 576 l 288 142 l 403 539 b 413 592 409 559 413 577 b 399 625 413 609 408 620 b 365 632 391 630 379 632 l 351 632 l 351 694 l 543 694 l 543 632 l 531 632 b 480 615 506 632 490 626 b 454 556 470 603 462 583 l 289 -14 "},"w":{"ha":556,"x_min":0,"x_max":0,"o":"m 364 -14 l 274 465 l 183 -14 l 158 -14 l 61 556 b 43 619 56 589 50 610 b 10 632 37 628 25 632 l 3 632 l 3 694 l 149 694 l 149 632 l 135 632 b 115 626 125 632 119 630 b 108 601 110 622 108 613 b 113 563 108 592 110 579 l 182 158 l 257 556 b 237 618 250 588 243 609 b 204 632 231 627 220 632 l 199 632 l 199 694 l 347 694 l 347 632 l 332 632 b 311 625 324 632 317 630 b 303 599 306 620 303 612 b 304 583 303 594 303 589 b 308 563 305 577 306 570 l 385 157 l 450 539 b 454 569 452 550 453 560 b 456 592 455 578 456 585 b 447 626 456 610 453 622 b 422 632 441 630 432 632 l 413 632 l 413 694 l 546 694 l 546 632 l 538 632 b 503 615 521 632 509 626 b 485 556 496 604 490 584 l 388 -14 "},"x":{"ha":556,"x_min":0,"x_max":0,"o":"m 435 139 b 478 81 449 112 463 93 b 536 63 493 69 512 63 l 539 63 l 539 0 l 306 0 l 306 63 l 326 63 b 363 92 350 63 363 72 b 350 132 363 102 358 115 l 265 293 l 189 156 b 171 101 177 134 171 116 b 183 72 171 88 175 79 b 214 63 192 66 202 63 l 233 63 l 233 0 l 17 0 l 17 63 l 28 63 b 83 83 50 63 69 69 b 125 139 98 97 112 116 l 239 344 l 129 556 b 86 614 115 582 101 602 b 28 632 71 626 52 632 l 24 632 l 24 694 l 258 694 l 258 632 l 238 632 b 201 603 213 632 201 622 b 214 563 201 593 206 579 l 285 426 l 346 539 b 364 594 358 560 364 579 b 352 623 364 607 360 617 b 322 632 344 629 334 632 l 301 632 l 301 694 l 519 694 l 519 632 l 507 632 b 452 611 485 632 466 625 b 411 556 438 597 424 579 l 311 375 "},"y":{"ha":556,"x_min":0,"x_max":0,"o":"m 315 0 b 278 -126 302 -47 290 -89 b 242 -220 267 -163 255 -195 b 199 -278 229 -246 214 -265 b 143 -299 183 -292 164 -299 b 94 -283 124 -299 107 -294 b 61 -244 80 -273 69 -260 b 43 -193 53 -229 47 -212 b 38 -139 39 -175 38 -156 b 56 -54 38 -100 44 -72 b 94 -28 68 -37 81 -28 b 127 -47 108 -28 119 -34 b 139 -97 135 -59 139 -76 b 133 -138 139 -115 137 -128 b 118 -162 128 -148 124 -156 b 103 -178 113 -168 108 -173 b 97 -194 99 -182 97 -188 b 107 -223 97 -205 100 -214 b 139 -236 113 -232 124 -236 b 208 -182 167 -236 190 -218 b 264 -21 227 -146 245 -92 l 274 14 l 97 556 b 67 617 87 587 77 608 b 21 632 58 627 42 632 l 13 632 l 13 694 l 222 694 l 222 632 l 201 632 b 174 626 189 632 180 630 b 164 601 167 622 164 613 b 172 563 164 592 167 579 l 307 144 l 408 539 b 417 593 414 563 417 581 b 404 626 417 611 413 622 b 371 632 396 630 385 632 l 358 632 l 358 694 l 547 694 l 547 632 l 535 632 b 485 616 512 632 495 627 b 458 556 475 605 466 585 l 315 0 "},"z":{"ha":556,"x_min":0,"x_max":0,"o":"m 233 639 b 137 585 191 639 159 621 b 104 396 115 550 104 487 l 104 382 l 60 382 l 60 694 l 492 694 l 492 660 l 158 56 l 318 56 b 413 109 360 56 391 73 b 446 299 435 145 446 208 l 446 313 l 492 313 l 492 0 l 50 0 l 50 35 l 382 639 "},"{":{"ha":556,"x_min":0,"x_max":0,"o":"m 139 486 b 187 493 157 486 173 488 b 220 519 200 498 211 506 b 240 572 229 531 235 549 b 246 660 244 594 246 624 l 246 882 b 254 976 246 920 249 951 b 278 1036 260 1001 268 1021 b 315 1067 288 1051 300 1061 b 365 1076 330 1073 347 1076 l 426 1076 l 426 1007 l 371 1007 b 310 976 340 1007 320 997 b 296 882 301 955 296 924 l 296 653 b 285 540 296 604 292 566 b 260 483 277 514 269 495 b 222 458 249 469 236 460 l 222 444 b 260 421 236 443 249 435 b 285 363 269 408 277 388 b 296 250 292 337 296 299 l 296 21 b 310 -73 296 -21 301 -52 b 371 -104 320 -94 340 -104 l 426 -104 l 426 -174 l 365 -174 b 315 -165 347 -174 330 -171 b 278 -133 300 -159 288 -148 b 254 -74 268 -119 260 -99 b 246 21 249 -49 246 -17 l 246 243 b 240 331 246 279 244 309 b 220 384 235 354 229 372 b 187 410 211 397 200 405 b 139 417 173 414 157 417 l 111 417 l 111 486 "},"|":{"ha":556,"x_min":0,"x_max":0,"o":"m 301 1076 l 301 -174 l 254 -174 l 254 1076 "},"}":{"ha":556,"x_min":0,"x_max":0,"o":"m 417 417 b 369 410 398 417 382 414 b 335 384 355 405 344 397 b 316 331 327 372 320 354 b 310 243 312 309 310 279 l 310 21 b 301 -74 310 -17 307 -49 b 278 -133 296 -99 288 -119 b 240 -165 268 -148 255 -159 b 190 -174 225 -171 209 -174 l 129 -174 l 129 -104 l 185 -104 b 245 -73 215 -104 235 -94 b 260 21 255 -52 260 -21 l 260 250 b 271 363 260 299 263 337 b 297 421 278 388 287 408 b 333 444 307 435 319 443 l 333 458 b 297 483 319 460 307 469 b 271 540 287 495 278 514 b 260 653 263 566 260 604 l 260 882 b 245 976 260 924 255 955 b 185 1007 235 997 215 1007 l 129 1007 l 129 1076 l 190 1076 b 240 1067 209 1076 225 1073 b 278 1036 255 1061 268 1051 b 301 976 288 1021 296 1001 b 310 882 307 951 310 920 l 310 660 b 316 572 310 624 312 594 b 335 519 320 549 327 531 b 369 493 344 506 355 498 b 417 486 382 488 398 486 l 444 486 l 444 417 "},"~":{"ha":556,"x_min":0,"x_max":0,"o":"m 339 471 b 424 424 376 439 404 424 b 490 501 450 424 472 450 l 504 538 l 538 510 l 507 431 b 396 314 477 353 440 314 b 297 363 367 314 334 330 l 217 432 b 132 479 180 463 151 479 b 65 401 106 479 84 453 l 51 365 l 18 393 l 49 472 b 160 589 78 550 115 589 b 258 540 188 589 221 573 l 339 471 "},"¡":{"ha":556,"x_min":0,"x_max":0,"o":"m 347 604 b 326 531 347 575 340 551 b 278 500 313 510 296 500 b 229 531 259 500 243 510 b 208 604 215 551 208 575 b 229 678 208 633 215 657 b 278 708 243 698 259 708 b 326 678 296 708 313 698 b 347 604 340 657 347 633 m 338 -160 b 322 -273 338 -209 332 -247 b 278 -312 311 -299 296 -312 b 234 -273 259 -312 245 -299 b 218 -160 223 -247 218 -209 b 223 -62 218 -126 220 -94 b 235 49 226 -30 230 7 b 249 199 239 91 244 141 b 264 410 254 256 259 326 l 292 410 b 306 199 296 326 301 256 b 321 49 311 141 316 91 b 333 -62 325 7 329 -30 b 338 -160 336 -94 338 -126 "},"¤":{"ha":556,"x_min":0,"x_max":0,"o":"m 115 451 b 149 597 115 506 126 555 l 83 694 l 115 743 l 181 646 b 278 694 208 678 241 694 b 375 646 315 694 347 678 l 440 743 l 472 694 l 407 597 b 440 451 429 555 440 506 b 407 306 440 397 429 348 l 472 208 l 440 160 l 375 257 b 278 208 347 225 315 208 b 181 257 241 208 208 225 l 115 160 l 83 208 l 149 306 b 115 451 126 348 115 397 m 157 451 b 192 324 157 401 169 359 b 278 271 216 288 244 271 b 363 324 311 271 340 288 b 399 451 387 359 399 401 b 363 579 399 501 387 544 b 278 632 340 614 311 632 b 192 579 244 632 216 614 b 157 451 169 544 157 501 "},"¥":{"ha":556,"x_min":0,"x_max":0,"o":"m 228 417 l 110 722 b 71 810 95 761 82 791 b 11 840 60 830 40 840 l 7 840 l 7 903 l 232 903 l 232 840 l 225 840 b 171 794 189 840 171 825 b 189 722 171 778 177 754 l 296 444 l 403 722 b 422 801 416 756 422 783 b 374 840 422 827 406 840 l 367 840 l 367 903 l 549 903 l 549 840 l 542 840 b 487 810 518 840 499 830 b 444 722 474 791 460 761 l 328 417 l 442 417 l 442 347 l 314 347 l 314 278 l 442 278 l 442 208 l 314 208 l 314 181 b 317 122 314 156 315 137 b 330 85 320 106 324 94 b 355 67 336 77 344 71 b 396 63 366 64 379 63 l 410 63 l 410 0 l 153 0 l 153 63 l 168 63 b 233 85 201 63 223 70 b 249 181 244 101 249 132 l 249 208 l 118 208 l 118 278 l 249 278 l 249 347 l 118 347 l 118 417 "},"¦":{"ha":556,"x_min":0,"x_max":0,"o":"m 301 382 l 301 -174 l 254 -174 l 254 382 m 301 1076 l 301 521 l 254 521 l 254 1076 "},"§":{"ha":556,"x_min":0,"x_max":0,"o":"m 278 -90 b 194 -75 247 -90 219 -85 b 131 -33 169 -65 148 -51 b 92 27 114 -16 101 4 b 78 97 82 50 78 73 b 92 173 78 129 83 154 b 139 201 102 192 118 201 b 176 183 155 201 167 195 b 190 132 186 170 190 153 b 185 101 190 120 189 110 b 175 79 182 93 179 86 b 165 61 171 73 168 67 b 160 42 161 56 160 49 b 192 -12 160 20 170 2 b 278 -35 213 -27 242 -35 b 366 -2 317 -35 346 -24 b 396 83 386 20 396 48 b 372 147 396 109 388 131 b 312 192 355 164 335 179 b 234 232 288 206 262 219 b 156 278 206 245 180 260 b 97 342 133 295 113 317 b 72 438 80 368 72 400 b 106 547 72 476 84 513 b 189 622 129 581 156 606 b 113 688 159 640 134 662 b 82 792 92 713 82 748 b 97 870 82 819 87 846 b 138 934 106 895 120 916 b 200 977 155 952 176 966 b 278 993 224 988 250 993 b 361 978 308 993 336 988 b 424 936 386 968 407 954 b 464 876 441 919 455 898 b 478 806 473 853 478 830 b 463 730 478 774 473 749 b 417 701 453 711 438 701 b 379 720 401 701 388 708 b 365 771 370 733 365 750 b 370 801 365 783 367 793 b 381 824 373 810 377 817 b 391 842 384 830 388 836 b 396 861 394 848 396 855 b 364 915 396 882 385 900 b 278 938 343 930 314 938 b 190 905 239 938 209 927 b 160 819 170 883 160 855 b 184 756 160 794 168 773 b 244 710 200 739 220 724 b 322 671 267 697 293 684 b 399 625 350 658 376 643 b 459 560 423 607 443 586 b 483 465 475 535 483 503 b 449 355 483 425 472 389 b 365 281 425 321 398 296 b 442 215 395 262 420 240 b 474 111 463 189 474 155 b 459 33 474 83 469 57 b 418 -31 449 8 436 -13 b 356 -74 400 -49 380 -64 b 278 -90 331 -85 306 -90 m 407 438 b 392 494 407 460 402 478 b 351 535 381 509 368 523 b 295 569 335 548 316 559 b 232 600 274 578 253 589 b 173 549 209 592 189 575 b 149 465 157 523 149 495 b 164 409 149 443 154 424 b 204 367 174 394 188 380 b 260 334 221 355 240 344 b 324 303 281 324 302 314 b 383 354 347 311 366 328 b 407 438 399 380 407 408 "},"«":{"ha":556,"x_min":0,"x_max":0,"o":"m 301 715 l 172 451 l 301 188 l 275 157 l 60 451 l 275 746 m 486 715 l 357 451 l 486 188 l 460 157 l 246 451 l 460 746 "},"¬":{"ha":556,"x_min":0,"x_max":0,"o":"m 482 597 l 482 264 l 435 264 l 435 528 l 74 528 l 74 597 "},"¯":{"ha":556,"x_min":0,"x_max":0,"o":"m 0 833 l 0 903 l 556 903 l 556 833 "},"°":{"ha":556,"x_min":0,"x_max":0,"o":"m 125 694 b 137 783 125 726 129 756 b 169 856 145 811 155 835 b 217 906 182 877 198 894 b 278 924 235 918 256 924 b 339 906 300 924 320 918 b 387 856 357 894 373 877 b 419 783 400 835 411 811 b 431 694 427 756 431 726 b 419 606 431 663 427 633 b 387 533 411 578 400 553 b 339 483 373 512 357 495 b 278 465 320 471 300 465 b 217 483 256 465 235 471 b 169 533 198 495 182 512 b 137 606 155 553 145 578 b 125 694 129 633 125 663 m 176 694 b 203 581 176 650 185 612 b 278 535 222 550 246 535 b 352 581 309 535 334 550 b 379 694 370 612 379 650 b 352 808 379 739 370 777 b 278 854 334 839 309 854 b 203 808 246 854 222 839 b 176 694 185 777 176 739 "},"±":{"ha":556,"x_min":0,"x_max":0,"o":"m 254 486 l 254 757 l 301 757 l 301 486 l 482 486 l 482 417 l 301 417 l 301 153 l 254 153 l 254 417 l 74 417 l 74 486 m 482 69 l 482 0 l 74 0 l 74 69 "},"µ":{"ha":556,"x_min":0,"x_max":0,"o":"m 361 181 b 321 81 350 143 337 109 b 272 10 308 55 292 31 b 203 -21 253 -10 230 -21 b 146 -1 181 -21 162 -14 b 108 53 130 12 118 30 l 104 53 l 104 -35 b 115 -102 104 -64 108 -87 b 138 -142 122 -117 129 -131 b 162 -175 147 -153 155 -164 b 172 -222 169 -186 172 -202 b 161 -274 172 -240 169 -257 b 126 -299 154 -290 142 -299 b 72 -181 90 -299 72 -259 l 72 694 l 144 694 l 144 236 b 231 63 144 120 173 63 b 279 85 246 63 263 70 b 324 152 296 101 311 123 b 358 259 338 181 349 217 b 371 403 366 301 371 349 l 371 694 l 443 694 l 443 125 b 464 63 443 83 450 63 b 497 174 486 63 497 100 l 497 181 l 528 181 l 528 160 b 519 70 528 124 525 94 b 499 15 514 47 507 28 b 472 -13 490 1 481 -8 b 443 -21 462 -18 452 -21 b 391 9 422 -21 404 -11 b 371 118 378 29 371 65 l 371 181 "},"μ":{"ha":556,"x_min":0,"x_max":0,"o":"m 371 181 l 371 118 b 391 9 371 65 378 29 b 443 -21 404 -11 422 -21 b 472 -13 452 -21 462 -18 b 499 15 481 -8 490 1 b 519 70 507 28 514 47 b 528 160 525 94 528 124 l 528 181 l 497 181 l 497 174 b 464 63 497 100 486 63 b 443 125 450 63 443 83 l 443 694 l 371 694 l 371 403 b 358 259 371 349 366 301 b 324 152 349 217 338 181 b 279 85 311 123 296 101 b 231 63 263 70 246 63 b 144 236 173 63 144 120 l 144 694 l 72 694 l 72 -181 b 126 -299 72 -259 90 -299 b 161 -274 142 -299 154 -290 b 172 -222 169 -257 172 -240 b 162 -175 172 -202 169 -186 b 138 -142 155 -164 147 -153 b 115 -102 129 -131 122 -117 b 104 -35 108 -87 104 -64 l 104 53 l 108 53 b 146 -1 118 30 130 12 b 203 -21 162 -14 181 -21 b 272 10 230 -21 253 -10 b 321 81 292 31 308 55 b 361 181 337 109 350 143 "},"¶":{"ha":556,"x_min":0,"x_max":0,"o":"m 288 833 l 288 0 l 240 0 l 240 417 l 222 417 b 159 435 200 417 179 423 b 107 488 139 448 122 465 b 72 565 92 510 81 536 b 60 660 64 595 60 626 b 72 754 60 693 64 725 b 107 832 81 784 92 810 b 159 884 122 854 139 872 b 222 903 179 897 200 903 l 486 903 l 486 833 l 407 833 l 407 0 l 361 0 l 361 833 "},"·":{"ha":556,"x_min":0,"x_max":0,"o":"m 208 451 b 229 525 208 480 215 505 b 278 556 243 545 259 556 b 326 525 296 556 313 545 b 347 451 340 505 347 480 b 326 378 347 423 340 398 b 278 347 313 357 296 347 b 229 378 259 347 243 357 b 208 451 215 398 208 423 "},"»":{"ha":556,"x_min":0,"x_max":0,"o":"m 281 157 l 254 188 l 383 451 l 254 715 l 281 746 l 496 451 m 96 157 l 69 188 l 199 451 l 69 715 l 96 746 l 310 451 "},"¿":{"ha":556,"x_min":0,"x_max":0,"o":"m 319 396 b 310 272 319 347 316 306 b 286 186 303 239 295 210 b 255 122 277 162 266 141 b 224 67 243 104 233 85 b 200 6 214 48 206 28 b 190 -76 194 -17 190 -44 b 217 -205 190 -132 199 -175 b 296 -250 234 -235 261 -250 b 383 -217 334 -250 363 -239 b 413 -153 403 -196 413 -174 b 406 -134 413 -146 410 -140 b 392 -114 402 -128 397 -121 b 377 -87 386 -106 381 -98 b 371 -49 373 -77 371 -64 b 383 6 371 -27 375 -9 b 418 28 392 20 403 28 b 464 -2 437 28 452 18 b 482 -90 476 -22 482 -51 b 468 -175 482 -120 477 -148 b 429 -246 459 -202 446 -225 b 370 -294 413 -266 393 -282 b 296 -312 347 -306 323 -312 b 149 -249 236 -312 187 -291 b 93 -76 112 -207 93 -150 b 108 15 93 -40 98 -10 b 144 82 117 39 129 62 b 190 141 158 102 173 122 b 235 206 206 160 221 181 b 270 290 250 230 261 258 b 282 410 279 323 283 363 l 319 410 m 365 604 b 345 531 365 575 359 551 b 296 500 332 510 315 500 b 247 531 277 500 261 510 b 226 604 233 551 226 575 b 247 678 226 633 233 657 b 296 708 261 698 277 708 b 345 678 315 708 332 698 b 365 604 359 657 365 633 "},"À":{"ha":556,"x_min":0,"x_max":0,"o":"m 14 63 b 64 88 37 63 54 71 b 94 181 74 105 84 136 l 260 917 l 296 917 l 461 181 b 490 88 471 136 481 105 b 544 63 498 71 517 63 l 549 63 l 549 0 l 342 0 l 342 63 l 349 63 b 406 113 387 63 406 79 b 394 181 406 126 402 149 l 372 278 l 156 278 l 133 181 b 124 111 127 154 124 131 b 136 74 124 94 128 81 b 179 63 144 66 159 63 l 186 63 l 186 0 l 7 0 l 7 63 m 358 340 l 264 760 l 169 340 m 138 1194 l 232 1194 l 289 972 l 264 972 "},"Á":{"ha":556,"x_min":0,"x_max":0,"o":"m 14 63 b 64 88 37 63 54 71 b 94 181 74 105 84 136 l 260 917 l 296 917 l 461 181 b 490 88 471 136 481 105 b 544 63 498 71 517 63 l 549 63 l 549 0 l 342 0 l 342 63 l 349 63 b 406 113 387 63 406 79 b 394 181 406 126 402 149 l 372 278 l 156 278 l 133 181 b 124 111 127 154 124 131 b 136 74 124 94 128 81 b 179 63 144 66 159 63 l 186 63 l 186 0 l 7 0 l 7 63 m 358 340 l 264 760 l 169 340 m 422 1194 l 326 1194 l 271 972 l 296 972 "},"Â":{"ha":556,"x_min":0,"x_max":0,"o":"m 14 63 b 64 88 37 63 54 71 b 94 181 74 105 84 136 l 260 917 l 296 917 l 461 181 b 490 88 471 136 481 105 b 544 63 498 71 517 63 l 549 63 l 549 0 l 342 0 l 342 63 l 349 63 b 406 113 387 63 406 79 b 394 181 406 126 402 149 l 372 278 l 156 278 l 133 181 b 124 111 127 154 124 131 b 136 74 124 94 128 81 b 179 63 144 66 159 63 l 186 63 l 186 0 l 7 0 l 7 63 m 358 340 l 264 760 l 169 340 m 242 1194 l 308 1194 l 404 972 l 379 972 l 275 1097 l 172 972 l 147 972 "},"Ã":{"ha":556,"x_min":0,"x_max":0,"o":"m 14 63 b 64 88 37 63 54 71 b 94 181 74 105 84 136 l 260 917 l 296 917 l 461 181 b 490 88 471 136 481 105 b 544 63 498 71 517 63 l 549 63 l 549 0 l 342 0 l 342 63 l 349 63 b 406 113 387 63 406 79 b 394 181 406 126 402 149 l 372 278 l 156 278 l 133 181 b 124 111 127 154 124 131 b 136 74 124 94 128 81 b 179 63 144 66 159 63 l 186 63 l 186 0 l 7 0 l 7 63 m 358 340 l 264 760 l 169 340 m 296 1146 b 360 1099 323 1114 344 1099 b 411 1178 379 1099 396 1125 l 417 1194 l 440 1167 l 424 1107 b 385 1019 412 1066 399 1037 b 340 992 371 1001 356 992 b 265 1040 318 992 293 1008 b 201 1088 237 1072 215 1088 b 149 1008 183 1088 165 1061 l 144 993 l 119 1021 l 136 1079 b 176 1167 149 1120 163 1149 b 221 1194 190 1185 205 1194 b 296 1146 243 1194 268 1178 "},"Ä":{"ha":556,"x_min":0,"x_max":0,"o":"m 14 63 b 64 88 37 63 54 71 b 94 181 74 105 84 136 l 260 917 l 296 917 l 461 181 b 490 88 471 136 481 105 b 544 63 498 71 517 63 l 549 63 l 549 0 l 342 0 l 342 63 l 349 63 b 406 113 387 63 406 79 b 394 181 406 126 402 149 l 372 278 l 156 278 l 133 181 b 124 111 127 154 124 131 b 136 74 124 94 128 81 b 179 63 144 66 159 63 l 186 63 l 186 0 l 7 0 l 7 63 m 358 340 l 264 760 l 169 340 m 319 1104 b 333 1168 319 1129 324 1150 b 365 1194 341 1186 352 1194 b 398 1168 378 1194 389 1186 b 411 1104 407 1150 411 1129 b 398 1040 411 1079 407 1058 b 365 1014 389 1023 378 1014 b 333 1040 352 1014 341 1023 b 319 1104 324 1058 319 1079 m 138 1104 b 151 1168 138 1129 142 1150 b 183 1194 159 1186 170 1194 b 216 1168 196 1194 207 1186 b 229 1104 225 1150 229 1129 b 216 1040 229 1079 225 1058 b 183 1014 207 1023 196 1014 b 151 1040 170 1014 159 1023 b 138 1104 142 1058 138 1079 "},"Å":{"ha":556,"x_min":0,"x_max":0,"o":"m 14 63 b 64 88 37 63 54 71 b 94 181 74 105 84 136 l 260 917 l 296 917 l 461 181 b 490 88 471 136 481 105 b 544 63 498 71 517 63 l 549 63 l 549 0 l 342 0 l 342 63 l 349 63 b 406 113 387 63 406 79 b 394 181 406 126 402 149 l 372 278 l 156 278 l 133 181 b 124 111 127 154 124 131 b 136 74 124 94 128 81 b 179 63 144 66 159 63 l 186 63 l 186 0 l 7 0 l 7 63 m 358 340 l 264 760 l 169 340 m 213 1076 b 231 1165 213 1112 219 1141 b 278 1201 244 1189 259 1201 b 324 1165 296 1201 312 1189 b 343 1076 337 1141 343 1112 b 324 988 343 1041 337 1012 b 278 951 312 963 296 951 b 231 988 259 951 244 963 b 213 1076 219 1012 213 1041 m 243 1076 b 252 1027 243 1057 246 1041 b 278 1007 258 1014 267 1007 b 303 1027 289 1007 297 1014 b 313 1076 309 1041 313 1057 b 303 1126 313 1096 309 1112 b 278 1146 297 1139 289 1146 b 252 1126 267 1146 258 1139 b 243 1076 246 1112 243 1096 "},"Æ":{"ha":556,"x_min":0,"x_max":0,"o":"m 231 749 b 239 803 236 773 239 791 b 230 833 239 818 236 828 b 203 840 224 838 215 840 l 189 840 l 189 903 l 518 903 l 518 597 l 493 597 l 493 611 b 477 783 493 692 488 749 b 414 833 466 816 445 833 l 376 833 b 351 830 366 833 358 832 b 335 815 344 828 338 822 b 327 781 331 807 328 795 b 325 722 326 766 325 746 l 325 514 b 332 493 325 500 327 493 l 344 493 b 375 499 357 493 368 495 b 394 522 382 502 389 510 b 405 572 399 533 403 550 b 411 660 407 594 409 624 l 429 660 l 429 271 l 411 271 b 405 358 409 307 407 336 b 394 409 403 381 399 397 b 375 432 389 421 382 428 b 344 438 368 436 357 438 l 332 438 b 325 417 327 438 325 431 l 325 181 b 335 89 325 132 328 102 b 376 69 342 76 356 69 l 417 69 b 483 126 448 69 470 88 b 501 299 495 164 501 222 l 501 313 l 526 313 l 526 0 l 224 0 l 224 63 l 228 63 b 270 85 249 63 263 70 b 281 181 277 100 281 131 l 281 278 l 142 278 l 110 153 b 101 116 106 138 103 126 b 99 90 100 106 99 98 b 121 63 99 72 106 63 l 133 63 l 133 0 l 10 0 l 10 63 l 17 63 b 75 139 42 63 61 88 l 231 749 m 281 340 l 281 799 l 275 799 l 157 340 "},"Ç":{"ha":556,"x_min":0,"x_max":0,"o":"m 35 451 b 55 649 35 525 41 590 b 110 797 68 707 87 756 b 192 891 133 838 160 869 b 293 924 223 913 257 924 b 351 913 315 924 335 920 b 395 889 368 905 383 897 b 426 865 408 881 418 873 b 446 854 435 858 441 854 b 457 866 451 854 455 858 b 460 910 459 874 460 888 l 460 917 l 494 917 l 494 549 l 464 549 b 453 656 462 584 459 620 b 427 757 448 693 440 726 b 376 832 415 788 398 813 b 293 861 355 851 327 861 b 222 838 267 861 244 853 b 167 766 201 823 183 799 b 131 639 152 733 140 691 b 118 451 122 587 118 525 b 169 151 118 315 135 215 b 308 56 203 88 249 56 b 389 85 340 56 367 65 b 443 150 411 104 429 126 b 483 243 460 177 473 208 l 510 215 b 461 100 497 172 481 133 b 397 19 444 70 423 43 b 303 -21 371 -6 340 -19 l 288 -81 b 313 -76 295 -78 303 -76 b 363 -105 334 -76 350 -86 b 381 -174 375 -124 381 -147 b 357 -256 381 -209 373 -236 b 297 -285 341 -275 321 -285 b 267 -278 286 -285 276 -283 b 244 -265 259 -274 251 -270 b 225 -246 237 -260 231 -253 l 233 -208 b 247 -222 238 -214 243 -219 b 263 -232 252 -226 257 -229 b 282 -236 269 -235 275 -236 b 315 -219 298 -236 309 -230 b 324 -178 321 -207 324 -194 b 315 -141 324 -164 321 -152 b 282 -125 309 -130 298 -125 b 261 -129 274 -125 267 -126 b 251 -132 257 -130 254 -131 l 276 -19 b 179 22 241 -16 209 -2 b 103 117 150 45 124 77 b 53 263 81 158 65 206 b 35 451 41 319 35 382 "},"È":{"ha":556,"x_min":0,"x_max":0,"o":"m 203 438 b 192 417 195 438 192 431 l 192 181 b 195 122 192 156 193 137 b 208 88 197 107 202 96 b 233 73 214 80 222 75 b 274 69 243 71 257 69 l 336 69 b 440 126 386 69 421 88 b 469 299 460 164 469 222 l 469 313 l 508 313 l 508 0 l 32 0 l 32 63 l 39 63 b 105 85 72 63 94 70 b 121 181 116 101 121 132 l 121 722 b 117 781 121 746 120 766 b 105 817 115 797 111 809 b 80 835 99 826 91 832 b 39 840 69 839 56 840 l 32 840 l 32 903 l 497 903 l 497 597 l 458 597 l 458 611 b 433 783 458 692 450 749 b 332 833 416 816 382 833 l 274 833 b 233 830 257 833 243 832 b 208 815 222 828 214 822 b 195 781 202 807 197 795 b 192 722 193 766 192 746 l 192 514 b 203 493 192 500 195 493 l 224 493 b 271 499 243 493 259 495 b 301 522 283 502 293 510 b 319 572 309 533 315 550 b 329 660 323 594 326 624 l 356 660 l 356 271 l 329 271 b 319 358 326 307 323 336 b 301 409 315 381 309 397 b 271 432 293 421 283 428 b 224 438 259 436 243 438 l 203 438 m 149 1194 l 254 1194 l 317 972 l 289 972 "},"É":{"ha":556,"x_min":0,"x_max":0,"o":"m 203 438 b 192 417 195 438 192 431 l 192 181 b 195 122 192 156 193 137 b 208 88 197 107 202 96 b 233 73 214 80 222 75 b 274 69 243 71 257 69 l 336 69 b 440 126 386 69 421 88 b 469 299 460 164 469 222 l 469 313 l 508 313 l 508 0 l 32 0 l 32 63 l 39 63 b 105 85 72 63 94 70 b 121 181 116 101 121 132 l 121 722 b 117 781 121 746 120 766 b 105 817 115 797 111 809 b 80 835 99 826 91 832 b 39 840 69 839 56 840 l 32 840 l 32 903 l 497 903 l 497 597 l 458 597 l 458 611 b 433 783 458 692 450 749 b 332 833 416 816 382 833 l 274 833 b 233 830 257 833 243 832 b 208 815 222 828 214 822 b 195 781 202 807 197 795 b 192 722 193 766 192 746 l 192 514 b 203 493 192 500 195 493 l 224 493 b 271 499 243 493 259 495 b 301 522 283 502 293 510 b 319 572 309 533 315 550 b 329 660 323 594 326 624 l 356 660 l 356 271 l 329 271 b 319 358 326 307 323 336 b 301 409 315 381 309 397 b 271 432 293 421 283 428 b 224 438 259 436 243 438 l 203 438 m 415 1194 l 310 1194 l 246 972 l 274 972 "},"Ê":{"ha":556,"x_min":0,"x_max":0,"o":"m 203 438 b 192 417 195 438 192 431 l 192 181 b 195 122 192 156 193 137 b 208 88 197 107 202 96 b 233 73 214 80 222 75 b 274 69 243 71 257 69 l 336 69 b 440 126 386 69 421 88 b 469 299 460 164 469 222 l 469 313 l 508 313 l 508 0 l 32 0 l 32 63 l 39 63 b 105 85 72 63 94 70 b 121 181 116 101 121 132 l 121 722 b 117 781 121 746 120 766 b 105 817 115 797 111 809 b 80 835 99 826 91 832 b 39 840 69 839 56 840 l 32 840 l 32 903 l 497 903 l 497 597 l 458 597 l 458 611 b 433 783 458 692 450 749 b 332 833 416 816 382 833 l 274 833 b 233 830 257 833 243 832 b 208 815 222 828 214 822 b 195 781 202 807 197 795 b 192 722 193 766 192 746 l 192 514 b 203 493 192 500 195 493 l 224 493 b 271 499 243 493 259 495 b 301 522 283 502 293 510 b 319 572 309 533 315 550 b 329 660 323 594 326 624 l 356 660 l 356 271 l 329 271 b 319 358 326 307 323 336 b 301 409 315 381 309 397 b 271 432 293 421 283 428 b 224 438 259 436 243 438 l 203 438 m 257 1194 l 332 1194 l 438 972 l 410 972 l 294 1097 l 179 972 l 151 972 "},"Ë":{"ha":556,"x_min":0,"x_max":0,"o":"m 340 1104 b 355 1168 340 1129 345 1150 b 392 1194 365 1186 377 1194 b 427 1168 406 1194 417 1186 b 442 1104 437 1150 442 1129 b 427 1040 442 1079 437 1058 b 392 1014 417 1023 406 1014 b 355 1040 377 1014 365 1023 b 340 1104 345 1058 340 1079 m 138 1104 b 152 1168 138 1129 142 1150 b 188 1194 162 1186 174 1194 b 224 1168 201 1194 213 1186 b 239 1104 234 1150 239 1129 b 224 1040 239 1079 234 1058 b 188 1014 213 1023 201 1014 b 152 1040 174 1014 162 1023 b 138 1104 142 1058 138 1079 m 203 438 b 192 417 195 438 192 431 l 192 181 b 195 122 192 156 193 137 b 208 88 197 107 202 96 b 233 73 214 80 222 75 b 274 69 243 71 257 69 l 336 69 b 440 126 386 69 421 88 b 469 299 460 164 469 222 l 469 313 l 508 313 l 508 0 l 32 0 l 32 63 l 39 63 b 105 85 72 63 94 70 b 121 181 116 101 121 132 l 121 722 b 117 781 121 746 120 766 b 105 817 115 797 111 809 b 80 835 99 826 91 832 b 39 840 69 839 56 840 l 32 840 l 32 903 l 497 903 l 497 597 l 458 597 l 458 611 b 433 783 458 692 450 749 b 332 833 416 816 382 833 l 274 833 b 233 830 257 833 243 832 b 208 815 222 828 214 822 b 195 781 202 807 197 795 b 192 722 193 766 192 746 l 192 514 b 203 493 192 500 195 493 l 224 493 b 271 499 243 493 259 495 b 301 522 283 502 293 510 b 319 572 309 533 315 550 b 329 660 323 594 326 624 l 356 660 l 356 271 l 329 271 b 319 358 326 307 323 336 b 301 409 315 381 309 397 b 271 432 293 421 283 428 b 224 438 259 436 243 438 l 203 438 "},"Ì":{"ha":556,"x_min":0,"x_max":0,"o":"m 121 63 b 180 65 146 63 166 63 b 213 80 194 67 205 72 b 228 115 221 88 226 100 b 231 181 230 131 231 153 l 231 722 b 228 788 231 750 230 772 b 213 823 226 803 221 815 b 180 838 205 831 194 836 b 121 840 166 839 146 840 l 100 840 l 100 903 l 454 903 l 454 840 l 433 840 b 374 838 408 840 389 839 b 342 823 360 836 349 831 b 328 788 334 815 330 803 b 325 722 326 772 325 750 l 325 181 b 328 115 325 153 326 131 b 342 80 330 100 334 88 b 374 65 349 72 360 67 b 433 63 389 63 408 63 l 454 63 l 454 0 l 100 0 l 100 63 m 85 1194 l 225 1194 l 308 972 l 272 972 "},"Í":{"ha":556,"x_min":0,"x_max":0,"o":"m 121 63 b 180 65 146 63 166 63 b 213 80 194 67 205 72 b 228 115 221 88 226 100 b 231 181 230 131 231 153 l 231 722 b 228 788 231 750 230 772 b 213 823 226 803 221 815 b 180 838 205 831 194 836 b 121 840 166 839 146 840 l 100 840 l 100 903 l 454 903 l 454 840 l 433 840 b 374 838 408 840 389 839 b 342 823 360 836 349 831 b 328 788 334 815 330 803 b 325 722 326 772 325 750 l 325 181 b 328 115 325 153 326 131 b 342 80 330 100 334 88 b 374 65 349 72 360 67 b 433 63 389 63 408 63 l 454 63 l 454 0 l 100 0 l 100 63 m 471 1194 l 329 1194 l 246 972 l 283 972 "},"Î":{"ha":556,"x_min":0,"x_max":0,"o":"m 121 63 b 180 65 146 63 166 63 b 213 80 194 67 205 72 b 228 115 221 88 226 100 b 231 181 230 131 231 153 l 231 722 b 228 788 231 750 230 772 b 213 823 226 803 221 815 b 180 838 205 831 194 836 b 121 840 166 839 146 840 l 100 840 l 100 903 l 454 903 l 454 840 l 433 840 b 374 838 408 840 389 839 b 342 823 360 836 349 831 b 328 788 334 815 330 803 b 325 722 326 772 325 750 l 325 181 b 328 115 325 153 326 131 b 342 80 330 100 334 88 b 374 65 349 72 360 67 b 433 63 389 63 408 63 l 454 63 l 454 0 l 100 0 l 100 63 m 228 1194 l 326 1194 l 463 972 l 426 972 l 278 1097 l 129 972 l 92 972 "},"Ï":{"ha":556,"x_min":0,"x_max":0,"o":"m 121 63 b 180 65 146 63 166 63 b 213 80 194 67 205 72 b 228 115 221 88 226 100 b 231 181 230 131 231 153 l 231 722 b 228 788 231 750 230 772 b 213 823 226 803 221 815 b 180 838 205 831 194 836 b 121 840 166 839 146 840 l 100 840 l 100 903 l 454 903 l 454 840 l 433 840 b 374 838 408 840 389 839 b 342 823 360 836 349 831 b 328 788 334 815 330 803 b 325 722 326 772 325 750 l 325 181 b 328 115 325 153 326 131 b 342 80 330 100 334 88 b 374 65 349 72 360 67 b 433 63 389 63 408 63 l 454 63 l 454 0 l 100 0 l 100 63 m 111 1104 b 131 1168 111 1129 118 1150 b 179 1194 145 1186 161 1194 b 226 1168 198 1194 213 1186 b 246 1104 239 1150 246 1129 b 226 1040 246 1079 239 1058 b 179 1014 213 1023 198 1014 b 131 1040 161 1014 145 1023 b 111 1104 118 1058 111 1079 m 308 1104 b 328 1168 308 1129 315 1150 b 376 1194 342 1186 358 1194 b 424 1168 395 1194 411 1186 b 444 1104 438 1150 444 1129 b 424 1040 444 1079 438 1058 b 376 1014 411 1023 395 1014 b 328 1040 358 1014 342 1023 b 308 1104 315 1058 308 1079 "},"Ð":{"ha":556,"x_min":0,"x_max":0,"o":"m 111 486 l 111 722 b 108 781 111 746 110 766 b 97 817 106 797 103 809 b 74 835 92 826 84 832 b 36 840 65 839 52 840 l 29 840 l 29 903 l 261 903 b 360 878 295 903 328 895 b 444 800 391 862 419 836 b 502 660 468 764 488 717 b 524 451 516 602 524 533 b 502 243 524 370 516 300 b 444 103 488 186 468 139 b 360 24 419 67 391 41 b 261 0 328 8 295 0 l 29 0 l 29 63 l 36 63 b 97 85 67 63 87 70 b 111 181 106 101 111 132 l 111 417 l 29 417 l 29 486 m 326 486 l 326 417 l 175 417 l 175 181 b 178 122 175 156 176 137 b 190 88 181 107 185 96 b 214 73 196 80 204 75 b 251 69 224 71 237 69 l 258 69 b 328 85 282 69 306 75 b 388 144 350 96 370 116 b 429 260 405 172 419 211 b 444 451 439 310 444 374 b 429 642 444 529 439 593 b 388 759 419 692 405 731 b 328 817 370 787 350 807 b 258 833 306 828 282 833 l 251 833 b 214 830 237 833 224 832 b 190 815 204 828 196 822 b 178 781 185 807 181 795 b 175 722 176 766 175 746 l 175 486 "},"Đ":{"ha":556,"x_min":0,"x_max":0,"o":"m 29 486 l 29 417 l 111 417 l 111 181 b 97 85 111 132 106 101 b 36 63 87 70 67 63 l 29 63 l 29 0 l 261 0 b 360 24 295 0 328 8 b 444 103 391 41 419 67 b 502 243 468 139 488 186 b 524 451 516 300 524 370 b 502 660 524 533 516 602 b 444 800 488 717 468 764 b 360 878 419 836 391 862 b 261 903 328 895 295 903 l 29 903 l 29 840 l 36 840 b 74 835 52 840 65 839 b 97 817 84 832 92 826 b 108 781 103 809 106 797 b 111 722 110 766 111 746 l 111 486 m 175 486 l 175 722 b 178 781 175 746 176 766 b 190 815 181 795 185 807 b 214 830 196 822 204 828 b 251 833 224 832 237 833 l 258 833 b 328 817 282 833 306 828 b 388 759 350 807 370 787 b 429 642 405 731 419 692 b 444 451 439 593 444 529 b 429 260 444 374 439 310 b 388 144 419 211 405 172 b 328 85 370 116 350 96 b 258 69 306 75 282 69 l 251 69 b 214 73 237 69 224 71 b 190 88 204 75 196 80 b 178 122 185 96 181 107 b 175 181 176 137 175 156 l 175 417 l 326 417 l 326 486 "},"Ñ":{"ha":556,"x_min":0,"x_max":0,"o":"m 146 799 l 140 799 l 140 181 b 153 85 140 132 145 101 b 208 63 162 70 181 63 l 214 63 l 214 0 l 26 0 l 26 63 l 32 63 b 88 85 60 63 78 70 b 101 181 97 101 101 132 l 101 722 b 99 781 101 746 100 766 b 88 817 97 797 93 809 b 66 835 82 826 75 832 b 32 840 57 839 46 840 l 26 840 l 26 903 l 182 903 l 425 242 l 425 722 b 422 781 425 746 424 766 b 412 817 420 797 417 809 b 391 835 407 826 400 832 b 357 840 382 839 371 840 l 351 840 l 351 903 l 539 903 l 539 840 l 533 840 b 499 835 519 840 508 839 b 478 817 491 832 483 826 b 467 781 472 809 469 797 b 464 722 465 766 464 746 l 464 -14 l 444 -14 m 303 1146 b 232 1194 276 1178 252 1194 b 191 1167 217 1194 203 1185 b 156 1079 178 1149 167 1120 l 140 1021 l 163 993 l 167 1008 b 215 1088 181 1061 198 1088 b 274 1040 228 1088 248 1072 b 344 992 300 1008 324 992 b 385 1019 359 992 373 1001 b 421 1107 398 1037 410 1066 l 436 1167 l 414 1194 l 410 1178 b 361 1099 395 1125 379 1099 b 303 1146 348 1099 329 1114 "},"Ò":{"ha":556,"x_min":0,"x_max":0,"o":"m 443 451 b 397 763 443 594 428 698 b 278 861 367 828 327 861 b 159 763 230 861 190 828 b 113 451 128 698 113 594 b 159 140 113 309 128 205 b 278 42 190 74 230 42 b 397 140 327 42 367 74 b 443 451 428 205 443 309 m 524 451 b 505 254 524 378 517 313 b 453 106 492 196 475 146 b 374 12 431 65 404 34 b 278 -21 344 -10 312 -21 b 181 12 244 -21 211 -10 b 103 106 151 34 125 65 b 51 254 81 146 63 196 b 32 451 38 313 32 378 b 51 649 32 525 38 590 b 103 797 63 707 81 756 b 181 891 125 838 151 869 b 278 924 211 913 244 924 b 374 891 312 924 344 913 b 453 797 404 869 431 838 b 505 649 475 756 492 707 b 524 451 517 590 524 525 m 133 1194 l 231 1194 l 289 972 l 264 972 "},"Ó":{"ha":556,"x_min":0,"x_max":0,"o":"m 113 451 b 159 140 113 309 128 205 b 278 42 190 74 230 42 b 397 140 327 42 367 74 b 443 451 428 205 443 309 b 397 763 443 594 428 698 b 278 861 367 828 327 861 b 159 763 230 861 190 828 b 113 451 128 698 113 594 m 32 451 b 51 649 32 525 38 590 b 103 797 63 707 81 756 b 181 891 125 838 151 869 b 278 924 211 913 244 924 b 374 891 312 924 344 913 b 453 797 404 869 431 838 b 505 649 475 756 492 707 b 524 451 517 590 524 525 b 505 254 524 378 517 313 b 453 106 492 196 475 146 b 374 12 431 65 404 34 b 278 -21 344 -10 312 -21 b 181 12 244 -21 211 -10 b 103 106 151 34 125 65 b 51 254 81 146 63 196 b 32 451 38 313 32 378 m 325 1194 l 422 1194 l 292 972 l 267 972 "},"Ô":{"ha":556,"x_min":0,"x_max":0,"o":"m 443 451 b 397 763 443 594 428 698 b 278 861 367 828 327 861 b 159 763 230 861 190 828 b 113 451 128 698 113 594 b 159 140 113 309 128 205 b 278 42 190 74 230 42 b 397 140 327 42 367 74 b 443 451 428 205 443 309 m 524 451 b 505 254 524 378 517 313 b 453 106 492 196 475 146 b 374 12 431 65 404 34 b 278 -21 344 -10 312 -21 b 181 12 244 -21 211 -10 b 103 106 151 34 125 65 b 51 254 81 146 63 196 b 32 451 38 313 32 378 b 51 649 32 525 38 590 b 103 797 63 707 81 756 b 181 891 125 838 151 869 b 278 924 211 913 244 924 b 374 891 312 924 344 913 b 453 797 404 869 431 838 b 505 649 475 756 492 707 b 524 451 517 590 524 525 m 243 1194 l 311 1194 l 410 972 l 383 972 l 278 1097 l 171 972 l 146 972 "},"Õ":{"ha":556,"x_min":0,"x_max":0,"o":"m 443 451 b 397 763 443 594 428 698 b 278 861 367 828 327 861 b 159 763 230 861 190 828 b 113 451 128 698 113 594 b 159 140 113 309 128 205 b 278 42 190 74 230 42 b 397 140 327 42 367 74 b 443 451 428 205 443 309 m 524 451 b 505 254 524 378 517 313 b 453 106 492 196 475 146 b 374 12 431 65 404 34 b 278 -21 344 -10 312 -21 b 181 12 244 -21 211 -10 b 103 106 151 34 125 65 b 51 254 81 146 63 196 b 32 451 38 313 32 378 b 51 649 32 525 38 590 b 103 797 63 707 81 756 b 181 891 125 838 151 869 b 278 924 211 913 244 924 b 374 891 312 924 344 913 b 453 797 404 869 431 838 b 505 649 475 756 492 707 b 524 451 517 590 524 525 m 296 1146 b 363 1099 325 1114 347 1099 b 415 1178 381 1099 399 1125 l 419 1194 l 446 1167 l 428 1107 b 388 1019 415 1066 401 1037 b 342 992 374 1001 358 992 b 265 1040 319 992 293 1008 b 199 1088 237 1072 214 1088 b 146 1008 180 1088 163 1061 l 140 993 l 115 1021 l 133 1079 b 174 1167 146 1120 160 1149 b 219 1194 188 1185 203 1194 b 296 1146 243 1194 268 1178 "},"Ö":{"ha":556,"x_min":0,"x_max":0,"o":"m 443 451 b 397 763 443 594 428 698 b 278 861 367 828 327 861 b 159 763 230 861 190 828 b 113 451 128 698 113 594 b 159 140 113 309 128 205 b 278 42 190 74 230 42 b 397 140 327 42 367 74 b 443 451 428 205 443 309 m 524 451 b 505 254 524 378 517 313 b 453 106 492 196 475 146 b 374 12 431 65 404 34 b 278 -21 344 -10 312 -21 b 181 12 244 -21 211 -10 b 103 106 151 34 125 65 b 51 254 81 146 63 196 b 32 451 38 313 32 378 b 51 649 32 525 38 590 b 103 797 63 707 81 756 b 181 891 125 838 151 869 b 278 924 211 913 244 924 b 374 891 312 924 344 913 b 453 797 404 869 431 838 b 505 649 475 756 492 707 b 524 451 517 590 524 525 m 325 1104 b 339 1168 325 1129 330 1150 b 372 1194 348 1186 359 1194 b 405 1168 385 1194 396 1186 b 418 1104 414 1150 418 1129 b 405 1040 418 1079 414 1058 b 372 1014 396 1023 385 1014 b 339 1040 359 1014 348 1023 b 325 1104 330 1058 325 1079 m 138 1104 b 151 1168 138 1129 142 1150 b 183 1194 159 1186 170 1194 b 217 1168 196 1194 207 1186 b 231 1104 226 1150 231 1129 b 217 1040 231 1079 226 1058 b 183 1014 207 1023 196 1014 b 151 1040 170 1014 159 1023 b 138 1104 142 1058 138 1079 "},"×":{"ha":556,"x_min":0,"x_max":0,"o":"m 246 451 l 93 681 l 125 729 l 278 500 l 431 729 l 463 681 l 310 451 l 463 222 l 431 174 l 278 403 l 125 174 l 93 222 "},"Ø":{"ha":556,"x_min":0,"x_max":0,"o":"m 94 125 b 49 268 75 166 60 213 b 32 451 38 323 32 384 b 51 649 32 525 38 590 b 103 797 63 707 81 756 b 181 891 125 838 151 869 b 278 924 211 913 244 924 b 363 898 308 924 337 915 b 435 824 390 881 413 856 l 485 924 l 511 876 l 461 776 b 507 634 481 736 496 688 b 524 451 518 580 524 519 b 505 254 524 378 517 313 b 453 106 492 196 475 146 b 374 12 431 65 404 34 b 278 -21 344 -10 312 -21 b 119 78 217 -21 164 12 l 71 -21 l 46 26 m 113 451 b 135 210 113 350 120 269 l 401 753 b 347 835 387 790 369 817 b 278 861 326 852 303 861 b 159 763 230 861 190 828 b 113 451 128 698 113 594 m 443 451 b 438 586 443 501 441 546 b 421 692 434 626 428 661 l 154 149 b 278 42 183 77 224 42 b 397 140 327 42 367 74 b 443 451 428 205 443 309 "},"Ù":{"ha":556,"x_min":0,"x_max":0,"o":"m 539 840 l 532 840 b 497 835 518 840 506 839 b 476 817 488 832 481 826 b 465 781 471 809 467 797 b 463 722 463 766 463 746 l 463 333 b 415 60 463 205 447 113 b 278 -21 384 6 338 -21 b 142 60 219 -21 174 6 b 93 333 109 113 93 205 l 93 722 b 90 781 93 746 92 766 b 80 817 88 797 85 809 b 58 835 75 826 68 832 b 24 840 49 839 38 840 l 17 840 l 17 903 l 231 903 l 231 840 l 224 840 b 189 835 210 840 198 839 b 167 817 180 832 172 826 b 157 781 162 809 159 797 b 154 722 155 766 154 746 l 154 333 b 163 203 154 281 157 238 b 188 120 168 169 176 141 b 229 76 199 99 213 84 b 288 63 246 67 265 63 b 344 76 309 63 328 67 b 386 120 360 84 374 99 b 413 203 398 141 407 169 b 422 333 419 238 422 281 l 422 722 b 408 818 422 771 418 803 b 351 840 399 833 380 840 l 344 840 l 344 903 l 539 903 m 157 1194 l 247 1194 l 301 972 l 278 972 "},"Ú":{"ha":556,"x_min":0,"x_max":0,"o":"m 539 840 l 532 840 b 497 835 518 840 506 839 b 476 817 488 832 481 826 b 465 781 471 809 467 797 b 463 722 463 766 463 746 l 463 333 b 415 60 463 205 447 113 b 278 -21 384 6 338 -21 b 142 60 219 -21 174 6 b 93 333 109 113 93 205 l 93 722 b 90 781 93 746 92 766 b 80 817 88 797 85 809 b 58 835 75 826 68 832 b 24 840 49 839 38 840 l 17 840 l 17 903 l 231 903 l 231 840 l 224 840 b 189 835 210 840 198 839 b 167 817 180 832 172 826 b 157 781 162 809 159 797 b 154 722 155 766 154 746 l 154 333 b 163 203 154 281 157 238 b 188 120 168 169 176 141 b 229 76 199 99 213 84 b 288 63 246 67 265 63 b 344 76 309 63 328 67 b 386 120 360 84 374 99 b 413 203 398 141 407 169 b 422 333 419 238 422 281 l 422 722 b 408 818 422 771 418 803 b 351 840 399 833 380 840 l 344 840 l 344 903 l 539 903 m 406 1194 l 314 1194 l 261 972 l 285 972 "},"Û":{"ha":556,"x_min":0,"x_max":0,"o":"m 539 840 l 532 840 b 497 835 518 840 506 839 b 476 817 488 832 481 826 b 465 781 471 809 467 797 b 463 722 463 766 463 746 l 463 333 b 415 60 463 205 447 113 b 278 -21 384 6 338 -21 b 142 60 219 -21 174 6 b 93 333 109 113 93 205 l 93 722 b 90 781 93 746 92 766 b 80 817 88 797 85 809 b 58 835 75 826 68 832 b 24 840 49 839 38 840 l 17 840 l 17 903 l 231 903 l 231 840 l 224 840 b 189 835 210 840 198 839 b 167 817 180 832 172 826 b 157 781 162 809 159 797 b 154 722 155 766 154 746 l 154 333 b 163 203 154 281 157 238 b 188 120 168 169 176 141 b 229 76 199 99 213 84 b 288 63 246 67 265 63 b 344 76 309 63 328 67 b 386 120 360 84 374 99 b 413 203 398 141 407 169 b 422 333 419 238 422 281 l 422 722 b 408 818 422 771 418 803 b 351 840 399 833 380 840 l 344 840 l 344 903 l 539 903 m 256 1194 l 318 1194 l 408 972 l 386 972 l 288 1097 l 188 972 l 165 972 "},"Ü":{"ha":556,"x_min":0,"x_max":0,"o":"m 539 840 l 532 840 b 497 835 518 840 506 839 b 476 817 488 832 481 826 b 465 781 471 809 467 797 b 463 722 463 766 463 746 l 463 333 b 415 60 463 205 447 113 b 278 -21 384 6 338 -21 b 142 60 219 -21 174 6 b 93 333 109 113 93 205 l 93 722 b 90 781 93 746 92 766 b 80 817 88 797 85 809 b 58 835 75 826 68 832 b 24 840 49 839 38 840 l 17 840 l 17 903 l 231 903 l 231 840 l 224 840 b 189 835 210 840 198 839 b 167 817 180 832 172 826 b 157 781 162 809 159 797 b 154 722 155 766 154 746 l 154 333 b 163 203 154 281 157 238 b 188 120 168 169 176 141 b 229 76 199 99 213 84 b 288 63 246 67 265 63 b 344 76 309 63 328 67 b 386 120 360 84 374 99 b 413 203 398 141 407 169 b 422 333 419 238 422 281 l 422 722 b 408 818 422 771 418 803 b 351 840 399 833 380 840 l 344 840 l 344 903 l 539 903 m 328 1104 b 340 1168 328 1129 332 1150 b 371 1194 349 1186 359 1194 b 403 1168 384 1194 394 1186 b 415 1104 411 1150 415 1129 b 403 1040 415 1079 411 1058 b 371 1014 394 1023 384 1014 b 340 1040 359 1014 349 1023 b 328 1104 332 1058 328 1079 m 154 1104 b 167 1168 154 1129 158 1150 b 197 1194 175 1186 185 1194 b 228 1168 210 1194 221 1186 b 240 1104 236 1150 240 1129 b 228 1040 240 1079 236 1058 b 197 1014 221 1023 210 1014 b 167 1040 185 1014 175 1023 b 154 1104 158 1058 154 1079 "},"Ý":{"ha":556,"x_min":0,"x_max":0,"o":"m 168 63 b 233 85 201 63 223 70 b 249 181 244 101 249 132 l 249 361 l 110 722 b 71 810 95 761 82 791 b 11 840 60 830 40 840 l 7 840 l 7 903 l 232 903 l 232 840 l 225 840 b 171 794 189 840 171 825 b 189 722 171 778 177 754 l 296 444 l 403 722 b 422 801 416 756 422 783 b 374 840 422 827 406 840 l 367 840 l 367 903 l 549 903 l 549 840 l 542 840 b 487 810 518 840 499 830 b 444 722 474 791 460 761 l 314 379 l 314 181 b 317 122 314 156 315 137 b 330 85 320 106 324 94 b 355 67 336 77 344 71 b 396 63 366 64 379 63 l 410 63 l 410 0 l 153 0 l 153 63 m 421 1194 l 324 1194 l 267 972 l 292 972 "},"Þ":{"ha":556,"x_min":0,"x_max":0,"o":"m 194 181 b 210 85 194 132 200 101 b 278 63 221 70 244 63 l 286 63 l 286 0 l 32 0 l 32 63 l 40 63 b 107 85 74 63 96 70 b 124 181 118 101 124 132 l 124 722 b 120 781 124 746 122 766 b 107 817 118 797 113 809 b 81 835 100 826 92 832 b 40 840 71 839 57 840 l 32 840 l 32 903 l 286 903 l 286 840 l 278 840 b 236 835 261 840 247 839 b 210 817 225 832 216 826 b 198 781 204 809 200 797 b 194 722 196 766 194 746 l 301 722 b 408 701 343 722 378 715 b 479 644 437 688 461 669 b 519 558 498 620 511 592 b 532 451 528 525 532 489 b 519 345 532 413 528 378 b 479 259 511 312 498 284 b 408 201 461 234 437 215 b 301 181 378 188 343 181 l 194 181 m 194 250 l 301 250 b 410 306 351 250 388 269 b 444 451 433 344 444 392 b 410 597 444 511 433 559 b 301 653 388 634 351 653 l 194 653 "},"ß":{"ha":556,"x_min":0,"x_max":0,"o":"m 260 625 l 269 625 b 344 667 299 625 324 639 b 374 792 364 694 374 736 b 348 898 374 841 365 876 b 282 931 331 920 309 931 b 206 881 253 931 228 914 b 174 715 184 847 174 792 l 174 0 l 26 0 l 26 63 l 57 63 b 95 80 76 63 89 68 b 104 139 101 91 104 111 l 104 694 b 119 824 104 744 109 787 b 160 917 130 861 143 892 b 221 974 178 942 198 961 b 294 993 244 987 269 993 b 411 940 343 993 381 975 b 456 799 441 905 456 858 b 437 698 456 757 449 723 b 396 639 424 672 411 653 b 335 604 377 622 357 611 l 335 597 b 428 550 370 591 401 575 b 492 456 452 529 473 497 b 521 285 511 415 521 358 b 474 61 521 190 505 116 b 356 -21 443 6 404 -21 b 296 -1 331 -21 312 -14 b 259 51 280 12 268 29 b 240 128 250 74 244 99 b 235 222 237 158 235 189 l 235 243 l 278 243 l 278 229 b 292 91 278 170 283 124 b 347 42 302 58 320 42 b 433 278 405 42 433 120 b 420 421 433 337 429 385 b 385 505 411 457 400 485 b 333 545 370 525 353 538 b 269 556 313 552 292 556 l 260 556 "},"à":{"ha":556,"x_min":0,"x_max":0,"o":"m 347 153 b 319 88 339 131 330 109 b 285 32 309 66 298 48 b 240 -6 272 16 257 3 b 179 -21 222 -16 202 -21 b 93 19 141 -21 113 -7 b 64 118 74 46 64 79 b 89 224 64 158 72 193 b 154 306 106 255 127 283 b 247 369 181 330 212 351 b 353 417 281 387 317 403 l 353 465 b 321 617 353 538 342 589 b 233 660 300 646 270 660 b 190 649 217 660 202 656 b 157 624 177 642 166 634 b 136 592 148 615 141 604 b 129 563 131 581 129 571 b 133 537 129 552 131 544 l 142 516 b 150 492 144 509 147 501 b 154 458 153 484 154 472 b 139 408 154 437 149 420 b 103 389 129 395 117 389 b 60 414 85 389 71 397 b 44 482 50 431 44 453 b 62 573 44 514 50 545 b 108 647 73 601 89 626 b 175 697 128 669 150 685 b 253 715 200 709 226 715 b 343 694 290 715 320 708 b 398 638 366 681 384 662 b 425 554 411 615 420 587 b 432 451 430 522 432 488 l 432 125 b 436 78 432 104 433 88 b 454 63 439 68 445 63 b 492 174 479 63 492 100 l 492 181 l 526 181 l 526 160 b 517 70 526 124 523 94 b 494 15 511 47 503 28 b 461 -13 484 1 473 -8 b 426 -21 449 -18 438 -21 b 373 6 404 -21 386 -12 b 353 90 359 23 353 51 l 353 153 m 353 368 b 214 283 297 347 251 318 b 158 146 177 247 158 201 b 174 83 158 122 164 101 b 224 56 185 65 201 56 b 267 73 238 56 252 61 b 308 126 281 84 295 102 b 340 217 321 149 332 180 b 353 347 349 254 353 297 l 353 368 m 69 993 l 203 993 l 283 771 l 249 771 "},"á":{"ha":556,"x_min":0,"x_max":0,"o":"m 347 153 b 319 88 339 131 330 109 b 285 32 309 66 298 48 b 240 -6 272 16 257 3 b 179 -21 222 -16 202 -21 b 93 19 141 -21 113 -7 b 64 118 74 46 64 79 b 89 224 64 158 72 193 b 154 306 106 255 127 283 b 247 369 181 330 212 351 b 353 417 281 387 317 403 l 353 465 b 321 617 353 538 342 589 b 233 660 300 646 270 660 b 190 649 217 660 202 656 b 157 624 177 642 166 634 b 136 592 148 615 141 604 b 129 563 131 581 129 571 b 133 537 129 552 131 544 l 142 516 b 150 492 144 509 147 501 b 154 458 153 484 154 472 b 139 408 154 437 149 420 b 103 389 129 395 117 389 b 60 414 85 389 71 397 b 44 482 50 431 44 453 b 62 573 44 514 50 545 b 108 647 73 601 89 626 b 175 697 128 669 150 685 b 253 715 200 709 226 715 b 343 694 290 715 320 708 b 398 638 366 681 384 662 b 425 554 411 615 420 587 b 432 451 430 522 432 488 l 432 125 b 436 78 432 104 433 88 b 454 63 439 68 445 63 b 492 174 479 63 492 100 l 492 181 l 526 181 l 526 160 b 517 70 526 124 523 94 b 494 15 511 47 503 28 b 461 -13 484 1 473 -8 b 426 -21 449 -18 438 -21 b 373 6 404 -21 386 -12 b 353 90 359 23 353 51 l 353 153 m 353 368 b 214 283 297 347 251 318 b 158 146 177 247 158 201 b 174 83 158 122 164 101 b 224 56 185 65 201 56 b 267 73 238 56 252 61 b 308 126 281 84 295 102 b 340 217 321 149 332 180 b 353 347 349 254 353 297 l 353 368 m 422 993 l 288 993 l 208 771 l 243 771 "},"â":{"ha":556,"x_min":0,"x_max":0,"o":"m 347 153 b 319 88 339 131 330 109 b 285 32 309 66 298 48 b 240 -6 272 16 257 3 b 179 -21 222 -16 202 -21 b 93 19 141 -21 113 -7 b 64 118 74 46 64 79 b 89 224 64 158 72 193 b 154 306 106 255 127 283 b 247 369 181 330 212 351 b 353 417 281 387 317 403 l 353 465 b 321 617 353 538 342 589 b 233 660 300 646 270 660 b 190 649 217 660 202 656 b 157 624 177 642 166 634 b 136 592 148 615 141 604 b 129 563 131 581 129 571 b 133 537 129 552 131 544 l 142 516 b 150 492 144 509 147 501 b 154 458 153 484 154 472 b 139 408 154 437 149 420 b 103 389 129 395 117 389 b 60 414 85 389 71 397 b 44 482 50 431 44 453 b 62 573 44 514 50 545 b 108 647 73 601 89 626 b 175 697 128 669 150 685 b 253 715 200 709 226 715 b 343 694 290 715 320 708 b 398 638 366 681 384 662 b 425 554 411 615 420 587 b 432 451 430 522 432 488 l 432 125 b 436 78 432 104 433 88 b 454 63 439 68 445 63 b 492 174 479 63 492 100 l 492 181 l 526 181 l 526 160 b 517 70 526 124 523 94 b 494 15 511 47 503 28 b 461 -13 484 1 473 -8 b 426 -21 449 -18 438 -21 b 373 6 404 -21 386 -12 b 353 90 359 23 353 51 l 353 153 m 353 368 b 214 283 297 347 251 318 b 158 146 177 247 158 201 b 174 83 158 122 164 101 b 224 56 185 65 201 56 b 267 73 238 56 252 61 b 308 126 281 84 295 102 b 340 217 321 149 332 180 b 353 347 349 254 353 297 l 353 368 m 208 993 l 303 993 l 426 771 l 392 771 l 256 903 l 119 771 l 85 771 "},"ã":{"ha":556,"x_min":0,"x_max":0,"o":"m 347 153 b 319 88 339 131 330 109 b 285 32 309 66 298 48 b 240 -6 272 16 257 3 b 179 -21 222 -16 202 -21 b 93 19 141 -21 113 -7 b 64 118 74 46 64 79 b 89 224 64 158 72 193 b 154 306 106 255 127 283 b 247 369 181 330 212 351 b 353 417 281 387 317 403 l 353 465 b 321 617 353 538 342 589 b 233 660 300 646 270 660 b 190 649 217 660 202 656 b 157 624 177 642 166 634 b 136 592 148 615 141 604 b 129 563 131 581 129 571 b 133 537 129 552 131 544 l 142 516 b 150 492 144 509 147 501 b 154 458 153 484 154 472 b 139 408 154 437 149 420 b 103 389 129 395 117 389 b 60 414 85 389 71 397 b 44 482 50 431 44 453 b 62 573 44 514 50 545 b 108 647 73 601 89 626 b 175 697 128 669 150 685 b 253 715 200 709 226 715 b 343 694 290 715 320 708 b 398 638 366 681 384 662 b 425 554 411 615 420 587 b 432 451 430 522 432 488 l 432 125 b 436 78 432 104 433 88 b 454 63 439 68 445 63 b 492 174 479 63 492 100 l 492 181 l 526 181 l 526 160 b 517 70 526 124 523 94 b 494 15 511 47 503 28 b 461 -13 484 1 473 -8 b 426 -21 449 -18 438 -21 b 373 6 404 -21 386 -12 b 353 90 359 23 353 51 l 353 153 m 353 368 b 214 283 297 347 251 318 b 158 146 177 247 158 201 b 174 83 158 122 164 101 b 224 56 185 65 201 56 b 267 73 238 56 252 61 b 308 126 281 84 295 102 b 340 217 321 149 332 180 b 353 347 349 254 353 297 l 353 368 m 281 954 b 356 919 312 931 337 919 b 390 935 369 919 380 925 b 417 978 399 945 408 959 l 424 993 l 453 969 l 429 911 b 333 815 403 847 371 815 b 244 854 310 815 281 828 b 169 889 213 877 188 889 b 135 874 156 889 145 884 b 108 831 126 863 117 849 l 101 815 l 71 839 l 96 897 b 192 993 122 961 154 993 b 281 954 215 993 244 980 "},"ä":{"ha":556,"x_min":0,"x_max":0,"o":"m 347 153 b 319 88 339 131 330 109 b 285 32 309 66 298 48 b 240 -6 272 16 257 3 b 179 -21 222 -16 202 -21 b 93 19 141 -21 113 -7 b 64 118 74 46 64 79 b 89 224 64 158 72 193 b 154 306 106 255 127 283 b 247 369 181 330 212 351 b 353 417 281 387 317 403 l 353 465 b 321 617 353 538 342 589 b 233 660 300 646 270 660 b 190 649 217 660 202 656 b 157 624 177 642 166 634 b 136 592 148 615 141 604 b 129 563 131 581 129 571 b 133 537 129 552 131 544 l 142 516 b 150 492 144 509 147 501 b 154 458 153 484 154 472 b 139 408 154 437 149 420 b 103 389 129 395 117 389 b 60 414 85 389 71 397 b 44 482 50 431 44 453 b 62 573 44 514 50 545 b 108 647 73 601 89 626 b 175 697 128 669 150 685 b 253 715 200 709 226 715 b 343 694 290 715 320 708 b 398 638 366 681 384 662 b 425 554 411 615 420 587 b 432 451 430 522 432 488 l 432 125 b 436 78 432 104 433 88 b 454 63 439 68 445 63 b 492 174 479 63 492 100 l 492 181 l 526 181 l 526 160 b 517 70 526 124 523 94 b 494 15 511 47 503 28 b 461 -13 484 1 473 -8 b 426 -21 449 -18 438 -21 b 373 6 404 -21 386 -12 b 353 90 359 23 353 51 l 353 153 m 353 368 b 214 283 297 347 251 318 b 158 146 177 247 158 201 b 174 83 158 122 164 101 b 224 56 185 65 201 56 b 267 73 238 56 252 61 b 308 126 281 84 295 102 b 340 217 321 149 332 180 b 353 347 349 254 353 297 l 353 368 m 288 903 b 306 967 288 928 294 949 b 353 993 319 984 334 993 b 398 967 370 993 385 984 b 417 903 410 949 417 928 b 398 839 417 878 410 856 b 353 813 385 821 370 813 b 306 839 334 813 319 821 b 288 903 294 856 288 878 m 79 903 b 98 967 79 928 85 949 b 144 993 110 984 126 993 b 190 967 162 993 177 984 b 208 903 202 949 208 928 b 190 839 208 878 202 856 b 144 813 177 821 162 813 b 98 839 126 813 110 821 b 79 903 85 856 79 878 "},"å":{"ha":556,"x_min":0,"x_max":0,"o":"m 347 153 b 319 88 339 131 330 109 b 285 32 309 66 298 48 b 240 -6 272 16 257 3 b 179 -21 222 -16 202 -21 b 93 19 141 -21 113 -7 b 64 118 74 46 64 79 b 89 224 64 158 72 193 b 154 306 106 255 127 283 b 247 369 181 330 212 351 b 353 417 281 387 317 403 l 353 465 b 321 617 353 538 342 589 b 233 660 300 646 270 660 b 190 649 217 660 202 656 b 157 624 177 642 166 634 b 136 592 148 615 141 604 b 129 563 131 581 129 571 b 133 537 129 552 131 544 l 142 516 b 150 492 144 509 147 501 b 154 458 153 484 154 472 b 139 408 154 437 149 420 b 103 389 129 395 117 389 b 60 414 85 389 71 397 b 44 482 50 431 44 453 b 62 573 44 514 50 545 b 108 647 73 601 89 626 b 175 697 128 669 150 685 b 253 715 200 709 226 715 b 343 694 290 715 320 708 b 398 638 366 681 384 662 b 425 554 411 615 420 587 b 432 451 430 522 432 488 l 432 125 b 436 78 432 104 433 88 b 454 63 439 68 445 63 b 492 174 479 63 492 100 l 492 181 l 526 181 l 526 160 b 517 70 526 124 523 94 b 494 15 511 47 503 28 b 461 -13 484 1 473 -8 b 426 -21 449 -18 438 -21 b 373 6 404 -21 386 -12 b 353 90 359 23 353 51 l 353 153 m 353 368 b 214 283 297 347 251 318 b 158 146 177 247 158 201 b 174 83 158 122 164 101 b 224 56 185 65 201 56 b 267 73 238 56 252 61 b 308 126 281 84 295 102 b 340 217 321 149 332 180 b 353 347 349 254 353 297 l 353 368 m 161 889 b 187 978 161 924 170 954 b 253 1014 204 1002 226 1014 b 319 978 280 1014 302 1002 b 346 889 337 954 346 924 b 319 800 346 854 337 824 b 253 764 302 776 280 764 b 187 800 226 764 204 776 b 161 889 170 824 161 854 m 203 889 b 216 840 203 869 207 853 b 253 819 225 826 237 819 b 290 840 269 819 281 826 b 303 889 298 853 303 869 b 290 938 303 908 298 925 b 253 958 281 952 269 958 b 216 938 237 958 225 952 b 203 889 207 925 203 908 "},"æ":{"ha":556,"x_min":0,"x_max":0,"o":"m 521 139 b 489 60 513 109 502 83 b 448 4 478 39 464 21 b 389 -21 432 -12 412 -21 b 306 30 358 -21 331 -4 b 251 181 282 64 263 114 l 246 181 b 226 106 240 155 234 130 b 200 41 219 81 210 60 b 165 -4 190 22 178 7 b 118 -21 151 -15 136 -21 b 60 19 92 -21 73 -7 b 42 118 48 46 42 79 b 60 224 42 158 48 193 b 106 306 72 255 87 283 b 169 369 125 330 146 351 b 239 417 193 387 216 403 l 239 465 b 216 617 239 538 231 589 b 157 660 201 646 181 660 b 125 649 145 660 134 656 b 102 624 116 642 108 634 b 88 592 96 615 91 604 b 83 563 85 581 83 571 b 85 537 83 552 84 544 b 91 516 87 530 89 523 b 97 492 93 509 95 501 b 99 458 98 484 99 472 b 89 408 99 437 95 420 b 65 389 82 395 75 389 b 40 414 55 389 47 397 b 29 482 33 431 29 453 b 42 573 29 514 33 545 b 74 647 50 601 61 626 b 119 697 88 669 103 685 b 169 715 136 709 153 715 b 239 685 199 715 222 705 b 276 604 256 664 268 638 b 329 686 292 639 310 667 b 389 715 349 706 369 715 b 487 630 430 715 462 687 b 524 382 511 573 524 490 l 524 354 l 294 354 b 322 137 294 263 304 191 b 408 56 341 83 369 56 b 449 73 424 56 438 61 b 479 111 461 84 471 97 b 504 167 488 128 497 146 l 521 139 m 389 660 b 329 601 367 660 347 640 b 296 424 312 561 300 502 l 453 424 b 465 430 460 424 464 426 b 467 451 466 434 467 441 b 463 531 467 479 465 506 b 449 597 460 556 455 578 b 424 643 442 617 434 632 b 389 660 415 654 403 660 m 239 368 b 144 283 204 347 172 318 b 103 146 117 247 103 201 b 113 83 103 122 106 101 b 143 56 119 65 129 56 b 208 128 166 56 188 80 b 239 347 229 176 239 249 l 239 368 "},"ç":{"ha":556,"x_min":0,"x_max":0,"o":"m 500 118 b 451 49 487 92 471 69 b 389 1 436 32 415 16 b 297 -21 363 -13 332 -21 l 278 -81 b 311 -76 288 -78 299 -76 b 378 -105 339 -76 361 -86 b 403 -174 394 -124 403 -147 b 372 -256 403 -209 392 -236 b 290 -285 351 -275 324 -285 b 249 -278 275 -285 261 -283 b 219 -265 238 -274 228 -270 b 194 -246 210 -260 202 -253 l 206 -208 b 225 -222 211 -214 218 -219 b 245 -232 231 -226 237 -229 b 269 -236 253 -235 261 -236 b 314 -219 291 -236 306 -230 b 326 -178 322 -207 326 -194 b 314 -141 326 -164 322 -152 b 269 -125 306 -130 291 -125 b 243 -129 259 -125 250 -126 b 231 -132 238 -130 234 -131 l 263 -18 b 176 13 232 -14 203 -4 b 106 84 150 30 126 54 b 58 195 85 114 69 151 b 40 347 46 239 40 290 b 59 490 40 397 47 445 b 112 607 72 534 89 574 b 194 686 134 640 162 667 b 301 715 226 706 262 715 b 435 663 355 715 400 698 b 489 528 471 628 489 583 b 474 458 489 504 484 480 b 424 424 463 435 447 424 b 380 444 406 424 391 430 b 363 500 368 457 363 476 b 375 556 363 524 367 543 b 388 597 383 570 388 583 b 366 642 388 615 380 630 b 306 660 352 654 331 660 b 240 640 282 660 260 653 b 185 583 219 627 200 608 b 147 487 169 557 156 525 b 132 354 137 448 132 404 b 181 124 132 256 148 179 b 326 42 214 69 263 42 b 390 58 350 42 372 47 b 436 94 409 69 424 81 b 474 147 451 110 463 128 l 500 118 "},"è":{"ha":556,"x_min":0,"x_max":0,"o":"m 501 139 b 449 60 487 109 469 83 b 382 4 431 39 409 21 b 288 -21 355 -12 324 -21 b 192 2 254 -21 222 -13 b 114 71 162 17 136 40 b 60 184 92 101 74 139 b 40 340 47 229 40 281 b 60 496 40 398 47 450 b 113 614 73 542 90 581 b 191 689 135 646 161 671 b 288 715 221 706 253 715 b 447 630 355 715 408 687 b 506 382 486 573 506 490 l 506 354 l 129 354 b 176 137 129 263 145 191 b 318 56 208 83 255 56 b 385 73 343 56 365 61 b 435 111 404 84 421 97 b 476 167 450 128 464 146 l 501 139 m 288 660 b 186 601 249 660 215 640 b 132 424 157 561 139 502 l 397 424 b 415 430 407 424 413 426 b 417 451 416 434 417 441 b 409 531 417 479 414 506 b 385 597 404 556 396 578 b 345 643 375 617 361 632 b 288 660 329 654 310 660 m 99 993 l 233 993 l 313 771 l 278 771 "},"é":{"ha":556,"x_min":0,"x_max":0,"o":"m 501 139 b 449 60 487 109 469 83 b 382 4 431 39 409 21 b 288 -21 355 -12 324 -21 b 192 2 254 -21 222 -13 b 114 71 162 17 136 40 b 60 184 92 101 74 139 b 40 340 47 229 40 281 b 60 496 40 398 47 450 b 113 614 73 542 90 581 b 191 689 135 646 161 671 b 288 715 221 706 253 715 b 447 630 355 715 408 687 b 506 382 486 573 506 490 l 506 354 l 129 354 b 176 137 129 263 145 191 b 318 56 208 83 255 56 b 385 73 343 56 365 61 b 435 111 404 84 421 97 b 476 167 450 128 464 146 l 501 139 m 288 660 b 186 601 249 660 215 640 b 132 424 157 561 139 502 l 397 424 b 415 430 407 424 413 426 b 417 451 416 434 417 441 b 409 531 417 479 414 506 b 385 597 404 556 396 578 b 345 643 375 617 361 632 b 288 660 329 654 310 660 m 442 993 l 307 993 l 228 771 l 263 771 "},"ê":{"ha":556,"x_min":0,"x_max":0,"o":"m 501 139 b 449 60 487 109 469 83 b 382 4 431 39 409 21 b 288 -21 355 -12 324 -21 b 192 2 254 -21 222 -13 b 114 71 162 17 136 40 b 60 184 92 101 74 139 b 40 340 47 229 40 281 b 60 496 40 398 47 450 b 113 614 73 542 90 581 b 191 689 135 646 161 671 b 288 715 221 706 253 715 b 447 630 355 715 408 687 b 506 382 486 573 506 490 l 506 354 l 129 354 b 176 137 129 263 145 191 b 318 56 208 83 255 56 b 385 73 343 56 365 61 b 435 111 404 84 421 97 b 476 167 450 128 464 146 l 501 139 m 288 660 b 186 601 249 660 215 640 b 132 424 157 561 139 502 l 397 424 b 415 430 407 424 413 426 b 417 451 416 434 417 441 b 409 531 417 479 414 506 b 385 597 404 556 396 578 b 345 643 375 617 361 632 b 288 660 329 654 310 660 m 238 993 l 332 993 l 457 771 l 422 771 l 286 903 l 149 771 l 114 771 "},"ë":{"ha":556,"x_min":0,"x_max":0,"o":"m 501 139 b 449 60 487 109 469 83 b 382 4 431 39 409 21 b 288 -21 355 -12 324 -21 b 192 2 254 -21 222 -13 b 114 71 162 17 136 40 b 60 184 92 101 74 139 b 40 340 47 229 40 281 b 60 496 40 398 47 450 b 113 614 73 542 90 581 b 191 689 135 646 161 671 b 288 715 221 706 253 715 b 447 630 355 715 408 687 b 506 382 486 573 506 490 l 506 354 l 129 354 b 176 137 129 263 145 191 b 318 56 208 83 255 56 b 385 73 343 56 365 61 b 435 111 404 84 421 97 b 476 167 450 128 464 146 l 501 139 m 288 660 b 186 601 249 660 215 640 b 132 424 157 561 139 502 l 397 424 b 415 430 407 424 413 426 b 417 451 416 434 417 441 b 409 531 417 479 414 506 b 385 597 404 556 396 578 b 345 643 375 617 361 632 b 288 660 329 654 310 660 m 104 903 b 123 967 104 928 110 949 b 168 993 135 984 150 993 b 215 967 187 993 202 984 b 233 903 227 949 233 928 b 215 839 233 878 227 856 b 168 813 202 821 187 813 b 123 839 150 813 135 821 b 104 903 110 856 104 878 m 342 903 b 360 967 342 928 348 949 b 407 993 373 984 388 993 b 453 967 425 993 441 984 b 471 903 465 949 471 928 b 453 839 471 878 465 856 b 407 813 441 821 425 813 b 360 839 388 813 373 821 b 342 903 348 856 342 878 "},"ì":{"ha":556,"x_min":0,"x_max":0,"o":"m 236 556 b 225 615 236 583 232 603 b 164 632 218 626 197 632 l 114 632 l 114 694 l 125 694 b 207 700 158 694 186 696 b 259 712 228 704 246 708 b 290 724 272 716 283 720 b 308 729 297 727 303 729 b 325 708 319 729 325 722 l 325 139 b 336 80 325 111 329 91 b 397 63 344 68 364 63 l 469 63 l 469 0 l 92 0 l 92 63 l 164 63 b 225 80 197 63 218 68 b 236 139 232 91 236 111 l 236 556 m 69 993 l 219 993 l 308 792 l 269 792 "},"í":{"ha":556,"x_min":0,"x_max":0,"o":"m 236 556 b 225 615 236 583 232 603 b 164 632 218 626 197 632 l 114 632 l 114 694 l 125 694 b 207 700 158 694 186 696 b 259 712 228 704 246 708 b 290 724 272 716 283 720 b 308 729 297 727 303 729 b 325 708 319 729 325 722 l 325 139 b 336 80 325 111 329 91 b 397 63 344 68 364 63 l 469 63 l 469 0 l 92 0 l 92 63 l 164 63 b 225 80 197 63 218 68 b 236 139 232 91 236 111 l 236 556 m 458 993 l 308 993 l 219 785 l 258 785 "},"î":{"ha":556,"x_min":0,"x_max":0,"o":"m 236 556 b 225 615 236 583 232 603 b 164 632 218 626 197 632 l 114 632 l 114 694 l 125 694 b 207 700 158 694 186 696 b 259 712 228 704 246 708 b 290 724 272 716 283 720 b 308 729 297 727 303 729 b 325 708 319 729 325 722 l 325 139 b 336 80 325 111 329 91 b 397 63 344 68 364 63 l 469 63 l 469 0 l 92 0 l 92 63 l 164 63 b 225 80 197 63 218 68 b 236 139 232 91 236 111 l 236 556 m 219 993 l 325 993 l 464 771 l 425 771 l 272 903 l 119 771 l 81 771 "},"ï":{"ha":556,"x_min":0,"x_max":0,"o":"m 236 556 b 225 615 236 583 232 603 b 164 632 218 626 197 632 l 114 632 l 114 694 l 125 694 b 207 700 158 694 186 696 b 259 712 228 704 246 708 b 290 724 272 716 283 720 b 308 729 297 727 303 729 b 325 708 319 729 325 722 l 325 139 b 336 80 325 111 329 91 b 397 63 344 68 364 63 l 469 63 l 469 0 l 92 0 l 92 63 l 164 63 b 225 80 197 63 218 68 b 236 139 232 91 236 111 l 236 556 m 81 944 b 101 1008 81 969 88 991 b 153 1035 115 1026 132 1035 b 204 1008 173 1035 190 1026 b 225 944 218 991 225 969 b 204 881 225 919 218 898 b 153 854 190 863 173 854 b 101 881 132 854 115 863 b 81 944 88 898 81 919 m 303 944 b 324 1008 303 969 310 991 b 375 1035 338 1026 355 1035 b 426 1008 395 1035 413 1026 b 447 944 440 991 447 969 b 426 881 447 919 440 898 b 375 854 413 863 395 854 b 324 881 355 854 338 863 b 303 944 310 898 303 919 "},"ð":{"ha":556,"x_min":0,"x_max":0,"o":"m 214 915 b 158 942 195 926 177 935 b 99 951 139 948 119 951 l 99 993 b 160 985 117 993 138 991 b 231 961 183 980 206 972 l 268 1056 l 300 1028 l 268 942 b 360 869 300 923 330 899 b 440 760 389 840 416 803 b 497 610 463 717 482 667 b 518 417 511 553 518 489 b 498 210 518 335 511 266 b 444 75 484 154 466 109 b 367 1 421 41 395 16 b 278 -21 338 -13 308 -21 b 189 1 247 -21 218 -13 b 112 69 160 16 134 39 b 58 185 89 100 71 138 b 38 347 44 231 38 285 b 56 510 38 410 44 465 b 105 625 68 556 84 594 b 177 693 126 656 150 678 b 264 715 204 708 233 715 b 326 702 288 715 309 711 b 368 674 343 693 357 684 b 400 632 381 662 392 648 l 410 632 b 349 774 398 680 377 728 b 247 892 320 821 286 860 l 206 786 l 174 814 m 128 347 b 140 205 128 292 132 244 b 172 108 147 166 158 133 b 220 52 186 82 202 64 b 278 35 238 41 257 35 b 383 108 319 35 354 59 b 428 347 413 156 428 236 b 383 587 428 458 413 538 b 278 660 354 635 319 660 b 220 642 257 660 238 654 b 172 587 202 631 186 612 b 140 490 158 561 147 529 b 128 347 132 450 128 403 "},"ñ":{"ha":556,"x_min":0,"x_max":0,"o":"m 60 63 b 97 80 78 63 91 68 b 106 139 103 91 106 111 l 106 556 b 97 615 106 583 103 603 b 60 632 91 626 78 632 l 29 632 l 29 694 b 88 698 53 694 73 696 b 124 705 102 700 115 703 b 147 712 134 707 142 709 b 161 715 153 714 157 715 b 174 694 169 715 174 708 l 174 528 l 182 528 b 222 622 193 563 206 594 b 273 686 235 645 252 667 b 347 715 294 706 319 715 b 437 660 390 715 420 697 b 463 500 454 623 463 569 l 463 139 b 472 80 463 111 466 91 b 508 63 478 68 490 63 l 539 63 l 539 0 l 318 0 l 318 63 l 347 63 b 385 80 367 63 379 68 b 394 139 391 91 394 111 l 394 458 b 314 632 394 574 368 632 b 262 609 296 632 279 624 b 217 543 245 594 230 572 b 185 438 204 514 193 479 b 174 299 178 397 174 350 l 174 139 b 183 80 174 111 177 91 b 221 63 189 68 201 63 l 250 63 l 250 0 l 29 0 l 29 63 m 300 954 b 364 919 327 931 348 919 b 393 935 376 919 386 925 b 415 978 400 945 408 959 l 422 993 l 447 969 l 426 911 b 344 815 405 847 378 815 b 268 854 324 815 299 828 b 204 889 241 877 220 889 b 151 831 185 889 167 869 l 146 815 l 121 839 l 140 897 b 224 993 162 961 189 993 b 300 954 244 993 269 980 "},"ò":{"ha":556,"x_min":0,"x_max":0,"o":"m 428 347 b 416 496 428 406 424 456 b 383 592 408 536 397 568 b 335 644 369 617 353 634 b 278 660 317 655 298 660 b 220 644 257 660 238 655 b 172 592 202 634 186 617 b 140 496 158 568 147 536 b 128 347 132 456 128 406 b 140 199 128 288 132 238 b 172 103 147 159 158 127 b 220 51 186 79 202 61 b 278 35 238 40 257 35 b 335 51 298 35 317 40 b 383 103 353 61 369 79 b 416 199 397 127 408 159 b 428 347 424 238 428 288 m 518 347 b 498 187 518 286 511 233 b 444 72 484 141 466 103 b 367 3 421 42 395 19 b 278 -21 338 -13 308 -21 b 189 3 247 -21 218 -13 b 112 72 160 19 134 42 b 58 187 89 103 71 141 b 38 347 44 233 38 286 b 58 508 38 408 44 462 b 112 622 71 553 89 592 b 189 692 134 653 160 676 b 278 715 218 707 247 715 b 367 692 308 715 338 707 b 444 622 395 676 421 653 b 498 508 466 592 484 553 b 518 347 511 462 518 408 m 94 993 l 221 993 l 297 771 l 264 771 "},"ó":{"ha":556,"x_min":0,"x_max":0,"o":"m 128 347 b 140 199 128 288 132 238 b 172 103 147 159 158 127 b 220 51 186 79 202 61 b 278 35 238 40 257 35 b 335 51 298 35 317 40 b 383 103 353 61 369 79 b 416 199 397 127 408 159 b 428 347 424 238 428 288 b 416 496 428 406 424 456 b 383 592 408 536 397 568 b 335 644 369 617 353 634 b 278 660 317 655 298 660 b 220 644 257 660 238 655 b 172 592 202 634 186 617 b 140 496 158 568 147 536 b 128 347 132 456 128 406 m 38 347 b 58 508 38 408 44 462 b 112 622 71 553 89 592 b 189 692 134 653 160 676 b 278 715 218 707 247 715 b 367 692 308 715 338 707 b 444 622 395 676 421 653 b 498 508 466 592 484 553 b 518 347 511 462 518 408 b 498 187 518 286 511 233 b 444 72 484 141 466 103 b 367 3 421 42 395 19 b 278 -21 338 -13 308 -21 b 189 3 247 -21 218 -13 b 112 72 160 19 134 42 b 58 187 89 103 71 141 b 38 347 44 233 38 286 m 335 993 l 461 993 l 292 771 l 258 771 "},"ô":{"ha":556,"x_min":0,"x_max":0,"o":"m 128 347 b 140 199 128 288 132 238 b 172 103 147 159 158 127 b 220 51 186 79 202 61 b 278 35 238 40 257 35 b 335 51 298 35 317 40 b 383 103 353 61 369 79 b 416 199 397 127 408 159 b 428 347 424 238 428 288 b 416 496 428 406 424 456 b 383 592 408 536 397 568 b 335 644 369 617 353 634 b 278 660 317 655 298 660 b 220 644 257 660 238 655 b 172 592 202 634 186 617 b 140 496 158 568 147 536 b 128 347 132 456 128 406 m 38 347 b 58 508 38 408 44 462 b 112 622 71 553 89 592 b 189 692 134 653 160 676 b 278 715 218 707 247 715 b 367 692 308 715 338 707 b 444 622 395 676 421 653 b 498 508 466 592 484 553 b 518 347 511 462 518 408 b 498 187 518 286 511 233 b 444 72 484 141 466 103 b 367 3 421 42 395 19 b 278 -21 338 -13 308 -21 b 189 3 247 -21 218 -13 b 112 72 160 19 134 42 b 58 187 89 103 71 141 b 38 347 44 233 38 286 m 278 903 l 407 771 l 440 771 l 322 993 l 232 993 l 115 771 l 147 771 "},"õ":{"ha":556,"x_min":0,"x_max":0,"o":"m 428 347 b 416 496 428 406 424 456 b 383 592 408 536 397 568 b 335 644 369 617 353 634 b 278 660 317 655 298 660 b 220 644 257 660 238 655 b 172 592 202 634 186 617 b 140 496 158 568 147 536 b 128 347 132 456 128 406 b 140 199 128 288 132 238 b 172 103 147 159 158 127 b 220 51 186 79 202 61 b 278 35 238 40 257 35 b 335 51 298 35 317 40 b 383 103 353 61 369 79 b 416 199 397 127 408 159 b 428 347 424 238 428 288 m 518 347 b 498 187 518 286 511 233 b 444 72 484 141 466 103 b 367 3 421 42 395 19 b 278 -21 338 -13 308 -21 b 189 3 247 -21 218 -13 b 112 72 160 19 134 42 b 58 187 89 103 71 141 b 38 347 44 233 38 286 b 58 508 38 408 44 462 b 112 622 71 553 89 592 b 189 692 134 653 160 676 b 278 715 218 707 247 715 b 367 692 308 715 338 707 b 444 622 395 676 421 653 b 498 508 466 592 484 553 b 518 347 511 462 518 408 m 304 954 b 375 919 334 931 357 919 b 408 935 388 919 399 925 b 433 978 416 945 425 959 l 440 993 l 468 969 l 446 911 b 354 815 422 847 391 815 b 269 854 331 815 303 828 b 199 889 240 877 216 889 b 166 874 186 889 175 884 b 140 831 157 863 149 849 l 133 815 l 106 839 l 128 897 b 219 993 152 961 182 993 b 304 954 243 993 271 980 "},"ö":{"ha":556,"x_min":0,"x_max":0,"o":"m 428 347 b 416 496 428 406 424 456 b 383 592 408 536 397 568 b 335 644 369 617 353 634 b 278 660 317 655 298 660 b 220 644 257 660 238 655 b 172 592 202 634 186 617 b 140 496 158 568 147 536 b 128 347 132 456 128 406 b 140 199 128 288 132 238 b 172 103 147 159 158 127 b 220 51 186 79 202 61 b 278 35 238 40 257 35 b 335 51 298 35 317 40 b 383 103 353 61 369 79 b 416 199 397 127 408 159 b 428 347 424 238 428 288 m 518 347 b 498 187 518 286 511 233 b 444 72 484 141 466 103 b 367 3 421 42 395 19 b 278 -21 338 -13 308 -21 b 189 3 247 -21 218 -13 b 112 72 160 19 134 42 b 58 187 89 103 71 141 b 38 347 44 233 38 286 b 58 508 38 408 44 462 b 112 622 71 553 89 592 b 189 692 134 653 160 676 b 278 715 218 707 247 715 b 367 692 308 715 338 707 b 444 622 395 676 421 653 b 498 508 466 592 484 553 b 518 347 511 462 518 408 m 325 903 b 343 967 325 928 331 949 b 386 993 355 984 369 993 b 429 967 403 993 417 984 b 447 903 441 949 447 928 b 429 839 447 878 441 856 b 386 813 417 821 403 813 b 343 839 369 813 355 821 b 325 903 331 856 325 878 m 108 903 b 126 967 108 928 114 949 b 169 993 138 984 153 993 b 213 967 186 993 200 984 b 231 903 225 949 231 928 b 213 839 231 878 225 856 b 169 813 200 821 186 813 b 126 839 153 813 138 821 b 108 903 114 856 108 878 "},"÷":{"ha":556,"x_min":0,"x_max":0,"o":"m 218 694 b 235 758 218 719 224 741 b 278 785 247 776 261 785 b 320 758 294 785 309 776 b 338 694 332 741 338 719 b 320 631 338 669 332 648 b 278 604 309 613 294 604 b 235 631 261 604 247 613 b 218 694 224 648 218 669 m 218 208 b 235 272 218 233 224 255 b 278 299 247 290 261 299 b 320 272 294 299 309 290 b 338 208 332 255 338 233 b 320 144 338 183 332 162 b 278 118 309 127 294 118 b 235 144 261 118 247 127 b 218 208 224 162 218 183 m 482 486 l 482 417 l 74 417 l 74 486 "},"ø":{"ha":556,"x_min":0,"x_max":0,"o":"m 100 93 b 57 202 81 124 67 160 b 42 347 47 244 42 293 b 62 508 42 408 48 462 b 115 622 75 553 93 592 b 190 692 136 653 161 676 b 278 715 218 707 247 715 b 353 699 304 715 329 710 b 419 649 377 688 399 671 l 458 715 l 493 669 l 454 601 b 498 492 473 571 487 534 b 514 347 509 450 514 402 b 494 187 514 286 507 233 b 441 72 480 141 463 103 b 366 3 419 42 394 19 b 278 -21 338 -13 308 -21 b 135 46 224 -21 176 1 l 96 -21 l 61 25 m 426 347 b 422 444 426 383 425 416 b 408 521 418 473 414 499 l 171 108 b 219 51 185 81 201 63 b 278 35 237 40 256 35 b 334 51 297 35 316 40 b 382 103 352 61 368 79 b 415 199 396 127 407 159 b 426 347 422 238 426 288 m 129 347 b 134 250 129 311 131 279 b 147 174 137 221 142 196 l 385 586 b 336 643 371 613 355 632 b 278 660 318 654 298 660 b 222 644 258 660 240 655 b 174 592 203 634 188 617 b 141 496 160 568 149 536 b 129 347 133 456 129 406 "},"ù":{"ha":556,"x_min":0,"x_max":0,"o":"m 451 139 b 460 80 451 111 454 91 b 499 63 466 68 479 63 l 529 63 l 529 0 b 470 -2 505 0 485 -1 b 433 -7 455 -3 442 -5 b 410 -12 423 -9 415 -10 b 394 -14 404 -13 399 -14 b 382 7 386 -14 382 -7 l 382 167 l 374 167 b 329 74 362 131 347 100 b 276 8 315 50 298 28 b 204 -21 255 -11 231 -21 b 116 35 165 -21 136 -2 b 86 194 96 72 86 125 l 86 556 b 77 615 86 583 83 603 b 39 632 71 626 58 632 l 8 632 l 8 694 b 67 698 32 694 52 696 b 105 705 83 700 95 703 b 128 712 115 707 122 709 b 143 715 134 714 139 715 b 156 694 151 715 156 708 l 156 236 b 172 105 156 177 161 133 b 231 63 182 77 202 63 b 281 83 246 63 263 69 b 331 142 299 96 316 116 b 367 235 345 168 358 199 b 382 361 377 272 382 314 l 382 556 b 373 615 382 583 379 603 b 335 632 367 626 354 632 l 304 632 l 304 694 b 401 705 351 694 384 698 b 439 715 418 712 431 715 b 451 694 447 715 451 708 l 451 139 m 92 993 l 208 993 l 278 771 l 247 771 "},"ú":{"ha":556,"x_min":0,"x_max":0,"o":"m 451 139 b 460 80 451 111 454 91 b 499 63 466 68 479 63 l 529 63 l 529 0 b 470 -2 505 0 485 -1 b 433 -7 455 -3 442 -5 b 410 -12 423 -9 415 -10 b 394 -14 404 -13 399 -14 b 382 7 386 -14 382 -7 l 382 167 l 374 167 b 329 74 362 131 347 100 b 276 8 315 50 298 28 b 204 -21 255 -11 231 -21 b 116 35 165 -21 136 -2 b 86 194 96 72 86 125 l 86 556 b 77 615 86 583 83 603 b 39 632 71 626 58 632 l 8 632 l 8 694 b 67 698 32 694 52 696 b 105 705 83 700 95 703 b 128 712 115 707 122 709 b 143 715 134 714 139 715 b 156 694 151 715 156 708 l 156 236 b 172 105 156 177 161 133 b 231 63 182 77 202 63 b 281 83 246 63 263 69 b 331 142 299 96 316 116 b 367 235 345 168 358 199 b 382 361 377 272 382 314 l 382 556 b 373 615 382 583 379 603 b 335 632 367 626 354 632 l 304 632 l 304 694 b 401 705 351 694 384 698 b 439 715 418 712 431 715 b 451 694 447 715 451 708 l 451 139 m 404 993 l 286 993 l 217 771 l 247 771 "},"û":{"ha":556,"x_min":0,"x_max":0,"o":"m 451 139 b 460 80 451 111 454 91 b 499 63 466 68 479 63 l 529 63 l 529 0 b 470 -2 505 0 485 -1 b 433 -7 455 -3 442 -5 b 410 -12 423 -9 415 -10 b 394 -14 404 -13 399 -14 b 382 7 386 -14 382 -7 l 382 167 l 374 167 b 329 74 362 131 347 100 b 276 8 315 50 298 28 b 204 -21 255 -11 231 -21 b 116 35 165 -21 136 -2 b 86 194 96 72 86 125 l 86 556 b 77 615 86 583 83 603 b 39 632 71 626 58 632 l 8 632 l 8 694 b 67 698 32 694 52 696 b 105 705 83 700 95 703 b 128 712 115 707 122 709 b 143 715 134 714 139 715 b 156 694 151 715 156 708 l 156 236 b 172 105 156 177 161 133 b 231 63 182 77 202 63 b 281 83 246 63 263 69 b 331 142 299 96 316 116 b 367 235 345 168 358 199 b 382 361 377 272 382 314 l 382 556 b 373 615 382 583 379 603 b 335 632 367 626 354 632 l 304 632 l 304 694 b 401 705 351 694 384 698 b 439 715 418 712 431 715 b 451 694 447 715 451 708 l 451 139 m 221 993 l 304 993 l 413 771 l 382 771 l 263 903 l 143 771 l 113 771 "},"ü":{"ha":556,"x_min":0,"x_max":0,"o":"m 451 139 b 460 80 451 111 454 91 b 499 63 466 68 479 63 l 529 63 l 529 0 b 470 -2 505 0 485 -1 b 433 -7 455 -3 442 -5 b 410 -12 423 -9 415 -10 b 394 -14 404 -13 399 -14 b 382 7 386 -14 382 -7 l 382 167 l 374 167 b 329 74 362 131 347 100 b 276 8 315 50 298 28 b 204 -21 255 -11 231 -21 b 116 35 165 -21 136 -2 b 86 194 96 72 86 125 l 86 556 b 77 615 86 583 83 603 b 39 632 71 626 58 632 l 8 632 l 8 694 b 67 698 32 694 52 696 b 105 705 83 700 95 703 b 128 712 115 707 122 709 b 143 715 134 714 139 715 b 156 694 151 715 156 708 l 156 236 b 172 105 156 177 161 133 b 231 63 182 77 202 63 b 281 83 246 63 263 69 b 331 142 299 96 316 116 b 367 235 345 168 358 199 b 382 361 377 272 382 314 l 382 556 b 373 615 382 583 379 603 b 335 632 367 626 354 632 l 304 632 l 304 694 b 401 705 351 694 384 698 b 439 715 418 712 431 715 b 451 694 447 715 451 708 l 451 139 m 290 903 b 307 967 290 928 296 949 b 347 993 318 984 331 993 b 388 967 363 993 376 984 b 404 903 399 949 404 928 b 388 839 404 878 399 856 b 347 813 376 821 363 813 b 307 839 331 813 318 821 b 290 903 296 856 290 878 m 100 903 b 116 967 100 928 105 949 b 156 993 127 984 140 993 b 196 967 171 993 185 984 b 213 903 207 949 213 928 b 196 839 213 878 207 856 b 156 813 185 821 171 813 b 116 839 140 813 127 821 b 100 903 105 856 100 878 "},"ý":{"ha":556,"x_min":0,"x_max":0,"o":"m 315 0 b 278 -126 302 -47 290 -89 b 242 -220 267 -163 255 -195 b 199 -278 229 -246 214 -265 b 143 -299 183 -292 164 -299 b 94 -283 124 -299 107 -294 b 61 -244 80 -273 69 -260 b 43 -193 53 -229 47 -212 b 38 -139 39 -175 38 -156 b 56 -54 38 -100 44 -72 b 94 -28 68 -37 81 -28 b 127 -47 108 -28 119 -34 b 139 -97 135 -59 139 -76 b 133 -138 139 -115 137 -128 b 118 -162 128 -148 124 -156 b 103 -178 113 -168 108 -173 b 97 -194 99 -182 97 -188 b 107 -223 97 -205 100 -214 b 139 -236 113 -232 124 -236 b 208 -182 167 -236 190 -218 b 264 -21 227 -146 245 -92 l 274 14 l 97 556 b 67 617 87 587 77 608 b 21 632 58 627 42 632 l 13 632 l 13 694 l 222 694 l 222 632 l 201 632 b 174 626 189 632 180 630 b 164 601 167 622 164 613 b 172 563 164 592 167 579 l 307 144 l 408 539 b 417 593 414 563 417 581 b 404 626 417 611 413 622 b 371 632 396 630 385 632 l 358 632 l 358 694 l 547 694 l 547 632 l 535 632 b 485 616 512 632 495 627 b 458 556 475 605 466 585 l 315 0 m 442 993 l 328 993 l 261 771 l 290 771 "},"þ":{"ha":556,"x_min":0,"x_max":0,"o":"m 93 833 b 85 892 93 861 90 881 b 36 910 79 904 63 910 l 8 910 l 8 972 l 14 972 b 74 978 38 972 58 974 b 113 990 89 981 102 985 b 137 1001 123 994 131 998 b 151 1007 143 1005 148 1007 b 164 986 160 1007 164 1000 l 164 632 b 167 604 164 618 165 609 b 174 597 170 600 172 597 b 188 616 176 597 181 603 b 214 656 194 628 203 642 b 256 697 225 671 239 684 b 319 715 273 709 294 715 b 463 617 378 715 426 683 b 519 347 501 552 519 462 b 505 202 519 295 515 247 b 463 85 495 157 481 118 b 400 8 445 53 424 27 b 319 -21 376 -11 349 -21 b 256 -2 294 -21 273 -15 b 214 38 239 10 225 24 b 188 78 203 53 194 66 b 174 97 181 91 176 97 b 167 90 172 97 170 95 b 164 63 165 86 164 76 l 164 -139 b 173 -198 164 -167 167 -186 b 222 -215 179 -209 195 -215 l 271 -215 l 271 -278 l 14 -278 l 14 -215 l 44 -215 b 84 -198 65 -215 78 -209 b 93 -139 90 -186 93 -167 l 93 833 m 436 347 b 402 565 436 438 425 510 b 297 646 379 619 344 646 b 241 624 277 646 258 638 b 197 562 224 609 209 588 b 169 467 185 535 176 504 b 160 347 163 431 160 391 b 169 227 160 304 163 264 b 197 133 176 191 185 159 b 241 71 209 106 224 86 b 297 49 258 56 277 49 b 402 130 344 49 379 76 b 436 347 425 184 436 256 "},"ÿ":{"ha":556,"x_min":0,"x_max":0,"o":"m 315 0 b 278 -126 302 -47 290 -89 b 242 -220 267 -163 255 -195 b 199 -278 229 -246 214 -265 b 143 -299 183 -292 164 -299 b 94 -283 124 -299 107 -294 b 61 -244 80 -273 69 -260 b 43 -193 53 -229 47 -212 b 38 -139 39 -175 38 -156 b 56 -54 38 -100 44 -72 b 94 -28 68 -37 81 -28 b 127 -47 108 -28 119 -34 b 139 -97 135 -59 139 -76 b 133 -138 139 -115 137 -128 b 118 -162 128 -148 124 -156 b 103 -178 113 -168 108 -173 b 97 -194 99 -182 97 -188 b 107 -223 97 -205 100 -214 b 139 -236 113 -232 124 -236 b 208 -182 167 -236 190 -218 b 264 -21 227 -146 245 -92 l 274 14 l 97 556 b 67 617 87 587 77 608 b 21 632 58 627 42 632 l 13 632 l 13 694 l 222 694 l 222 632 l 201 632 b 174 626 189 632 180 630 b 164 601 167 622 164 613 b 172 563 164 592 167 579 l 307 144 l 408 539 b 417 593 414 563 417 581 b 404 626 417 611 413 622 b 371 632 396 630 385 632 l 358 632 l 358 694 l 547 694 l 547 632 l 535 632 b 485 616 512 632 495 627 b 458 556 475 605 466 585 l 315 0 m 139 903 b 155 967 139 928 144 949 b 193 993 166 984 178 993 b 233 967 209 993 222 984 b 249 903 243 949 249 928 b 233 839 249 878 243 856 b 193 813 222 821 209 813 b 155 839 178 813 166 821 b 139 903 144 856 139 878 m 332 903 b 348 967 332 928 337 949 b 388 993 359 984 372 993 b 426 967 403 993 416 984 b 442 903 437 949 442 928 b 426 839 442 878 437 856 b 388 813 416 821 403 813 b 348 839 372 813 359 821 b 332 903 337 856 332 878 "},"Ā":{"ha":556,"x_min":0,"x_max":0,"o":"m 14 63 b 64 88 37 63 54 71 b 94 181 74 105 84 136 l 260 917 l 296 917 l 461 181 b 490 88 471 136 481 105 b 544 63 498 71 517 63 l 549 63 l 549 0 l 342 0 l 342 63 l 349 63 b 406 113 387 63 406 79 b 394 181 406 126 402 149 l 372 278 l 156 278 l 133 181 b 124 111 127 154 124 131 b 136 74 124 94 128 81 b 179 63 144 66 159 63 l 186 63 l 186 0 l 7 0 l 7 63 m 358 340 l 264 760 l 169 340 m 411 1111 l 411 1042 l 147 1042 l 147 1111 "},"ā":{"ha":556,"x_min":0,"x_max":0,"o":"m 347 153 b 319 88 339 131 330 109 b 285 32 309 66 298 48 b 240 -6 272 16 257 3 b 179 -21 222 -16 202 -21 b 93 19 141 -21 113 -7 b 64 118 74 46 64 79 b 89 224 64 158 72 193 b 154 306 106 255 127 283 b 247 369 181 330 212 351 b 353 417 281 387 317 403 l 353 465 b 321 617 353 538 342 589 b 233 660 300 646 270 660 b 190 649 217 660 202 656 b 157 624 177 642 166 634 b 136 592 148 615 141 604 b 129 563 131 581 129 571 b 133 537 129 552 131 544 l 142 516 b 150 492 144 509 147 501 b 154 458 153 484 154 472 b 139 408 154 437 149 420 b 103 389 129 395 117 389 b 60 414 85 389 71 397 b 44 482 50 431 44 453 b 62 573 44 514 50 545 b 108 647 73 601 89 626 b 175 697 128 669 150 685 b 253 715 200 709 226 715 b 343 694 290 715 320 708 b 398 638 366 681 384 662 b 425 554 411 615 420 587 b 432 451 430 522 432 488 l 432 125 b 436 78 432 104 433 88 b 454 63 439 68 445 63 b 492 174 479 63 492 100 l 492 181 l 526 181 l 526 160 b 517 70 526 124 523 94 b 494 15 511 47 503 28 b 461 -13 484 1 473 -8 b 426 -21 449 -18 438 -21 b 373 6 404 -21 386 -12 b 353 90 359 23 353 51 l 353 153 m 353 368 b 214 283 297 347 251 318 b 158 146 177 247 158 201 b 174 83 158 122 164 101 b 224 56 185 65 201 56 b 267 73 238 56 252 61 b 308 126 281 84 295 102 b 340 217 321 149 332 180 b 353 347 349 254 353 297 l 353 368 m 411 903 l 411 833 l 99 833 l 99 903 "},"Ă":{"ha":556,"x_min":0,"x_max":0,"o":"m 14 63 b 64 88 37 63 54 71 b 94 181 74 105 84 136 l 260 917 l 296 917 l 461 181 b 490 88 471 136 481 105 b 544 63 498 71 517 63 l 549 63 l 549 0 l 342 0 l 342 63 l 349 63 b 406 113 387 63 406 79 b 394 181 406 126 402 149 l 372 278 l 156 278 l 133 181 b 124 111 127 154 124 131 b 136 74 124 94 128 81 b 179 63 144 66 159 63 l 186 63 l 186 0 l 7 0 l 7 63 m 358 340 l 264 760 l 169 340 m 274 993 b 213 1021 249 993 228 1002 b 179 1083 198 1039 187 1060 b 165 1151 172 1106 167 1129 b 161 1194 162 1174 161 1188 l 179 1194 b 193 1146 181 1176 186 1160 b 222 1113 200 1134 209 1123 b 274 1097 234 1102 251 1097 b 327 1113 297 1097 315 1102 b 356 1146 340 1123 349 1134 b 369 1194 363 1160 368 1176 l 386 1194 b 383 1151 386 1188 385 1174 b 369 1083 381 1129 377 1106 b 335 1021 361 1060 350 1039 b 274 993 320 1002 300 993 "},"ă":{"ha":556,"x_min":0,"x_max":0,"o":"m 347 153 b 319 88 339 131 330 109 b 285 32 309 66 298 48 b 240 -6 272 16 257 3 b 179 -21 222 -16 202 -21 b 93 19 141 -21 113 -7 b 64 118 74 46 64 79 b 89 224 64 158 72 193 b 154 306 106 255 127 283 b 247 369 181 330 212 351 b 353 417 281 387 317 403 l 353 465 b 321 617 353 538 342 589 b 233 660 300 646 270 660 b 190 649 217 660 202 656 b 157 624 177 642 166 634 b 136 592 148 615 141 604 b 129 563 131 581 129 571 b 133 537 129 552 131 544 l 142 516 b 150 492 144 509 147 501 b 154 458 153 484 154 472 b 139 408 154 437 149 420 b 103 389 129 395 117 389 b 60 414 85 389 71 397 b 44 482 50 431 44 453 b 62 573 44 514 50 545 b 108 647 73 601 89 626 b 175 697 128 669 150 685 b 253 715 200 709 226 715 b 343 694 290 715 320 708 b 398 638 366 681 384 662 b 425 554 411 615 420 587 b 432 451 430 522 432 488 l 432 125 b 436 78 432 104 433 88 b 454 63 439 68 445 63 b 492 174 479 63 492 100 l 492 181 l 526 181 l 526 160 b 517 70 526 124 523 94 b 494 15 511 47 503 28 b 461 -13 484 1 473 -8 b 426 -21 449 -18 438 -21 b 373 6 404 -21 386 -12 b 353 90 359 23 353 51 l 353 153 m 353 368 b 214 283 297 347 251 318 b 158 146 177 247 158 201 b 174 83 158 122 164 101 b 224 56 185 65 201 56 b 267 73 238 56 252 61 b 308 126 281 84 295 102 b 340 217 321 149 332 180 b 353 347 349 254 353 297 l 353 368 m 249 778 b 169 804 215 778 189 787 b 123 865 149 822 134 842 b 103 931 112 887 106 909 b 99 972 100 952 99 966 l 124 972 b 142 924 125 954 131 938 b 179 890 150 912 163 900 b 249 875 196 880 219 875 b 318 890 278 875 301 880 b 354 924 335 900 347 912 b 372 972 364 938 370 954 l 397 972 b 393 931 397 966 396 952 b 373 865 390 909 384 887 b 328 804 362 842 347 822 b 249 778 308 787 282 778 "},"Ą":{"ha":556,"x_min":0,"x_max":0,"o":"m 14 63 b 64 88 37 63 54 71 b 94 181 74 105 84 136 l 260 917 l 296 917 l 461 181 b 490 88 471 136 481 105 b 544 63 498 71 517 63 l 549 63 l 549 0 l 474 0 l 467 -6 b 452 -26 462 -10 457 -17 b 438 -60 447 -34 442 -46 b 432 -111 434 -74 432 -91 b 444 -174 432 -139 436 -160 b 471 -194 452 -187 461 -194 b 492 -184 480 -194 487 -191 b 504 -160 497 -177 501 -169 b 510 -125 507 -150 509 -138 l 524 -125 b 514 -206 523 -155 519 -181 b 494 -260 509 -225 503 -243 b 457 -285 485 -276 473 -285 b 411 -249 438 -285 422 -273 b 394 -160 400 -225 394 -195 b 403 -91 394 -134 397 -111 b 421 -40 408 -71 414 -54 b 447 0 428 -25 437 -11 l 342 0 l 342 63 l 349 63 b 406 113 387 63 406 79 b 394 181 406 126 402 149 l 372 278 l 156 278 l 133 181 b 124 111 127 154 124 131 b 136 74 124 94 128 81 b 179 63 144 66 159 63 l 186 63 l 186 0 l 7 0 l 7 63 m 358 340 l 264 760 l 169 340 "},"ą":{"ha":556,"x_min":0,"x_max":0,"o":"m 347 153 b 319 88 339 131 330 109 b 285 32 309 66 298 48 b 240 -6 272 16 257 3 b 179 -21 222 -16 202 -21 b 93 19 141 -21 113 -7 b 64 118 74 46 64 79 b 89 224 64 158 72 193 b 154 306 106 255 127 283 b 247 369 181 330 212 351 b 353 417 281 387 317 403 l 353 465 b 321 617 353 538 342 589 b 233 660 300 646 270 660 b 190 649 217 660 202 656 b 157 624 177 642 166 634 b 136 592 148 615 141 604 b 129 563 131 581 129 571 b 133 537 129 552 131 544 l 142 516 b 150 492 144 509 147 501 b 154 458 153 484 154 472 b 139 408 154 437 149 420 b 103 389 129 395 117 389 b 60 414 85 389 71 397 b 44 482 50 431 44 453 b 62 573 44 514 50 545 b 108 647 73 601 89 626 b 175 697 128 669 150 685 b 253 715 200 709 226 715 b 343 694 290 715 320 708 b 398 638 366 681 384 662 b 425 554 411 615 420 587 b 432 451 430 522 432 488 l 432 125 b 436 78 432 104 433 88 b 454 63 439 68 445 63 b 492 174 479 63 492 100 l 492 181 l 526 181 l 526 160 b 517 70 526 124 523 94 b 494 15 511 47 503 28 b 461 -13 484 1 473 -8 b 426 -21 449 -18 438 -21 b 407 -18 421 -21 414 -20 b 383 -53 399 -26 391 -38 b 372 -111 376 -68 372 -87 b 388 -174 372 -139 378 -160 b 426 -194 399 -187 412 -194 b 456 -184 439 -194 449 -191 b 472 -160 463 -177 469 -169 b 481 -125 477 -150 480 -138 l 501 -125 b 488 -206 500 -155 495 -181 b 459 -260 481 -225 472 -243 b 407 -285 447 -276 429 -285 b 342 -249 380 -285 359 -273 b 318 -160 326 -225 318 -195 b 326 -102 318 -138 321 -119 b 344 -58 331 -85 337 -70 b 365 -26 351 -45 358 -34 b 383 -6 373 -17 379 -10 b 353 90 363 10 353 42 l 353 153 m 353 368 b 214 283 297 347 251 318 b 158 146 177 247 158 201 b 174 83 158 122 164 101 b 224 56 185 65 201 56 b 267 73 238 56 252 61 b 308 126 281 84 295 102 b 340 217 321 149 332 180 b 353 347 349 254 353 297 l 353 368 "},"Ć":{"ha":556,"x_min":0,"x_max":0,"o":"m 35 451 b 55 649 35 525 41 590 b 110 797 68 707 87 756 b 192 891 133 838 160 869 b 293 924 223 913 257 924 b 351 913 315 924 335 920 b 395 889 368 905 383 897 b 426 865 408 881 418 873 b 446 854 435 858 441 854 b 457 866 451 854 455 858 b 460 910 459 874 460 888 l 460 917 l 494 917 l 494 549 l 464 549 b 453 656 462 584 459 620 b 427 757 448 693 440 726 b 376 832 415 788 398 813 b 293 861 355 851 327 861 b 222 838 267 861 244 853 b 167 766 201 823 183 799 b 131 639 152 733 140 691 b 118 451 122 587 118 525 b 169 151 118 315 135 215 b 308 56 203 88 249 56 b 389 85 340 56 367 65 b 443 150 411 104 429 126 b 483 243 460 177 473 208 l 510 215 b 460 97 497 171 480 131 b 395 16 443 68 422 41 b 297 -21 369 -9 336 -21 b 192 12 259 -21 224 -10 b 108 106 159 34 131 65 b 54 254 85 146 67 196 b 35 451 41 313 35 378 m 418 1194 l 315 1194 l 256 972 l 282 972 "},"ć":{"ha":556,"x_min":0,"x_max":0,"o":"m 500 118 b 451 49 487 92 471 69 b 388 1 435 31 414 15 b 296 -21 363 -14 332 -21 b 198 1 262 -21 229 -13 b 117 69 167 16 140 39 b 61 185 94 100 75 138 b 40 347 47 231 40 285 b 59 490 40 397 47 445 b 112 607 72 534 89 574 b 194 686 134 640 162 667 b 301 715 226 706 262 715 b 435 663 355 715 400 698 b 489 528 471 628 489 583 b 474 458 489 504 484 480 b 424 424 463 435 447 424 b 380 444 406 424 391 430 b 363 500 368 457 363 476 b 375 556 363 524 367 543 b 388 597 383 570 388 583 b 366 642 388 615 380 630 b 306 660 352 654 331 660 b 240 640 282 660 260 653 b 185 583 219 627 200 608 b 147 487 169 557 156 525 b 132 354 137 448 132 404 b 181 124 132 256 148 179 b 326 42 214 69 263 42 b 390 58 350 42 372 47 b 436 94 409 69 424 81 b 474 147 451 110 463 128 l 500 118 m 454 993 l 317 993 l 235 771 l 269 771 "},"Č":{"ha":556,"x_min":0,"x_max":0,"o":"m 35 451 b 55 649 35 525 41 590 b 110 797 68 707 87 756 b 192 891 133 838 160 869 b 293 924 223 913 257 924 b 351 913 315 924 335 920 b 395 889 368 905 383 897 b 426 865 408 881 418 873 b 446 854 435 858 441 854 b 457 866 451 854 455 858 b 460 910 459 874 460 888 l 460 917 l 494 917 l 494 549 l 464 549 b 453 656 462 584 459 620 b 427 757 448 693 440 726 b 376 832 415 788 398 813 b 293 861 355 851 327 861 b 222 838 267 861 244 853 b 167 766 201 823 183 799 b 131 639 152 733 140 691 b 118 451 122 587 118 525 b 169 151 118 315 135 215 b 308 56 203 88 249 56 b 389 85 340 56 367 65 b 443 150 411 104 429 126 b 483 243 460 177 473 208 l 510 215 b 460 97 497 171 480 131 b 395 16 443 68 422 41 b 297 -21 369 -9 336 -21 b 192 12 259 -21 224 -10 b 108 106 159 34 131 65 b 54 254 85 146 67 196 b 35 451 41 313 35 378 m 324 972 l 251 972 l 149 1194 l 175 1194 l 288 1069 l 400 1194 l 426 1194 "},"č":{"ha":556,"x_min":0,"x_max":0,"o":"m 500 118 b 451 49 487 92 471 69 b 388 1 435 31 414 15 b 296 -21 363 -14 332 -21 b 198 1 262 -21 229 -13 b 117 69 167 16 140 39 b 61 185 94 100 75 138 b 40 347 47 231 40 285 b 59 490 40 397 47 445 b 112 607 72 534 89 574 b 194 686 134 640 162 667 b 301 715 226 706 262 715 b 435 663 355 715 400 698 b 489 528 471 628 489 583 b 474 458 489 504 484 480 b 424 424 463 435 447 424 b 380 444 406 424 391 430 b 363 500 368 457 363 476 b 375 556 363 524 367 543 b 388 597 383 570 388 583 b 366 642 388 615 380 630 b 306 660 352 654 331 660 b 240 640 282 660 260 653 b 185 583 219 627 200 608 b 147 487 169 557 156 525 b 132 354 137 448 132 404 b 181 124 132 256 148 179 b 326 42 214 69 263 42 b 390 58 350 42 372 47 b 436 94 409 69 424 81 b 474 147 451 110 463 128 l 500 118 m 336 771 l 239 771 l 113 993 l 147 993 l 288 861 l 428 993 l 464 993 "},"Ď":{"ha":556,"x_min":0,"x_max":0,"o":"m 524 451 b 502 243 524 370 516 300 b 444 103 488 186 468 139 b 360 24 419 67 391 41 b 261 0 328 8 295 0 l 29 0 l 29 63 l 36 63 b 97 85 67 63 87 70 b 111 181 106 101 111 132 l 111 722 b 108 781 111 746 110 766 b 97 817 106 797 103 809 b 74 835 92 826 84 832 b 36 840 65 839 52 840 l 29 840 l 29 903 l 261 903 b 360 878 295 903 328 895 b 444 800 391 862 419 836 b 502 660 468 764 488 717 b 524 451 516 602 524 533 m 175 181 b 178 122 175 156 176 137 b 190 88 181 107 185 96 b 214 73 196 80 204 75 b 251 69 224 71 237 69 l 258 69 b 328 85 282 69 306 75 b 388 144 350 96 370 116 b 429 260 405 172 419 211 b 444 451 439 310 444 374 b 429 642 444 529 439 593 b 388 759 419 692 405 731 b 328 817 370 787 350 807 b 258 833 306 828 282 833 l 251 833 b 214 830 237 833 224 832 b 190 815 204 828 196 822 b 178 781 185 807 181 795 b 175 722 176 766 175 746 l 175 181 m 304 972 l 236 972 l 140 1194 l 165 1194 l 271 1069 l 376 1194 l 401 1194 "},"ď":{"ha":556,"x_min":0,"x_max":0,"o":"m 322 833 b 315 892 322 861 320 881 b 274 910 309 904 296 910 l 238 910 l 238 972 l 249 972 b 303 978 271 972 289 974 b 337 990 317 981 328 985 b 357 1001 346 994 352 998 b 369 1007 362 1005 366 1007 b 381 986 377 1007 381 1000 l 381 139 b 388 80 381 111 383 91 b 421 63 393 68 404 63 l 446 63 l 446 0 b 365 -7 407 0 380 -2 b 332 -14 350 -12 339 -14 b 322 7 325 -14 322 -7 l 322 69 b 319 97 322 83 321 93 b 314 104 318 102 316 104 b 302 85 311 104 307 98 b 281 42 297 72 290 57 b 247 -1 272 26 261 12 b 193 -21 232 -14 214 -21 b 76 74 146 -21 107 11 b 29 347 45 138 29 229 b 42 495 29 401 33 450 b 76 612 50 540 61 579 b 128 688 90 645 107 670 b 193 715 148 706 170 715 b 247 698 214 715 232 709 b 281 660 261 686 272 674 b 302 622 290 646 297 633 b 314 604 307 610 311 604 b 319 611 316 604 318 606 b 322 639 321 616 322 625 l 322 833 m 99 347 b 126 130 99 256 108 184 b 213 49 145 76 174 49 b 260 71 230 49 246 56 b 295 133 274 86 285 106 b 317 227 305 159 312 191 b 325 347 322 264 325 304 b 317 467 325 391 322 431 b 295 562 312 504 305 535 b 260 624 285 588 274 609 b 213 646 246 638 230 646 b 126 565 174 646 145 619 b 99 347 108 510 99 438 m 432 914 b 444 971 432 937 436 956 b 475 993 452 986 462 993 b 509 969 486 993 497 985 b 526 878 521 953 526 922 b 500 738 526 822 518 775 b 453 649 482 700 467 670 l 439 681 b 474 748 449 696 461 719 b 494 831 488 777 494 805 b 492 840 494 836 494 839 b 489 842 491 841 490 842 b 483 839 487 842 485 841 b 472 836 480 837 477 836 b 443 859 460 836 450 844 b 432 914 436 874 432 893 "},"đ":{"ha":556,"x_min":0,"x_max":0,"o":"m 382 826 l 382 833 b 374 892 382 861 379 881 b 325 910 368 904 352 910 l 282 910 l 282 972 l 294 972 b 358 978 320 972 342 974 b 399 990 375 981 389 985 b 424 1001 410 994 418 998 b 439 1007 430 1005 435 1007 b 451 986 447 1007 451 1000 l 451 826 l 529 826 l 529 757 l 451 757 l 451 139 b 460 80 451 111 454 91 b 499 63 466 68 479 63 l 529 63 l 529 0 b 434 -7 484 0 452 -2 b 394 -14 416 -12 403 -14 b 382 7 386 -14 382 -7 l 382 69 b 379 97 382 83 381 93 b 374 104 377 102 375 104 b 359 85 370 104 365 98 b 334 42 353 72 345 57 b 293 -1 323 26 310 12 b 231 -21 276 -14 256 -21 b 90 74 173 -21 126 11 b 35 347 53 138 35 229 b 49 495 35 401 40 450 b 90 612 59 540 73 579 b 152 688 108 645 128 670 b 231 715 176 706 202 715 b 293 698 256 715 276 709 b 334 660 310 686 323 674 b 359 622 345 646 353 633 b 374 604 365 610 370 604 b 379 611 375 604 377 606 b 382 639 381 616 382 625 l 382 757 l 282 757 l 282 826 m 117 347 b 150 130 117 256 128 184 b 251 49 172 76 206 49 b 308 71 273 49 291 56 b 350 133 324 86 338 106 b 377 227 362 159 371 191 b 386 347 383 264 386 304 b 377 467 386 391 383 431 b 350 562 371 504 362 535 b 308 624 338 588 324 609 b 251 646 291 638 273 646 b 150 565 206 646 172 619 b 117 347 128 510 117 438 "},"Ē":{"ha":556,"x_min":0,"x_max":0,"o":"m 203 438 b 192 417 195 438 192 431 l 192 181 b 195 122 192 156 193 137 b 208 88 197 107 202 96 b 233 73 214 80 222 75 b 274 69 243 71 257 69 l 336 69 b 440 126 386 69 421 88 b 469 299 460 164 469 222 l 469 313 l 508 313 l 508 0 l 32 0 l 32 63 l 39 63 b 105 85 72 63 94 70 b 121 181 116 101 121 132 l 121 722 b 117 781 121 746 120 766 b 105 817 115 797 111 809 b 80 835 99 826 91 832 b 39 840 69 839 56 840 l 32 840 l 32 903 l 497 903 l 497 597 l 458 597 l 458 611 b 433 783 458 692 450 749 b 332 833 416 816 382 833 l 274 833 b 233 830 257 833 243 832 b 208 815 222 828 214 822 b 195 781 202 807 197 795 b 192 722 193 766 192 746 l 192 514 b 203 493 192 500 195 493 l 224 493 b 271 499 243 493 259 495 b 301 522 283 502 293 510 b 319 572 309 533 315 550 b 329 660 323 594 326 624 l 356 660 l 356 271 l 329 271 b 319 358 326 307 323 336 b 301 409 315 381 309 397 b 271 432 293 421 283 428 b 224 438 259 436 243 438 l 203 438 m 446 1111 l 446 1042 l 153 1042 l 153 1111 "},"ē":{"ha":556,"x_min":0,"x_max":0,"o":"m 501 139 b 449 60 487 109 469 83 b 382 4 431 39 409 21 b 288 -21 355 -12 324 -21 b 192 2 254 -21 222 -13 b 114 71 162 17 136 40 b 60 184 92 101 74 139 b 40 340 47 229 40 281 b 60 496 40 398 47 450 b 113 614 73 542 90 581 b 191 689 135 646 161 671 b 288 715 221 706 253 715 b 447 630 355 715 408 687 b 506 382 486 573 506 490 l 506 354 l 129 354 b 176 137 129 263 145 191 b 318 56 208 83 255 56 b 385 73 343 56 365 61 b 435 111 404 84 421 97 b 476 167 450 128 464 146 l 501 139 m 288 660 b 186 601 249 660 215 640 b 132 424 157 561 139 502 l 397 424 b 415 430 407 424 413 426 b 417 451 416 434 417 441 b 409 531 417 479 414 506 b 385 597 404 556 396 578 b 345 643 375 617 361 632 b 288 660 329 654 310 660 m 442 903 l 442 833 l 129 833 l 129 903 "},"Ė":{"ha":556,"x_min":0,"x_max":0,"o":"m 239 1104 b 253 1168 239 1129 244 1150 b 289 1194 263 1186 275 1194 b 326 1168 304 1194 316 1186 b 340 1104 335 1150 340 1129 b 326 1040 340 1079 335 1058 b 289 1014 316 1023 304 1014 b 253 1040 275 1014 263 1023 b 239 1104 244 1058 239 1079 m 203 438 b 192 417 195 438 192 431 l 192 181 b 195 122 192 156 193 137 b 208 88 197 107 202 96 b 233 73 214 80 222 75 b 274 69 243 71 257 69 l 336 69 b 440 126 386 69 421 88 b 469 299 460 164 469 222 l 469 313 l 508 313 l 508 0 l 32 0 l 32 63 l 39 63 b 105 85 72 63 94 70 b 121 181 116 101 121 132 l 121 722 b 117 781 121 746 120 766 b 105 817 115 797 111 809 b 80 835 99 826 91 832 b 39 840 69 839 56 840 l 32 840 l 32 903 l 497 903 l 497 597 l 458 597 l 458 611 b 433 783 458 692 450 749 b 332 833 416 816 382 833 l 274 833 b 233 830 257 833 243 832 b 208 815 222 828 214 822 b 195 781 202 807 197 795 b 192 722 193 766 192 746 l 192 514 b 203 493 192 500 195 493 l 224 493 b 271 499 243 493 259 495 b 301 522 283 502 293 510 b 319 572 309 533 315 550 b 329 660 323 594 326 624 l 356 660 l 356 271 l 329 271 b 319 358 326 307 323 336 b 301 409 315 381 309 397 b 271 432 293 421 283 428 b 224 438 259 436 243 438 l 203 438 "},"ė":{"ha":556,"x_min":0,"x_max":0,"o":"m 501 139 b 449 60 487 109 469 83 b 382 4 431 39 409 21 b 288 -21 355 -12 324 -21 b 192 2 254 -21 222 -13 b 114 71 162 17 136 40 b 60 184 92 101 74 139 b 40 340 47 229 40 281 b 60 496 40 398 47 450 b 113 614 73 542 90 581 b 191 689 135 646 161 671 b 288 715 221 706 253 715 b 447 630 355 715 408 687 b 506 382 486 573 506 490 l 506 354 l 129 354 b 176 137 129 263 145 191 b 318 56 208 83 255 56 b 385 73 343 56 365 61 b 435 111 404 84 421 97 b 476 167 450 128 464 146 l 501 139 m 288 660 b 186 601 249 660 215 640 b 132 424 157 561 139 502 l 397 424 b 415 430 407 424 413 426 b 417 451 416 434 417 441 b 409 531 417 479 414 506 b 385 597 404 556 396 578 b 345 643 375 617 361 632 b 288 660 329 654 310 660 m 218 903 b 237 967 218 928 224 949 b 283 993 249 984 265 993 b 328 967 301 993 316 984 b 347 903 341 949 347 928 b 328 839 347 878 341 856 b 283 813 316 821 301 813 b 237 839 265 813 249 821 b 218 903 224 856 218 878 "},"Ę":{"ha":556,"x_min":0,"x_max":0,"o":"m 203 438 b 192 417 195 438 192 431 l 192 181 b 195 122 192 156 193 137 b 208 88 197 107 202 96 b 233 73 214 80 222 75 b 274 69 243 71 257 69 l 336 69 b 440 126 386 69 421 88 b 469 299 460 164 469 222 l 469 313 l 508 313 l 508 0 l 439 0 b 415 -25 430 -6 422 -15 b 399 -58 410 -33 404 -44 b 392 -111 394 -72 392 -90 b 404 -174 392 -139 396 -160 b 435 -194 413 -187 423 -194 b 458 -184 445 -194 453 -191 b 471 -160 464 -177 468 -169 b 478 -125 475 -150 477 -138 l 493 -125 b 482 -206 491 -155 488 -181 b 460 -260 477 -225 470 -243 b 418 -285 451 -276 437 -285 b 367 -249 397 -285 380 -273 b 349 -160 355 -225 349 -195 b 358 -91 349 -134 352 -111 b 378 -40 364 -71 370 -54 b 407 0 386 -25 396 -11 l 32 0 l 32 63 l 39 63 b 105 85 72 63 94 70 b 121 181 116 101 121 132 l 121 722 b 117 781 121 746 120 766 b 105 817 115 797 111 809 b 80 835 99 826 91 832 b 39 840 69 839 56 840 l 32 840 l 32 903 l 497 903 l 497 597 l 458 597 l 458 611 b 433 783 458 692 450 749 b 332 833 416 816 382 833 l 274 833 b 233 830 257 833 243 832 b 208 815 222 828 214 822 b 195 781 202 807 197 795 b 192 722 193 766 192 746 l 192 514 b 203 493 192 500 195 493 l 224 493 b 271 499 243 493 259 495 b 301 522 283 502 293 510 b 319 572 309 533 315 550 b 329 660 323 594 326 624 l 356 660 l 356 271 l 329 271 b 319 358 326 307 323 336 b 301 409 315 381 309 397 b 271 432 293 421 283 428 b 224 438 259 436 243 438 l 203 438 "},"ę":{"ha":556,"x_min":0,"x_max":0,"o":"m 501 139 b 476 96 494 124 486 110 b 445 56 468 83 458 69 b 401 17 433 42 418 29 b 370 -24 396 11 385 -3 b 347 -111 355 -46 347 -75 b 363 -174 347 -139 353 -160 b 401 -194 374 -187 387 -194 b 431 -184 414 -194 424 -191 b 449 -160 438 -177 444 -169 b 457 -125 452 -150 455 -138 l 476 -125 b 463 -206 475 -155 470 -181 b 434 -260 456 -225 447 -243 b 382 -285 422 -276 404 -285 b 319 -251 357 -285 336 -274 b 293 -160 302 -229 293 -199 b 312 -72 293 -127 299 -98 b 349 -10 324 -46 337 -25 b 319 -18 338 -13 329 -16 b 288 -21 310 -20 300 -21 b 192 2 254 -21 222 -13 b 114 71 162 17 136 40 b 60 184 92 101 74 139 b 40 340 47 229 40 281 b 60 496 40 398 47 450 b 113 614 73 542 90 581 b 191 689 135 646 161 671 b 288 715 221 706 253 715 b 447 630 355 715 408 687 b 506 382 486 573 506 490 l 506 354 l 129 354 b 176 137 129 263 145 191 b 318 56 208 83 255 56 b 385 73 343 56 365 61 b 435 111 404 84 421 97 b 476 167 450 128 464 146 l 501 139 m 288 660 b 186 601 249 660 215 640 b 132 424 157 561 139 502 l 397 424 b 415 430 407 424 413 426 b 417 451 416 434 417 441 b 409 531 417 479 414 506 b 385 597 404 556 396 578 b 345 643 375 617 361 632 b 288 660 329 654 310 660 "},"Ě":{"ha":556,"x_min":0,"x_max":0,"o":"m 203 438 b 192 417 195 438 192 431 l 192 181 b 195 122 192 156 193 137 b 208 88 197 107 202 96 b 233 73 214 80 222 75 b 274 69 243 71 257 69 l 336 69 b 440 126 386 69 421 88 b 469 299 460 164 469 222 l 469 313 l 508 313 l 508 0 l 32 0 l 32 63 l 39 63 b 105 85 72 63 94 70 b 121 181 116 101 121 132 l 121 722 b 117 781 121 746 120 766 b 105 817 115 797 111 809 b 80 835 99 826 91 832 b 39 840 69 839 56 840 l 32 840 l 32 903 l 497 903 l 497 597 l 458 597 l 458 611 b 433 783 458 692 450 749 b 332 833 416 816 382 833 l 274 833 b 233 830 257 833 243 832 b 208 815 222 828 214 822 b 195 781 202 807 197 795 b 192 722 193 766 192 746 l 192 514 b 203 493 192 500 195 493 l 224 493 b 271 499 243 493 259 495 b 301 522 283 502 293 510 b 319 572 309 533 315 550 b 329 660 323 594 326 624 l 356 660 l 356 271 l 329 271 b 319 358 326 307 323 336 b 301 409 315 381 309 397 b 271 432 293 421 283 428 b 224 438 259 436 243 438 l 203 438 m 325 972 l 250 972 l 144 1194 l 172 1194 l 288 1069 l 403 1194 l 431 1194 "},"ě":{"ha":556,"x_min":0,"x_max":0,"o":"m 501 139 b 449 60 487 109 469 83 b 382 4 431 39 409 21 b 288 -21 355 -12 324 -21 b 192 2 254 -21 222 -13 b 114 71 162 17 136 40 b 60 184 92 101 74 139 b 40 340 47 229 40 281 b 60 496 40 398 47 450 b 113 614 73 542 90 581 b 191 689 135 646 161 671 b 288 715 221 706 253 715 b 447 630 355 715 408 687 b 506 382 486 573 506 490 l 506 354 l 129 354 b 176 137 129 263 145 191 b 318 56 208 83 255 56 b 385 73 343 56 365 61 b 435 111 404 84 421 97 b 476 167 450 128 464 146 l 501 139 m 288 660 b 186 601 249 660 215 640 b 132 424 157 561 139 502 l 397 424 b 415 430 407 424 413 426 b 417 451 416 434 417 441 b 409 531 417 479 414 506 b 385 597 404 556 396 578 b 345 643 375 617 361 632 b 288 660 329 654 310 660 m 332 771 l 238 771 l 114 993 l 149 993 l 285 861 l 422 993 l 457 993 "},"Ğ":{"ha":556,"x_min":0,"x_max":0,"o":"m 425 139 l 418 139 b 386 60 411 109 400 83 b 342 4 375 39 360 21 b 272 -21 323 -12 300 -21 b 177 12 238 -21 206 -10 b 101 106 148 34 123 65 b 51 254 80 146 63 196 b 33 451 39 313 33 378 b 52 649 33 525 40 590 b 104 797 65 707 82 756 b 183 891 126 838 153 869 b 279 924 213 913 245 924 b 335 913 300 924 319 920 b 376 889 350 905 364 897 b 406 865 388 881 398 873 b 425 854 414 858 420 854 b 436 866 431 854 434 858 b 439 910 438 874 439 888 l 439 917 l 472 917 l 472 590 l 443 590 b 418 726 439 641 431 687 b 369 819 407 760 391 791 b 279 861 347 847 317 861 b 159 761 230 861 190 828 b 113 451 128 694 113 591 b 160 151 113 315 128 215 b 288 56 192 88 235 56 b 340 75 307 56 324 62 b 377 127 355 88 367 105 b 399 202 387 149 394 174 b 407 292 404 230 407 260 l 407 306 b 405 365 407 330 406 349 b 396 401 403 380 400 392 b 375 419 391 409 384 416 b 338 424 366 422 353 424 l 326 424 l 326 486 l 542 486 l 542 424 l 533 424 b 485 401 509 424 493 416 b 472 306 476 387 472 355 l 472 -14 l 450 -14 m 272 993 b 210 1021 246 993 225 1002 b 174 1083 194 1039 182 1060 b 159 1151 166 1106 161 1129 b 156 1194 157 1174 156 1188 l 174 1194 b 188 1146 175 1176 180 1160 b 217 1113 194 1134 204 1123 b 272 1097 230 1102 248 1097 b 328 1113 296 1097 315 1102 b 357 1146 341 1123 350 1134 b 371 1194 364 1160 369 1176 l 389 1194 b 385 1151 389 1188 388 1174 b 370 1083 383 1129 378 1106 b 335 1021 362 1060 351 1039 b 272 993 320 1002 299 993 "},"ğ":{"ha":556,"x_min":0,"x_max":0,"o":"m 426 472 b 377 293 426 395 410 336 b 253 229 344 250 303 229 b 167 256 219 229 191 238 b 154 249 164 255 160 252 b 138 234 149 245 143 240 b 123 212 132 228 127 221 b 117 181 119 203 117 193 b 131 143 117 163 122 150 b 169 132 141 136 154 132 l 353 132 b 454 94 392 132 425 119 b 497 -42 483 69 497 24 b 482 -143 497 -78 492 -112 b 438 -225 472 -175 457 -202 b 366 -279 418 -248 394 -266 b 269 -299 338 -292 306 -299 b 174 -283 234 -299 203 -293 b 103 -240 146 -272 122 -258 b 58 -178 83 -222 68 -201 b 42 -104 47 -155 42 -130 b 65 -18 42 -64 49 -36 b 115 17 80 0 97 11 b 75 60 100 25 86 39 b 58 139 64 80 58 106 b 67 195 58 160 61 179 b 88 238 72 211 79 225 b 113 267 96 250 104 259 b 136 283 122 274 130 280 b 79 472 98 327 79 390 b 128 651 79 549 96 609 b 253 715 161 694 203 715 b 364 667 297 715 334 699 b 406 734 377 692 391 714 b 460 764 420 754 438 764 b 516 733 485 764 503 753 b 535 660 528 712 535 688 b 524 600 535 636 531 616 b 492 576 517 584 506 576 b 460 598 476 576 465 584 b 451 639 454 612 451 626 b 456 668 451 651 453 661 b 460 690 458 675 460 683 b 443 708 460 702 454 708 b 413 686 434 708 424 701 b 386 639 403 671 394 656 b 416 567 399 619 409 594 b 426 472 423 539 426 507 m 192 7 b 170 3 186 7 179 6 b 144 -11 161 1 153 -4 b 122 -42 135 -19 128 -29 b 113 -97 116 -56 113 -74 b 122 -149 113 -115 116 -132 b 149 -196 128 -166 137 -182 b 198 -230 162 -210 178 -221 b 269 -243 218 -239 242 -243 b 346 -228 300 -243 325 -238 b 395 -189 366 -218 383 -205 b 422 -137 408 -173 417 -156 b 431 -83 428 -119 431 -101 b 340 7 431 -23 400 7 l 192 7 m 353 472 b 326 610 353 531 344 578 b 253 660 309 643 284 660 b 179 610 221 660 197 643 b 153 472 162 578 153 531 b 179 334 153 413 162 367 b 253 285 197 301 221 285 b 326 334 284 285 309 301 b 353 472 344 367 353 413 m 261 778 b 194 804 233 778 211 787 b 157 865 178 822 165 842 b 141 931 149 887 143 909 b 138 972 139 952 138 966 l 157 972 b 172 924 159 954 164 938 b 203 890 179 912 189 900 b 261 875 217 880 236 875 b 319 890 286 875 306 880 b 351 924 333 900 344 912 b 365 972 359 938 363 954 l 386 972 b 383 931 386 966 385 952 b 366 865 380 909 375 887 b 328 804 357 842 344 822 b 261 778 311 787 289 778 "},"Ģ":{"ha":556,"x_min":0,"x_max":0,"o":"m 425 139 l 418 139 b 386 60 411 109 400 83 b 342 4 375 39 360 21 b 272 -21 323 -12 300 -21 b 177 12 238 -21 206 -10 b 101 106 148 34 123 65 b 51 254 80 146 63 196 b 33 451 39 313 33 378 b 52 649 33 525 40 590 b 104 797 65 707 82 756 b 183 891 126 838 153 869 b 279 924 213 913 245 924 b 335 913 300 924 319 920 b 376 889 350 905 364 897 b 406 865 388 881 398 873 b 425 854 414 858 420 854 b 436 866 431 854 434 858 b 439 910 438 874 439 888 l 439 917 l 472 917 l 472 590 l 443 590 b 418 726 439 641 431 687 b 369 819 407 760 391 791 b 279 861 347 847 317 861 b 159 761 230 861 190 828 b 113 451 128 694 113 591 b 160 151 113 315 128 215 b 288 56 192 88 235 56 b 340 75 307 56 324 62 b 377 127 355 88 367 105 b 399 202 387 149 394 174 b 407 292 404 230 407 260 l 407 306 b 405 365 407 330 406 349 b 396 401 403 380 400 392 b 375 419 391 409 384 416 b 338 424 366 422 353 424 l 326 424 l 326 486 l 542 486 l 542 424 l 533 424 b 485 401 509 424 493 416 b 472 306 476 387 472 355 l 472 -14 l 450 -14 m 243 -131 b 254 -75 243 -106 247 -88 b 281 -56 262 -62 270 -56 b 312 -78 292 -56 302 -63 b 326 -150 322 -93 326 -117 b 308 -255 326 -190 320 -225 b 263 -326 296 -285 281 -309 l 256 -299 b 286 -249 269 -285 280 -268 b 296 -207 293 -230 296 -216 b 294 -198 296 -201 295 -198 b 292 -197 294 -197 293 -197 b 288 -198 291 -197 290 -197 b 282 -199 287 -198 285 -199 b 255 -181 272 -199 263 -193 b 243 -131 247 -169 243 -152 "},"ģ":{"ha":556,"x_min":0,"x_max":0,"o":"m 426 472 b 377 293 426 395 410 336 b 253 229 344 250 303 229 b 167 256 219 229 191 238 b 154 249 164 255 160 252 b 138 234 149 245 143 240 b 123 212 132 228 127 221 b 117 181 119 203 117 193 b 131 143 117 163 122 150 b 169 132 141 136 154 132 l 353 132 b 454 94 392 132 425 119 b 497 -42 483 69 497 24 b 482 -143 497 -78 492 -112 b 438 -225 472 -175 457 -202 b 366 -279 418 -248 394 -266 b 269 -299 338 -292 306 -299 b 174 -283 234 -299 203 -293 b 103 -240 146 -272 122 -258 b 58 -178 83 -222 68 -201 b 42 -104 47 -155 42 -130 b 65 -18 42 -64 49 -36 b 115 17 80 0 97 11 b 75 60 100 25 86 39 b 58 139 64 80 58 106 b 67 195 58 160 61 179 b 88 238 72 211 79 225 b 113 267 96 250 104 259 b 136 283 122 274 130 280 b 79 472 98 327 79 390 b 128 651 79 549 96 609 b 253 715 161 694 203 715 b 364 667 297 715 334 699 b 406 734 377 692 391 714 b 460 764 420 754 438 764 b 516 733 485 764 503 753 b 535 660 528 712 535 688 b 524 600 535 636 531 616 b 492 576 517 584 506 576 b 460 598 476 576 465 584 b 451 639 454 612 451 626 b 456 668 451 651 453 661 b 460 690 458 675 460 683 b 443 708 460 702 454 708 b 413 686 434 708 424 701 b 386 639 403 671 394 656 b 416 567 399 619 409 594 b 426 472 423 539 426 507 m 192 7 b 170 3 186 7 179 6 b 144 -11 161 1 153 -4 b 122 -42 135 -19 128 -29 b 113 -97 116 -56 113 -74 b 122 -149 113 -115 116 -132 b 149 -196 128 -166 137 -182 b 198 -230 162 -210 178 -221 b 269 -243 218 -239 242 -243 b 346 -228 300 -243 325 -238 b 395 -189 366 -218 383 -205 b 422 -137 408 -173 417 -156 b 431 -83 428 -119 431 -101 b 340 7 431 -23 400 7 l 192 7 m 353 472 b 326 610 353 531 344 578 b 253 660 309 643 284 660 b 179 610 221 660 197 643 b 153 472 162 578 153 531 b 179 334 153 413 162 367 b 253 285 197 301 221 285 b 326 334 284 285 309 301 b 353 472 344 367 353 413 m 307 888 b 294 832 307 863 303 845 b 264 813 285 819 275 813 b 228 835 251 813 239 820 b 213 907 218 850 213 874 b 233 1012 213 947 219 982 b 285 1083 246 1042 263 1066 l 293 1056 b 258 1006 276 1042 265 1025 b 247 964 251 987 247 973 b 249 955 247 958 248 955 b 251 954 250 954 250 954 b 256 955 253 954 255 954 b 263 956 256 955 259 956 b 294 938 275 956 286 950 b 307 888 303 925 307 909 "},"Ī":{"ha":556,"x_min":0,"x_max":0,"o":"m 121 63 b 180 65 146 63 166 63 b 213 80 194 67 205 72 b 228 115 221 88 226 100 b 231 181 230 131 231 153 l 231 722 b 228 788 231 750 230 772 b 213 823 226 803 221 815 b 180 838 205 831 194 836 b 121 840 166 839 146 840 l 100 840 l 100 903 l 454 903 l 454 840 l 433 840 b 374 838 408 840 389 839 b 342 823 360 836 349 831 b 328 788 334 815 330 803 b 325 722 326 772 325 750 l 325 181 b 328 115 325 153 326 131 b 342 80 330 100 334 88 b 374 65 349 72 360 67 b 433 63 389 63 408 63 l 454 63 l 454 0 l 100 0 l 100 63 m 454 1111 l 454 1042 l 100 1042 l 100 1111 "},"ī":{"ha":556,"x_min":0,"x_max":0,"o":"m 236 556 b 225 615 236 583 232 603 b 164 632 218 626 197 632 l 114 632 l 114 694 l 125 694 b 207 700 158 694 186 696 b 259 712 228 704 246 708 b 290 724 272 716 283 720 b 308 729 297 727 303 729 b 325 708 319 729 325 722 l 325 139 b 336 80 325 111 329 91 b 397 63 344 68 364 63 l 469 63 l 469 0 l 92 0 l 92 63 l 164 63 b 225 80 197 63 218 68 b 236 139 232 91 236 111 l 236 556 m 431 903 l 431 833 l 81 833 l 81 903 "},"Į":{"ha":556,"x_min":0,"x_max":0,"o":"m 121 63 b 180 65 146 63 166 63 b 213 80 194 67 205 72 b 228 115 221 88 226 100 b 231 181 230 131 231 153 l 231 722 b 228 788 231 750 230 772 b 213 823 226 803 221 815 b 180 838 205 831 194 836 b 121 840 166 839 146 840 l 100 840 l 100 903 l 454 903 l 454 840 l 433 840 b 374 838 408 840 389 839 b 342 823 360 836 349 831 b 328 788 334 815 330 803 b 325 722 326 772 325 750 l 325 181 b 328 115 325 153 326 131 b 342 80 330 100 334 88 b 374 65 349 72 360 67 b 433 63 389 63 408 63 l 454 63 l 454 0 l 314 0 b 283 -25 302 -6 292 -15 b 261 -58 275 -33 268 -44 b 251 -111 255 -72 251 -90 b 268 -174 251 -139 257 -160 b 308 -194 279 -187 293 -194 b 340 -184 321 -194 332 -191 b 357 -160 347 -177 353 -169 b 367 -125 362 -150 365 -138 l 388 -125 b 374 -206 386 -155 381 -181 b 343 -260 366 -225 356 -243 b 288 -285 330 -276 312 -285 b 219 -249 259 -285 236 -273 b 194 -160 203 -225 194 -195 b 206 -91 194 -134 198 -111 b 233 -40 214 -71 223 -54 b 272 0 244 -25 257 -11 l 100 0 l 100 63 "},"į":{"ha":556,"x_min":0,"x_max":0,"o":"m 236 556 b 225 615 236 583 232 603 b 164 632 218 626 197 632 l 114 632 l 114 694 l 125 694 b 207 700 158 694 186 696 b 259 712 228 704 246 708 b 290 724 272 716 283 720 b 308 729 297 727 303 729 b 325 708 319 729 325 722 l 325 139 b 336 80 325 111 329 91 b 397 63 344 68 364 63 l 469 63 l 469 0 l 314 0 b 281 -25 302 -6 291 -15 b 258 -58 272 -33 265 -44 b 247 -111 251 -72 247 -90 b 265 -174 247 -139 253 -160 b 308 -194 277 -187 292 -194 b 341 -184 322 -194 333 -191 b 360 -160 349 -177 355 -169 b 369 -125 364 -150 368 -138 l 392 -125 b 376 -206 390 -155 385 -181 b 344 -260 369 -225 358 -243 b 286 -285 331 -276 311 -285 b 213 -249 256 -285 231 -273 b 186 -160 195 -225 186 -195 b 199 -91 186 -134 191 -111 b 228 -40 208 -71 218 -54 b 269 0 240 -25 254 -11 l 92 0 l 92 63 l 164 63 b 225 80 197 63 218 68 b 236 139 232 91 236 111 l 236 556 m 192 944 b 213 1008 192 969 199 991 b 264 1035 226 1026 244 1035 b 315 1008 284 1035 301 1026 b 336 944 329 991 336 969 b 315 881 336 919 329 898 b 264 854 301 863 284 854 b 213 881 244 854 226 863 b 192 944 199 898 192 919 "},"İ":{"ha":556,"x_min":0,"x_max":0,"o":"m 121 63 b 180 65 146 63 166 63 b 213 80 194 67 205 72 b 228 115 221 88 226 100 b 231 181 230 131 231 153 l 231 722 b 228 788 231 750 230 772 b 213 823 226 803 221 815 b 180 838 205 831 194 836 b 121 840 166 839 146 840 l 100 840 l 100 903 l 454 903 l 454 840 l 433 840 b 374 838 408 840 389 839 b 342 823 360 836 349 831 b 328 788 334 815 330 803 b 325 722 326 772 325 750 l 325 181 b 328 115 325 153 326 131 b 342 80 330 100 334 88 b 374 65 349 72 360 67 b 433 63 389 63 408 63 l 454 63 l 454 0 l 100 0 l 100 63 m 210 1104 b 230 1168 210 1129 216 1150 b 278 1194 243 1186 259 1194 b 326 1168 296 1194 312 1186 b 346 1104 339 1150 346 1129 b 326 1040 346 1079 339 1058 b 278 1014 312 1023 296 1014 b 230 1040 259 1014 243 1023 b 210 1104 216 1058 210 1079 "},"ı":{"ha":556,"x_min":0,"x_max":0,"o":"m 236 556 b 225 615 236 583 232 603 b 164 632 218 626 197 632 l 114 632 l 114 694 l 125 694 b 207 700 158 694 186 696 b 259 712 228 704 246 708 b 290 724 272 716 283 720 b 308 729 297 727 303 729 b 325 708 319 729 325 722 l 325 139 b 336 80 325 111 329 91 b 397 63 344 68 364 63 l 469 63 l 469 0 l 92 0 l 92 63 l 164 63 b 225 80 197 63 218 68 b 236 139 232 91 236 111 l 236 556 "},"Ķ":{"ha":556,"x_min":0,"x_max":0,"o":"m 35 63 b 94 85 64 63 84 70 b 108 181 103 101 108 132 l 108 722 b 106 781 108 746 107 766 b 94 817 104 797 100 809 b 72 835 89 826 81 832 b 35 840 62 839 50 840 l 28 840 l 28 903 l 251 903 l 251 840 l 244 840 b 208 835 230 840 217 839 b 185 817 198 832 190 826 b 174 781 179 809 175 797 b 171 722 172 766 171 746 l 171 438 l 360 750 b 381 808 374 774 381 794 b 350 840 381 830 370 840 l 332 840 l 332 903 l 521 903 l 521 840 l 510 840 b 463 818 492 840 476 833 b 422 764 449 803 435 785 l 281 529 l 454 139 b 491 81 466 112 478 93 b 538 63 503 69 519 63 l 542 63 l 542 0 l 346 0 l 346 63 l 360 63 b 386 86 377 63 386 70 b 383 108 386 93 385 100 b 374 132 380 116 377 124 l 233 449 l 171 347 l 171 181 b 185 85 171 132 176 101 b 244 63 195 70 215 63 l 251 63 l 251 0 l 28 0 l 28 63 m 249 -131 b 260 -75 249 -106 252 -88 b 285 -56 267 -62 275 -56 b 314 -78 295 -56 305 -63 b 328 -150 323 -93 328 -117 b 311 -255 328 -190 322 -225 b 267 -326 300 -285 285 -309 l 260 -299 b 290 -249 274 -285 284 -268 b 299 -207 296 -230 299 -216 b 297 -198 299 -201 298 -198 b 294 -197 296 -197 295 -197 b 292 -198 294 -197 293 -197 b 286 -199 291 -198 289 -199 b 260 -181 276 -199 267 -193 b 249 -131 252 -169 249 -152 "},"ķ":{"ha":556,"x_min":0,"x_max":0,"o":"m 172 139 b 181 80 172 111 175 91 b 219 63 187 68 200 63 l 249 63 l 249 0 l 29 0 l 29 63 l 58 63 b 97 80 78 63 91 68 b 106 139 103 91 106 111 l 106 833 b 97 892 106 861 103 881 b 50 910 92 904 76 910 l 25 910 l 25 972 l 29 972 b 87 978 52 972 72 974 b 124 990 102 981 114 985 b 146 1001 133 994 140 998 b 160 1007 151 1005 156 1007 b 172 986 168 1007 172 1000 l 172 319 l 332 542 b 357 600 349 564 357 583 b 319 632 357 621 344 632 l 299 632 l 299 694 l 526 694 l 526 632 l 514 632 b 456 610 493 632 473 625 b 408 556 439 595 423 577 l 306 413 l 424 167 b 480 84 443 126 462 98 b 539 63 498 70 518 63 l 543 63 l 543 0 l 315 0 l 315 63 l 336 63 b 367 89 356 63 367 71 b 363 110 367 95 366 102 b 354 132 361 117 358 125 l 253 340 l 172 229 l 172 139 m 233 -131 b 247 -75 233 -106 238 -88 b 278 -56 256 -62 267 -56 b 314 -78 291 -56 303 -63 b 331 -150 325 -93 331 -117 b 310 -255 331 -190 324 -225 b 257 -326 297 -285 279 -309 l 249 -299 b 285 -249 265 -285 277 -268 b 296 -207 292 -230 296 -216 b 294 -198 296 -201 295 -198 b 290 -197 292 -197 291 -197 b 287 -198 289 -197 288 -197 b 281 -199 285 -198 283 -199 b 247 -181 268 -199 256 -193 b 233 -131 238 -169 233 -152 "}}}
